%TF.GenerationSoftware,KiCad,Pcbnew,(6.0.10)*%
%TF.CreationDate,2023-06-04T21:30:06-04:00*%
%TF.ProjectId,diff-probe,64696666-2d70-4726-9f62-652e6b696361,A*%
%TF.SameCoordinates,PX1f78a40PY3750280*%
%TF.FileFunction,Copper,L1,Top*%
%TF.FilePolarity,Positive*%
%FSLAX46Y46*%
G04 Gerber Fmt 4.6, Leading zero omitted, Abs format (unit mm)*
G04 Created by KiCad (PCBNEW (6.0.10)) date 2023-06-04 21:30:06*
%MOMM*%
%LPD*%
G01*
G04 APERTURE LIST*
G04 Aperture macros list*
%AMRoundRect*
0 Rectangle with rounded corners*
0 $1 Rounding radius*
0 $2 $3 $4 $5 $6 $7 $8 $9 X,Y pos of 4 corners*
0 Add a 4 corners polygon primitive as box body*
4,1,4,$2,$3,$4,$5,$6,$7,$8,$9,$2,$3,0*
0 Add four circle primitives for the rounded corners*
1,1,$1+$1,$2,$3*
1,1,$1+$1,$4,$5*
1,1,$1+$1,$6,$7*
1,1,$1+$1,$8,$9*
0 Add four rect primitives between the rounded corners*
20,1,$1+$1,$2,$3,$4,$5,0*
20,1,$1+$1,$4,$5,$6,$7,0*
20,1,$1+$1,$6,$7,$8,$9,0*
20,1,$1+$1,$8,$9,$2,$3,0*%
%AMHorizOval*
0 Thick line with rounded ends*
0 $1 width*
0 $2 $3 position (X,Y) of the first rounded end (center of the circle)*
0 $4 $5 position (X,Y) of the second rounded end (center of the circle)*
0 Add line between two ends*
20,1,$1,$2,$3,$4,$5,0*
0 Add two circle primitives to create the rounded ends*
1,1,$1,$2,$3*
1,1,$1,$4,$5*%
G04 Aperture macros list end*
%TA.AperFunction,SMDPad,CuDef*%
%ADD10RoundRect,0.200000X0.275000X-0.200000X0.275000X0.200000X-0.275000X0.200000X-0.275000X-0.200000X0*%
%TD*%
%TA.AperFunction,SMDPad,CuDef*%
%ADD11RoundRect,0.200000X-0.275000X0.200000X-0.275000X-0.200000X0.275000X-0.200000X0.275000X0.200000X0*%
%TD*%
%TA.AperFunction,SMDPad,CuDef*%
%ADD12RoundRect,0.218750X-0.256250X0.218750X-0.256250X-0.218750X0.256250X-0.218750X0.256250X0.218750X0*%
%TD*%
%TA.AperFunction,ComponentPad*%
%ADD13O,7.000000X3.500000*%
%TD*%
%TA.AperFunction,ComponentPad*%
%ADD14RoundRect,0.400000X-0.400000X0.400000X-0.400000X-0.400000X0.400000X-0.400000X0.400000X0.400000X0*%
%TD*%
%TA.AperFunction,ComponentPad*%
%ADD15C,1.600000*%
%TD*%
%TA.AperFunction,SMDPad,CuDef*%
%ADD16RoundRect,0.150000X-0.725000X-0.150000X0.725000X-0.150000X0.725000X0.150000X-0.725000X0.150000X0*%
%TD*%
%TA.AperFunction,SMDPad,CuDef*%
%ADD17RoundRect,0.225000X-0.250000X0.225000X-0.250000X-0.225000X0.250000X-0.225000X0.250000X0.225000X0*%
%TD*%
%TA.AperFunction,SMDPad,CuDef*%
%ADD18RoundRect,0.225000X0.250000X-0.225000X0.250000X0.225000X-0.250000X0.225000X-0.250000X-0.225000X0*%
%TD*%
%TA.AperFunction,ComponentPad*%
%ADD19R,1.700000X1.700000*%
%TD*%
%TA.AperFunction,ComponentPad*%
%ADD20O,1.700000X1.700000*%
%TD*%
%TA.AperFunction,SMDPad,CuDef*%
%ADD21RoundRect,0.200000X-0.200000X-0.275000X0.200000X-0.275000X0.200000X0.275000X-0.200000X0.275000X0*%
%TD*%
%TA.AperFunction,ComponentPad*%
%ADD22HorizOval,1.700000X0.000000X0.000000X0.000000X0.000000X0*%
%TD*%
%TA.AperFunction,ViaPad*%
%ADD23C,0.800000*%
%TD*%
%TA.AperFunction,Conductor*%
%ADD24C,0.500000*%
%TD*%
G04 APERTURE END LIST*
D10*
%TO.P,R21,1*%
%TO.N,VSS*%
X33750000Y1925000D03*
%TO.P,R21,2*%
%TO.N,Net-(D21-Pad1)*%
X33750000Y3575000D03*
%TD*%
D11*
%TO.P,R20,1*%
%TO.N,VDD*%
X33750000Y14075000D03*
%TO.P,R20,2*%
%TO.N,Net-(D20-Pad2)*%
X33750000Y12425000D03*
%TD*%
D12*
%TO.P,D21,2,A*%
%TO.N,GND*%
X35750000Y1962500D03*
%TO.P,D21,1,K*%
%TO.N,Net-(D21-Pad1)*%
X35750000Y3537500D03*
%TD*%
%TO.P,D20,1,K*%
%TO.N,GND*%
X35712500Y14037500D03*
%TO.P,D20,2,A*%
%TO.N,Net-(D20-Pad2)*%
X35712500Y12462500D03*
%TD*%
D13*
%TO.P,J2,*%
%TO.N,*%
X53580000Y2920000D03*
X53580000Y13080000D03*
D14*
%TO.P,J2,1,In*%
%TO.N,/OUT*%
X48500000Y8000000D03*
D15*
%TO.P,J2,2,Ext*%
%TO.N,GND*%
X48500000Y10540000D03*
%TD*%
D16*
%TO.P,U1,1,FB*%
%TO.N,Net-(R5-Pad2)*%
X16425000Y6405000D03*
%TO.P,U1,2,-*%
%TO.N,/FB_POS*%
X16425000Y5135000D03*
%TO.P,U1,3,+*%
%TO.N,/ATTEN_POS*%
X16425000Y3865000D03*
%TO.P,U1,4,V-*%
%TO.N,VSS*%
X16425000Y2595000D03*
%TO.P,U1,5,V-*%
X21575000Y2595000D03*
%TO.P,U1,6*%
%TO.N,/BUF_POS*%
X21575000Y3865000D03*
%TO.P,U1,7,V+*%
%TO.N,VDD*%
X21575000Y5135000D03*
%TO.P,U1,8,~{SHDN}*%
%TO.N,unconnected-(U1-Pad8)*%
X21575000Y6405000D03*
%TD*%
D10*
%TO.P,R3,1*%
%TO.N,/IN_NEG*%
X5750000Y9175000D03*
%TO.P,R3,2*%
%TO.N,/ATTEN_NEG*%
X5750000Y10825000D03*
%TD*%
D17*
%TO.P,C4,1*%
%TO.N,/ATTEN_NEG*%
X9750000Y10775000D03*
%TO.P,C4,2*%
%TO.N,GND*%
X9750000Y9225000D03*
%TD*%
D11*
%TO.P,R7,1*%
%TO.N,Net-(R7-Pad1)*%
X13500000Y13825000D03*
%TO.P,R7,2*%
%TO.N,/FB_NEG*%
X13500000Y12175000D03*
%TD*%
D18*
%TO.P,C6,1*%
%TO.N,/DIFF_NEG*%
X28750000Y9225000D03*
%TO.P,C6,2*%
%TO.N,Net-(C6-Pad2)*%
X28750000Y10775000D03*
%TD*%
D17*
%TO.P,C1,1*%
%TO.N,/IN_POS*%
X7500000Y6775000D03*
%TO.P,C1,2*%
%TO.N,/ATTEN_POS*%
X7500000Y5225000D03*
%TD*%
D10*
%TO.P,R4,1*%
%TO.N,GND*%
X11500000Y9175000D03*
%TO.P,R4,2*%
%TO.N,/ATTEN_NEG*%
X11500000Y10825000D03*
%TD*%
D11*
%TO.P,R2,1*%
%TO.N,GND*%
X11500000Y6825000D03*
%TO.P,R2,2*%
%TO.N,/ATTEN_POS*%
X11500000Y5175000D03*
%TD*%
D16*
%TO.P,U2,8,~{SHDN}*%
%TO.N,unconnected-(U2-Pad8)*%
X21575000Y13405000D03*
%TO.P,U2,7,V+*%
%TO.N,VDD*%
X21575000Y12135000D03*
%TO.P,U2,6*%
%TO.N,/BUF_NEG*%
X21575000Y10865000D03*
%TO.P,U2,5,V-*%
%TO.N,VSS*%
X21575000Y9595000D03*
%TO.P,U2,4,V-*%
X16425000Y9595000D03*
%TO.P,U2,3,+*%
%TO.N,/ATTEN_NEG*%
X16425000Y10865000D03*
%TO.P,U2,2,-*%
%TO.N,/FB_NEG*%
X16425000Y12135000D03*
%TO.P,U2,1,FB*%
%TO.N,Net-(R7-Pad1)*%
X16425000Y13405000D03*
%TD*%
D18*
%TO.P,C2,1*%
%TO.N,/ATTEN_POS*%
X9750000Y5225000D03*
%TO.P,C2,2*%
%TO.N,GND*%
X9750000Y6775000D03*
%TD*%
D17*
%TO.P,C5,1*%
%TO.N,/DIFF_POS*%
X28750000Y7025000D03*
%TO.P,C5,2*%
%TO.N,GND*%
X28750000Y5475000D03*
%TD*%
D11*
%TO.P,R9,1*%
%TO.N,/DIFF_POS*%
X26750000Y7075000D03*
%TO.P,R9,2*%
%TO.N,GND*%
X26750000Y5425000D03*
%TD*%
%TO.P,R1,1*%
%TO.N,/IN_POS*%
X5750000Y6825000D03*
%TO.P,R1,2*%
%TO.N,/ATTEN_POS*%
X5750000Y5175000D03*
%TD*%
D10*
%TO.P,R11,1*%
%TO.N,/DIFF_NEG*%
X26750000Y9175000D03*
%TO.P,R11,2*%
%TO.N,Net-(C6-Pad2)*%
X26750000Y10825000D03*
%TD*%
D19*
%TO.P,J1,1,Pin_1*%
%TO.N,/IN_POS*%
X2000000Y6730000D03*
D20*
%TO.P,J1,2,Pin_2*%
%TO.N,/IN_NEG*%
X2000000Y9270000D03*
%TD*%
D10*
%TO.P,R8,1*%
%TO.N,/BUF_POS*%
X24750000Y5425000D03*
%TO.P,R8,2*%
%TO.N,/DIFF_POS*%
X24750000Y7075000D03*
%TD*%
D21*
%TO.P,R12,1*%
%TO.N,/DIFF*%
X41175000Y8000000D03*
%TO.P,R12,2*%
%TO.N,/OUT*%
X42825000Y8000000D03*
%TD*%
D18*
%TO.P,C3,1*%
%TO.N,/IN_NEG*%
X7500000Y9225000D03*
%TO.P,C3,2*%
%TO.N,/ATTEN_NEG*%
X7500000Y10775000D03*
%TD*%
D11*
%TO.P,R10,1*%
%TO.N,/BUF_NEG*%
X24750000Y10825000D03*
%TO.P,R10,2*%
%TO.N,/DIFF_NEG*%
X24750000Y9175000D03*
%TD*%
D10*
%TO.P,R5,1*%
%TO.N,/FB_POS*%
X13500000Y5175000D03*
%TO.P,R5,2*%
%TO.N,Net-(R5-Pad2)*%
X13500000Y6825000D03*
%TD*%
D16*
%TO.P,U3,1,FB*%
%TO.N,Net-(C6-Pad2)*%
X32175000Y9905000D03*
%TO.P,U3,2,-*%
%TO.N,/DIFF_NEG*%
X32175000Y8635000D03*
%TO.P,U3,3,+*%
%TO.N,/DIFF_POS*%
X32175000Y7365000D03*
%TO.P,U3,4,V-*%
%TO.N,VSS*%
X32175000Y6095000D03*
%TO.P,U3,5,V-*%
X37325000Y6095000D03*
%TO.P,U3,6*%
%TO.N,/DIFF*%
X37325000Y7365000D03*
%TO.P,U3,7,V+*%
%TO.N,VDD*%
X37325000Y8635000D03*
%TO.P,U3,8,~{SHDN}*%
%TO.N,unconnected-(U3-Pad8)*%
X37325000Y9905000D03*
%TD*%
D19*
%TO.P,J3,1,Pin_1*%
%TO.N,/NEG*%
X63500000Y5460000D03*
D22*
%TO.P,J3,2,Pin_2*%
%TO.N,GND*%
X63500000Y8000000D03*
D20*
%TO.P,J3,3,Pin_3*%
%TO.N,/POS*%
X63500000Y10540000D03*
%TD*%
D23*
%TO.N,GND*%
X39500000Y5000000D03*
X18000000Y13000000D03*
X9750000Y8000000D03*
X23750000Y1500000D03*
X22000000Y1500000D03*
X20000000Y6000000D03*
X23750000Y8500000D03*
X22000000Y8500000D03*
X26750000Y4250000D03*
X37750000Y5000000D03*
X28750000Y4250000D03*
X18000000Y6000000D03*
X37500000Y13250000D03*
X37500000Y2750000D03*
X33750000Y9500000D03*
X35750000Y9500000D03*
X20000000Y13000000D03*
X11500000Y8000000D03*
%TO.N,VSS*%
X32000000Y2750000D03*
X60500000Y3250000D03*
X18000000Y2500000D03*
X20000000Y9500000D03*
X60500000Y2000000D03*
X18000000Y9500000D03*
X35750000Y6000000D03*
X20000000Y2500000D03*
X33750000Y6000000D03*
%TO.N,VDD*%
X60500000Y14500000D03*
X23250000Y5250000D03*
X39000000Y8750000D03*
X32000000Y13250000D03*
X60500000Y13250000D03*
X23250000Y12250000D03*
%TO.N,/FB_POS*%
X14750000Y5000000D03*
%TO.N,/FB_NEG*%
X14750000Y12000000D03*
%TD*%
D24*
%TO.N,VDD*%
X38850000Y8600000D02*
X37360000Y8600000D01*
X39000000Y8750000D02*
X38850000Y8600000D01*
%TO.N,Net-(R5-Pad2)*%
X14925000Y6825000D02*
X13500000Y6825000D01*
X15345000Y6405000D02*
X14925000Y6825000D01*
X16425000Y6405000D02*
X15345000Y6405000D01*
%TO.N,/FB_POS*%
X14575000Y5175000D02*
X14750000Y5000000D01*
X13500000Y5175000D02*
X14575000Y5175000D01*
%TO.N,GND*%
X11500000Y9175000D02*
X11500000Y8000000D01*
X36712500Y1962500D02*
X37500000Y2750000D01*
X35750000Y1962500D02*
X36712500Y1962500D01*
%TO.N,VSS*%
X32825000Y1925000D02*
X33750000Y1925000D01*
X32000000Y2750000D02*
X32825000Y1925000D01*
%TO.N,GND*%
X36712500Y14037500D02*
X37500000Y13250000D01*
X35712500Y14037500D02*
X36712500Y14037500D01*
%TO.N,VDD*%
X32825000Y14075000D02*
X32000000Y13250000D01*
X33750000Y14075000D02*
X32825000Y14075000D01*
%TO.N,Net-(D21-Pad1)*%
X33750000Y3575000D02*
X35712500Y3575000D01*
%TO.N,Net-(D20-Pad2)*%
X33750000Y12425000D02*
X35675000Y12425000D01*
%TO.N,Net-(R7-Pad1)*%
X14845000Y13405000D02*
X16425000Y13405000D01*
X14425000Y13825000D02*
X14845000Y13405000D01*
X13500000Y13825000D02*
X14425000Y13825000D01*
%TO.N,/FB_NEG*%
X14575000Y12175000D02*
X14750000Y12000000D01*
X13500000Y12175000D02*
X14575000Y12175000D01*
%TO.N,/OUT*%
X42825000Y8000000D02*
X48500000Y8000000D01*
%TO.N,/IN_POS*%
X5750000Y6825000D02*
X2050000Y6825000D01*
X7500000Y6775000D02*
X5800000Y6775000D01*
%TO.N,/ATTEN_POS*%
X12810000Y3865000D02*
X16425000Y3865000D01*
X7500000Y5225000D02*
X11450000Y5225000D01*
X11500000Y5175000D02*
X12810000Y3865000D01*
X5750000Y5175000D02*
X7450000Y5175000D01*
%TO.N,GND*%
X28750000Y5475000D02*
X28750000Y4250000D01*
X26675000Y5425000D02*
X28700000Y5425000D01*
X9750000Y9225000D02*
X9750000Y8050000D01*
X26750000Y5425000D02*
X26750000Y4250000D01*
X9750000Y6775000D02*
X9750000Y7950000D01*
X11500000Y6825000D02*
X11500000Y7900000D01*
%TO.N,/IN_NEG*%
X5705000Y9170000D02*
X1855000Y9170000D01*
X7455000Y9220000D02*
X5755000Y9220000D01*
%TO.N,/ATTEN_NEG*%
X7500000Y10775000D02*
X11450000Y10775000D01*
X7455000Y10770000D02*
X5755000Y10770000D01*
X13865000Y10865000D02*
X16425000Y10865000D01*
X11500000Y10825000D02*
X13825000Y10825000D01*
X13825000Y10825000D02*
X13865000Y10865000D01*
%TO.N,VSS*%
X18000000Y2595000D02*
X20000000Y2595000D01*
X16425000Y2595000D02*
X18000000Y2595000D01*
X32175000Y6095000D02*
X33655000Y6095000D01*
X33655000Y6095000D02*
X33750000Y6000000D01*
X35845000Y6095000D02*
X35750000Y6000000D01*
X37325000Y6095000D02*
X35845000Y6095000D01*
X17750000Y9500000D02*
X17655000Y9595000D01*
X20000000Y2595000D02*
X21575000Y2595000D01*
X21575000Y9595000D02*
X20345000Y9595000D01*
X20345000Y9595000D02*
X20250000Y9500000D01*
X17655000Y9595000D02*
X16425000Y9595000D01*
%TO.N,VDD*%
X23200000Y5100000D02*
X21610000Y5100000D01*
X23135000Y12135000D02*
X23250000Y12250000D01*
X21575000Y12135000D02*
X23135000Y12135000D01*
%TO.N,/FB_POS*%
X14750000Y5000000D02*
X14885000Y5135000D01*
X14885000Y5135000D02*
X16425000Y5135000D01*
%TO.N,/FB_NEG*%
X14885000Y12135000D02*
X16425000Y12135000D01*
X14750000Y12000000D02*
X14885000Y12135000D01*
%TO.N,/BUF_POS*%
X24675000Y5175000D02*
X24675000Y5425000D01*
X21575000Y3865000D02*
X23365000Y3865000D01*
X23365000Y3865000D02*
X24675000Y5175000D01*
%TO.N,/DIFF_POS*%
X26675000Y7075000D02*
X28700000Y7075000D01*
X24675000Y7075000D02*
X26675000Y7075000D01*
X29865000Y7365000D02*
X32175000Y7365000D01*
X28750000Y7025000D02*
X29525000Y7025000D01*
X29525000Y7025000D02*
X29865000Y7365000D01*
%TO.N,/BUF_NEG*%
X23635000Y10865000D02*
X23675000Y10825000D01*
X23675000Y10825000D02*
X24675000Y10825000D01*
X23635000Y10865000D02*
X21575000Y10865000D01*
%TO.N,/DIFF_NEG*%
X29275000Y9225000D02*
X29865000Y8635000D01*
X28750000Y9225000D02*
X29275000Y9225000D01*
X24675000Y9175000D02*
X26675000Y9175000D01*
X26675000Y9175000D02*
X28700000Y9175000D01*
X29865000Y8635000D02*
X32175000Y8635000D01*
%TO.N,/DIFF*%
X39115000Y7365000D02*
X39750000Y8000000D01*
X37325000Y7365000D02*
X39115000Y7365000D01*
X39750000Y8000000D02*
X41175000Y8000000D01*
%TO.N,Net-(C6-Pad2)*%
X28750000Y10775000D02*
X29475000Y10775000D01*
X26675000Y10825000D02*
X28700000Y10825000D01*
X30345000Y9905000D02*
X32175000Y9905000D01*
X29475000Y10775000D02*
X30345000Y9905000D01*
%TD*%
M02*
