%TF.GenerationSoftware,KiCad,Pcbnew,(6.0.10)*%
%TF.CreationDate,2023-06-04T13:07:17-04:00*%
%TF.ProjectId,diff-probe,64696666-2d70-4726-9f62-652e6b696361,A*%
%TF.SameCoordinates,PX1f78a40PY3750280*%
%TF.FileFunction,Copper,L2,Inr*%
%TF.FilePolarity,Positive*%
%FSLAX46Y46*%
G04 Gerber Fmt 4.6, Leading zero omitted, Abs format (unit mm)*
G04 Created by KiCad (PCBNEW (6.0.10)) date 2023-06-04 13:07:17*
%MOMM*%
%LPD*%
G01*
G04 APERTURE LIST*
G04 Aperture macros list*
%AMRoundRect*
0 Rectangle with rounded corners*
0 $1 Rounding radius*
0 $2 $3 $4 $5 $6 $7 $8 $9 X,Y pos of 4 corners*
0 Add a 4 corners polygon primitive as box body*
4,1,4,$2,$3,$4,$5,$6,$7,$8,$9,$2,$3,0*
0 Add four circle primitives for the rounded corners*
1,1,$1+$1,$2,$3*
1,1,$1+$1,$4,$5*
1,1,$1+$1,$6,$7*
1,1,$1+$1,$8,$9*
0 Add four rect primitives between the rounded corners*
20,1,$1+$1,$2,$3,$4,$5,0*
20,1,$1+$1,$4,$5,$6,$7,0*
20,1,$1+$1,$6,$7,$8,$9,0*
20,1,$1+$1,$8,$9,$2,$3,0*%
%AMHorizOval*
0 Thick line with rounded ends*
0 $1 width*
0 $2 $3 position (X,Y) of the first rounded end (center of the circle)*
0 $4 $5 position (X,Y) of the second rounded end (center of the circle)*
0 Add line between two ends*
20,1,$1,$2,$3,$4,$5,0*
0 Add two circle primitives to create the rounded ends*
1,1,$1,$2,$3*
1,1,$1,$4,$5*%
G04 Aperture macros list end*
%TA.AperFunction,ComponentPad*%
%ADD10O,7.000000X3.500000*%
%TD*%
%TA.AperFunction,ComponentPad*%
%ADD11RoundRect,0.400000X-0.400000X0.400000X-0.400000X-0.400000X0.400000X-0.400000X0.400000X0.400000X0*%
%TD*%
%TA.AperFunction,ComponentPad*%
%ADD12C,1.600000*%
%TD*%
%TA.AperFunction,ComponentPad*%
%ADD13R,1.700000X1.700000*%
%TD*%
%TA.AperFunction,ComponentPad*%
%ADD14O,1.700000X1.700000*%
%TD*%
%TA.AperFunction,ComponentPad*%
%ADD15HorizOval,1.700000X0.000000X0.000000X0.000000X0.000000X0*%
%TD*%
%TA.AperFunction,ViaPad*%
%ADD16C,0.800000*%
%TD*%
G04 APERTURE END LIST*
D10*
%TO.N,*%
%TO.C,J2*%
X53580000Y2920000D03*
X53580000Y13080000D03*
D11*
%TO.N,/OUT*%
X48500000Y8000000D03*
D12*
%TO.N,GND*%
X48500000Y10540000D03*
%TD*%
D13*
%TO.N,/IN_POS*%
%TO.C,J1*%
X2000000Y6730000D03*
D14*
%TO.N,/IN_NEG*%
X2000000Y9270000D03*
%TD*%
D13*
%TO.N,/NEG*%
%TO.C,J3*%
X63500000Y5460000D03*
D15*
%TO.N,GND*%
X63500000Y8000000D03*
D14*
%TO.N,/POS*%
X63500000Y10540000D03*
%TD*%
D16*
%TO.N,GND*%
X39250000Y4750000D03*
X18000000Y13000000D03*
X9750000Y8000000D03*
X23500000Y1500000D03*
X21750000Y1500000D03*
X20000000Y6000000D03*
X23500000Y8500000D03*
X21750000Y8500000D03*
X26750000Y4250000D03*
X37500000Y4750000D03*
X28750000Y4250000D03*
X18000000Y6000000D03*
X37500000Y13250000D03*
X37500000Y2750000D03*
X33750000Y9500000D03*
X35750000Y9500000D03*
X20000000Y13000000D03*
X11500000Y8000000D03*
%TO.N,VSS*%
X32000000Y2750000D03*
X60500000Y3250000D03*
X18000000Y2500000D03*
X20000000Y9500000D03*
X60500000Y2000000D03*
X18000000Y9500000D03*
X35750000Y6000000D03*
X20000000Y2500000D03*
X33750000Y6000000D03*
%TO.N,VDD*%
X60500000Y14500000D03*
X23250000Y5250000D03*
X39000000Y8600000D03*
X32000000Y13250000D03*
X60500000Y13250000D03*
X23250000Y12250000D03*
%TO.N,/FB_POS*%
X14750000Y5000000D03*
%TO.N,/FB_NEG*%
X14750000Y12000000D03*
%TD*%
%TA.AperFunction,Conductor*%
%TO.N,GND*%
G36*
X41651361Y14979998D02*
G01*
X41697854Y14926342D01*
X41707958Y14856068D01*
X41678464Y14791488D01*
X41613295Y14751637D01*
X41566374Y14740112D01*
X41508994Y14726018D01*
X41504342Y14724043D01*
X41504338Y14724042D01*
X41340766Y14654610D01*
X41279323Y14628529D01*
X41068192Y14495573D01*
X41064398Y14492228D01*
X40884832Y14333920D01*
X40884829Y14333917D01*
X40881035Y14330572D01*
X40722666Y14137770D01*
X40597160Y13922128D01*
X40595347Y13917405D01*
X40595346Y13917403D01*
X40563187Y13833625D01*
X40507745Y13689195D01*
X40506712Y13684249D01*
X40506710Y13684243D01*
X40485236Y13581450D01*
X40456722Y13444961D01*
X40456493Y13439912D01*
X40456492Y13439906D01*
X40455170Y13410780D01*
X40445404Y13195712D01*
X40445985Y13190692D01*
X40445985Y13190688D01*
X40456893Y13096414D01*
X40474081Y12947860D01*
X40475460Y12942989D01*
X40475460Y12942986D01*
X40484779Y12910053D01*
X40542017Y12707781D01*
X40564838Y12658841D01*
X40616421Y12548221D01*
X40647462Y12481652D01*
X40787706Y12275290D01*
X40959138Y12094006D01*
X40963164Y12090928D01*
X40963165Y12090927D01*
X41101421Y11985222D01*
X41157349Y11942462D01*
X41377239Y11824557D01*
X41613152Y11743326D01*
X41741099Y11721226D01*
X41855107Y11701533D01*
X41855113Y11701532D01*
X41859017Y11700858D01*
X41862978Y11700678D01*
X41862979Y11700678D01*
X41887503Y11699564D01*
X41887522Y11699564D01*
X41888922Y11699500D01*
X42062691Y11699500D01*
X42065199Y11699702D01*
X42065204Y11699702D01*
X42243661Y11714060D01*
X42243666Y11714061D01*
X42248702Y11714466D01*
X42253610Y11715671D01*
X42253613Y11715672D01*
X42486092Y11772775D01*
X42491006Y11773982D01*
X42495658Y11775957D01*
X42495662Y11775958D01*
X42716022Y11869495D01*
X42716023Y11869495D01*
X42720677Y11871471D01*
X42931808Y12004427D01*
X43029923Y12090927D01*
X43115168Y12166080D01*
X43115171Y12166083D01*
X43118965Y12169428D01*
X43277334Y12362230D01*
X43402840Y12577872D01*
X43404983Y12583453D01*
X43475607Y12767436D01*
X43492255Y12810805D01*
X43495980Y12828632D01*
X43542243Y13050085D01*
X43543278Y13055039D01*
X43543518Y13060313D01*
X43551943Y13245865D01*
X43554596Y13304288D01*
X43540581Y13425423D01*
X43526501Y13547110D01*
X43525919Y13552140D01*
X43457983Y13792219D01*
X43395366Y13926502D01*
X43354675Y14013766D01*
X43354673Y14013770D01*
X43352538Y14018348D01*
X43212294Y14224710D01*
X43040862Y14405994D01*
X42980773Y14451936D01*
X42846677Y14554460D01*
X42846676Y14554461D01*
X42842651Y14557538D01*
X42622761Y14675443D01*
X42392102Y14754865D01*
X42334204Y14795955D01*
X42307713Y14861824D01*
X42321038Y14931559D01*
X42369950Y14983019D01*
X42433123Y15000000D01*
X50596346Y15000000D01*
X50664467Y14979998D01*
X50710960Y14926342D01*
X50721064Y14856068D01*
X50691570Y14791488D01*
X50670407Y14772064D01*
X50534128Y14673051D01*
X50508746Y14654610D01*
X50505582Y14651554D01*
X50505579Y14651552D01*
X50305626Y14458460D01*
X50305622Y14458455D01*
X50302461Y14455403D01*
X50299754Y14451938D01*
X50299752Y14451936D01*
X50217309Y14346414D01*
X50125907Y14229425D01*
X50123704Y14225609D01*
X50012968Y14033807D01*
X49982523Y13981075D01*
X49875097Y13715187D01*
X49805721Y13436935D01*
X49805262Y13432566D01*
X49805261Y13432561D01*
X49780898Y13200766D01*
X49775745Y13151736D01*
X49775898Y13147348D01*
X49775898Y13147342D01*
X49784260Y12907906D01*
X49785753Y12865141D01*
X49786515Y12860818D01*
X49786516Y12860811D01*
X49815242Y12697901D01*
X49835550Y12582728D01*
X49836905Y12578557D01*
X49836907Y12578550D01*
X49871473Y12472169D01*
X49924167Y12309994D01*
X49926095Y12306041D01*
X49926097Y12306036D01*
X49955445Y12245865D01*
X50049879Y12052247D01*
X50210238Y11814504D01*
X50402125Y11601392D01*
X50621803Y11417060D01*
X50864998Y11265095D01*
X51006260Y11202201D01*
X51091661Y11164178D01*
X51126975Y11148455D01*
X51402636Y11069411D01*
X51406986Y11068800D01*
X51406989Y11068799D01*
X51511342Y11054133D01*
X51686615Y11029500D01*
X55401604Y11029500D01*
X55403790Y11029653D01*
X55403794Y11029653D01*
X55611686Y11044190D01*
X55611691Y11044191D01*
X55616071Y11044497D01*
X55620365Y11045410D01*
X55620367Y11045410D01*
X55738984Y11070623D01*
X55896575Y11104120D01*
X55900706Y11105624D01*
X55900711Y11105625D01*
X56075633Y11169292D01*
X56166050Y11202201D01*
X56243081Y11243159D01*
X56415361Y11334761D01*
X56415367Y11334765D01*
X56419253Y11336831D01*
X56422813Y11339418D01*
X56422817Y11339420D01*
X56647691Y11502801D01*
X56647694Y11502803D01*
X56651254Y11505390D01*
X56661137Y11514934D01*
X56854374Y11701540D01*
X56854378Y11701545D01*
X56857539Y11704597D01*
X56864933Y11714060D01*
X57031381Y11927104D01*
X57034093Y11930575D01*
X57078662Y12007772D01*
X57175276Y12175112D01*
X57175278Y12175117D01*
X57177477Y12178925D01*
X57284903Y12444813D01*
X57295231Y12486234D01*
X57353214Y12718794D01*
X57354279Y12723065D01*
X57357113Y12750023D01*
X57383796Y13003895D01*
X57383796Y13003898D01*
X57384255Y13008264D01*
X57382622Y13055039D01*
X57374401Y13290462D01*
X57374400Y13290468D01*
X57374247Y13294859D01*
X57372585Y13304288D01*
X57325212Y13572949D01*
X57324450Y13577272D01*
X57323095Y13581443D01*
X57323093Y13581450D01*
X57258265Y13780967D01*
X57235833Y13850006D01*
X57223716Y13874851D01*
X57170046Y13984888D01*
X57110121Y14107753D01*
X56949762Y14345496D01*
X56757875Y14558608D01*
X56538197Y14742940D01*
X56524279Y14751637D01*
X56499460Y14767146D01*
X56452289Y14820207D01*
X56441294Y14890347D01*
X56469965Y14955297D01*
X56529199Y14994436D01*
X56566229Y15000000D01*
X59758684Y15000000D01*
X59826805Y14979998D01*
X59873298Y14926342D01*
X59883402Y14856068D01*
X59876078Y14828233D01*
X59816524Y14675487D01*
X59815532Y14667954D01*
X59815532Y14667953D01*
X59800591Y14554460D01*
X59794394Y14507389D01*
X59812999Y14338865D01*
X59871266Y14179644D01*
X59875502Y14173341D01*
X59875502Y14173340D01*
X59888574Y14153887D01*
X59965830Y14038917D01*
X59971442Y14033810D01*
X59971445Y14033807D01*
X60043737Y13968027D01*
X60080659Y13907387D01*
X60078936Y13836412D01*
X60041768Y13779888D01*
X59975604Y13722169D01*
X59878113Y13583453D01*
X59816524Y13425487D01*
X59815532Y13417954D01*
X59815532Y13417953D01*
X59799903Y13299234D01*
X59794394Y13257389D01*
X59812999Y13088865D01*
X59871266Y12929644D01*
X59875502Y12923341D01*
X59875502Y12923340D01*
X59885289Y12908776D01*
X59965830Y12788917D01*
X59971442Y12783810D01*
X59971445Y12783807D01*
X60085612Y12679923D01*
X60085616Y12679920D01*
X60091233Y12674809D01*
X60097906Y12671186D01*
X60097910Y12671183D01*
X60233558Y12597533D01*
X60233560Y12597532D01*
X60240235Y12593908D01*
X60247584Y12591980D01*
X60396883Y12552812D01*
X60396885Y12552812D01*
X60404233Y12550884D01*
X60490609Y12549527D01*
X60566161Y12548340D01*
X60566164Y12548340D01*
X60573760Y12548221D01*
X60581165Y12549917D01*
X60581166Y12549917D01*
X60641586Y12563755D01*
X60739029Y12586072D01*
X60890498Y12662253D01*
X60993263Y12750023D01*
X61013651Y12767436D01*
X61013652Y12767437D01*
X61019423Y12772366D01*
X61118361Y12910053D01*
X61126237Y12929644D01*
X61178766Y13060313D01*
X61178767Y13060315D01*
X61181601Y13067366D01*
X61205490Y13235222D01*
X61205645Y13250000D01*
X61203840Y13264920D01*
X61186188Y13410780D01*
X61185276Y13418320D01*
X61125345Y13576923D01*
X61029312Y13716651D01*
X60957122Y13780970D01*
X60919568Y13841218D01*
X60920548Y13912208D01*
X60959112Y13970855D01*
X61013651Y14017436D01*
X61013652Y14017437D01*
X61019423Y14022366D01*
X61118361Y14160053D01*
X61126237Y14179644D01*
X61178766Y14310313D01*
X61178767Y14310315D01*
X61181601Y14317366D01*
X61205490Y14485222D01*
X61205645Y14500000D01*
X61203840Y14514920D01*
X61198553Y14558608D01*
X61185276Y14668320D01*
X61125345Y14826923D01*
X61127792Y14827847D01*
X61116389Y14885274D01*
X61142407Y14951332D01*
X61200007Y14992837D01*
X61241884Y15000000D01*
X67874000Y15000000D01*
X67942121Y14979998D01*
X67988614Y14926342D01*
X68000000Y14874000D01*
X68000000Y1126000D01*
X67979998Y1057879D01*
X67926342Y1011386D01*
X67874000Y1000000D01*
X56563654Y1000000D01*
X56495533Y1020002D01*
X56449040Y1073658D01*
X56438936Y1143932D01*
X56468430Y1208512D01*
X56489593Y1227936D01*
X56647691Y1342801D01*
X56647694Y1342803D01*
X56651254Y1345390D01*
X56654421Y1348448D01*
X56854374Y1541540D01*
X56854378Y1541545D01*
X56857539Y1544597D01*
X56899019Y1597688D01*
X57031381Y1767104D01*
X57034093Y1770575D01*
X57089533Y1866601D01*
X57170817Y2007389D01*
X59794394Y2007389D01*
X59812999Y1838865D01*
X59871266Y1679644D01*
X59875502Y1673341D01*
X59875502Y1673340D01*
X59885709Y1658150D01*
X59965830Y1538917D01*
X59971442Y1533810D01*
X59971445Y1533807D01*
X60085612Y1429923D01*
X60085616Y1429920D01*
X60091233Y1424809D01*
X60097906Y1421186D01*
X60097910Y1421183D01*
X60233558Y1347533D01*
X60233560Y1347532D01*
X60240235Y1343908D01*
X60247584Y1341980D01*
X60396883Y1302812D01*
X60396885Y1302812D01*
X60404233Y1300884D01*
X60490609Y1299527D01*
X60566161Y1298340D01*
X60566164Y1298340D01*
X60573760Y1298221D01*
X60581165Y1299917D01*
X60581166Y1299917D01*
X60641586Y1313755D01*
X60739029Y1336072D01*
X60890498Y1412253D01*
X61019423Y1522366D01*
X61118361Y1660053D01*
X61126237Y1679644D01*
X61178766Y1810313D01*
X61178767Y1810315D01*
X61181601Y1817366D01*
X61205490Y1985222D01*
X61205645Y2000000D01*
X61203840Y2014920D01*
X61196221Y2077872D01*
X61185276Y2168320D01*
X61125345Y2326923D01*
X61059079Y2423340D01*
X61033614Y2460392D01*
X61033613Y2460393D01*
X61029312Y2466651D01*
X60957122Y2530970D01*
X60919568Y2591218D01*
X60920548Y2662208D01*
X60959112Y2720855D01*
X61013651Y2767436D01*
X61013652Y2767437D01*
X61019423Y2772366D01*
X61118361Y2910053D01*
X61124540Y2925423D01*
X61178766Y3060313D01*
X61178767Y3060315D01*
X61181601Y3067366D01*
X61190581Y3130462D01*
X61204909Y3231138D01*
X61204909Y3231141D01*
X61205490Y3235222D01*
X61205645Y3250000D01*
X61203840Y3264920D01*
X61195104Y3337108D01*
X61185276Y3418320D01*
X61125345Y3576923D01*
X61080841Y3641676D01*
X61033614Y3710392D01*
X61033613Y3710393D01*
X61029312Y3716651D01*
X61016132Y3728394D01*
X60908392Y3824388D01*
X60908388Y3824390D01*
X60902721Y3829440D01*
X60752881Y3908776D01*
X60588441Y3950081D01*
X60580843Y3950121D01*
X60580841Y3950121D01*
X60503668Y3950525D01*
X60418895Y3950969D01*
X60411508Y3949195D01*
X60411504Y3949195D01*
X60268162Y3914780D01*
X60254032Y3911388D01*
X60247288Y3907907D01*
X60247285Y3907906D01*
X60110117Y3837108D01*
X60103369Y3833625D01*
X60097647Y3828633D01*
X60097645Y3828632D01*
X60050288Y3787320D01*
X59975604Y3722169D01*
X59971237Y3715955D01*
X59913216Y3633399D01*
X59878113Y3583453D01*
X59816524Y3425487D01*
X59815532Y3417954D01*
X59815532Y3417953D01*
X59797743Y3282825D01*
X59794394Y3257389D01*
X59812999Y3088865D01*
X59818297Y3074388D01*
X59867511Y2939906D01*
X59871266Y2929644D01*
X59875502Y2923341D01*
X59875502Y2923340D01*
X59888574Y2903887D01*
X59965830Y2788917D01*
X59971442Y2783810D01*
X59971445Y2783807D01*
X60043737Y2718027D01*
X60080659Y2657387D01*
X60078936Y2586412D01*
X60041768Y2529888D01*
X59975604Y2472169D01*
X59878113Y2333453D01*
X59816524Y2175487D01*
X59815532Y2167954D01*
X59815532Y2167953D01*
X59795411Y2015112D01*
X59794394Y2007389D01*
X57170817Y2007389D01*
X57175276Y2015112D01*
X57175278Y2015117D01*
X57177477Y2018925D01*
X57284903Y2284813D01*
X57296963Y2333181D01*
X57353214Y2558794D01*
X57354279Y2563065D01*
X57360796Y2625063D01*
X57383796Y2843895D01*
X57383796Y2843898D01*
X57384255Y2848264D01*
X57382313Y2903887D01*
X57374401Y3130462D01*
X57374400Y3130468D01*
X57374247Y3134859D01*
X57370657Y3155224D01*
X57325622Y3410625D01*
X57324450Y3417272D01*
X57323095Y3421443D01*
X57323093Y3421450D01*
X57254226Y3633399D01*
X57235833Y3690006D01*
X57222838Y3716651D01*
X57132284Y3902312D01*
X57110121Y3947753D01*
X56949762Y4185496D01*
X56757875Y4398608D01*
X56559155Y4565354D01*
X62349500Y4565354D01*
X62352618Y4539154D01*
X62356456Y4530514D01*
X62356456Y4530513D01*
X62384814Y4466670D01*
X62398061Y4436847D01*
X62477287Y4357759D01*
X62487924Y4353056D01*
X62487926Y4353055D01*
X62526341Y4336072D01*
X62579673Y4312494D01*
X62605354Y4309500D01*
X64394646Y4309500D01*
X64398350Y4309941D01*
X64398353Y4309941D01*
X64405746Y4310821D01*
X64420846Y4312618D01*
X64523153Y4358061D01*
X64554984Y4389947D01*
X64577093Y4412095D01*
X64602241Y4437287D01*
X64615232Y4466670D01*
X64633265Y4507462D01*
X64647506Y4539673D01*
X64650500Y4565354D01*
X64650500Y6354646D01*
X64647382Y6380846D01*
X64607025Y6471704D01*
X64606663Y6472518D01*
X64601939Y6483153D01*
X64522713Y6562241D01*
X64512076Y6566944D01*
X64512074Y6566945D01*
X64452538Y6593265D01*
X64420327Y6607506D01*
X64394646Y6610500D01*
X64284285Y6610500D01*
X64216164Y6630502D01*
X64169671Y6684158D01*
X64159567Y6754432D01*
X64189061Y6819012D01*
X64211116Y6839078D01*
X64249247Y6866277D01*
X64257648Y6876977D01*
X64250660Y6890130D01*
X63512812Y7627978D01*
X63498868Y7635592D01*
X63497035Y7635461D01*
X63490420Y7631210D01*
X62746737Y6887527D01*
X62739977Y6875147D01*
X62745257Y6868094D01*
X62784284Y6845288D01*
X62833007Y6793649D01*
X62846078Y6723866D01*
X62819346Y6658094D01*
X62761299Y6617216D01*
X62720713Y6610500D01*
X62605354Y6610500D01*
X62601650Y6610059D01*
X62601647Y6610059D01*
X62594254Y6609179D01*
X62579154Y6607382D01*
X62570514Y6603544D01*
X62570513Y6603544D01*
X62488117Y6566945D01*
X62476847Y6561939D01*
X62397759Y6482713D01*
X62393056Y6472076D01*
X62393055Y6472074D01*
X62366735Y6412538D01*
X62352494Y6380327D01*
X62349500Y6354646D01*
X62349500Y4565354D01*
X56559155Y4565354D01*
X56538197Y4582940D01*
X56295002Y4734905D01*
X56033025Y4851545D01*
X55804406Y4917100D01*
X55761591Y4929377D01*
X55761590Y4929377D01*
X55757364Y4930589D01*
X55753014Y4931200D01*
X55753011Y4931201D01*
X55648658Y4945867D01*
X55473385Y4970500D01*
X51758396Y4970500D01*
X51756210Y4970347D01*
X51756206Y4970347D01*
X51548314Y4955810D01*
X51548309Y4955809D01*
X51543929Y4955503D01*
X51539635Y4954590D01*
X51539633Y4954590D01*
X51455835Y4936778D01*
X51263425Y4895880D01*
X51259294Y4894376D01*
X51259289Y4894375D01*
X51141616Y4851545D01*
X50993950Y4797799D01*
X50936845Y4767436D01*
X50744639Y4665239D01*
X50744633Y4665235D01*
X50740747Y4663169D01*
X50737187Y4660582D01*
X50737183Y4660580D01*
X50512309Y4497199D01*
X50508746Y4494610D01*
X50505582Y4491554D01*
X50505579Y4491552D01*
X50305626Y4298460D01*
X50305622Y4298455D01*
X50302461Y4295403D01*
X50299754Y4291938D01*
X50299752Y4291936D01*
X50216592Y4185496D01*
X50125907Y4069425D01*
X50123704Y4065609D01*
X49987353Y3829440D01*
X49982523Y3821075D01*
X49875097Y3555187D01*
X49874032Y3550914D01*
X49874031Y3550912D01*
X49849113Y3450969D01*
X49805721Y3276935D01*
X49805262Y3272565D01*
X49805261Y3272561D01*
X49784641Y3076373D01*
X49775745Y2991736D01*
X49775898Y2987348D01*
X49775898Y2987342D01*
X49784703Y2735222D01*
X49785753Y2705141D01*
X49786515Y2700818D01*
X49786516Y2700811D01*
X49818128Y2521533D01*
X49835550Y2422728D01*
X49836905Y2418557D01*
X49836907Y2418550D01*
X49865116Y2331734D01*
X49924167Y2149994D01*
X49926095Y2146041D01*
X49926097Y2146036D01*
X49957039Y2082597D01*
X50049879Y1892247D01*
X50210238Y1654504D01*
X50402125Y1441392D01*
X50621803Y1257060D01*
X50625539Y1254726D01*
X50625541Y1254724D01*
X50660540Y1232854D01*
X50707711Y1179793D01*
X50718706Y1109653D01*
X50690035Y1044703D01*
X50630801Y1005564D01*
X50593771Y1000000D01*
X42416760Y1000000D01*
X42348639Y1020002D01*
X42302146Y1073658D01*
X42292042Y1143932D01*
X42321536Y1208512D01*
X42386705Y1248363D01*
X42486092Y1272775D01*
X42491006Y1273982D01*
X42495658Y1275957D01*
X42495662Y1275958D01*
X42716022Y1369495D01*
X42716023Y1369495D01*
X42720677Y1371471D01*
X42931808Y1504427D01*
X42978075Y1545217D01*
X43115168Y1666080D01*
X43115171Y1666083D01*
X43118965Y1669428D01*
X43127357Y1679644D01*
X43209363Y1779481D01*
X43277334Y1862230D01*
X43402840Y2077872D01*
X43407298Y2089484D01*
X43475607Y2267436D01*
X43492255Y2310805D01*
X43494139Y2319820D01*
X43542243Y2550085D01*
X43543278Y2555039D01*
X43543518Y2560313D01*
X43550094Y2705141D01*
X43554596Y2804288D01*
X43550014Y2843895D01*
X43526501Y3047110D01*
X43525919Y3052140D01*
X43521611Y3067366D01*
X43479367Y3216651D01*
X43457983Y3292219D01*
X43392539Y3432566D01*
X43354675Y3513766D01*
X43354673Y3513770D01*
X43352538Y3518348D01*
X43212294Y3724710D01*
X43040862Y3905994D01*
X42983147Y3950121D01*
X42846677Y4054460D01*
X42846676Y4054461D01*
X42842651Y4057538D01*
X42622761Y4175443D01*
X42386848Y4256674D01*
X42258901Y4278774D01*
X42144893Y4298467D01*
X42144887Y4298468D01*
X42140983Y4299142D01*
X42137022Y4299322D01*
X42137021Y4299322D01*
X42112497Y4300436D01*
X42112478Y4300436D01*
X42111078Y4300500D01*
X41937309Y4300500D01*
X41934801Y4300298D01*
X41934796Y4300298D01*
X41756339Y4285940D01*
X41756334Y4285939D01*
X41751298Y4285534D01*
X41746390Y4284329D01*
X41746387Y4284328D01*
X41516392Y4227835D01*
X41508994Y4226018D01*
X41504342Y4224043D01*
X41504338Y4224042D01*
X41283978Y4130505D01*
X41279323Y4128529D01*
X41068192Y3995573D01*
X41064398Y3992228D01*
X40884832Y3833920D01*
X40884829Y3833917D01*
X40881035Y3830572D01*
X40722666Y3637770D01*
X40597160Y3422128D01*
X40595347Y3417405D01*
X40595346Y3417403D01*
X40590671Y3405224D01*
X40507745Y3189195D01*
X40506712Y3184249D01*
X40506710Y3184243D01*
X40466494Y2991736D01*
X40456722Y2944961D01*
X40456493Y2939912D01*
X40456492Y2939906D01*
X40455457Y2917100D01*
X40445404Y2695712D01*
X40445985Y2690692D01*
X40445985Y2690688D01*
X40461070Y2560313D01*
X40474081Y2447860D01*
X40475460Y2442989D01*
X40475460Y2442986D01*
X40481193Y2422728D01*
X40542017Y2207781D01*
X40570809Y2146036D01*
X40643874Y1989347D01*
X40647462Y1981652D01*
X40787706Y1775290D01*
X40959138Y1594006D01*
X40963164Y1590928D01*
X40963165Y1590927D01*
X41031191Y1538917D01*
X41157349Y1442462D01*
X41377239Y1324557D01*
X41524120Y1273982D01*
X41607898Y1245135D01*
X41665796Y1204045D01*
X41692287Y1138176D01*
X41678962Y1068441D01*
X41630050Y1016981D01*
X41566877Y1000000D01*
X15376000Y1000000D01*
X15307879Y1020002D01*
X15261386Y1073658D01*
X15250000Y1126000D01*
X15250000Y2507389D01*
X17294394Y2507389D01*
X17312999Y2338865D01*
X17371266Y2179644D01*
X17375502Y2173341D01*
X17375502Y2173340D01*
X17385245Y2158841D01*
X17465830Y2038917D01*
X17471442Y2033810D01*
X17471445Y2033807D01*
X17585612Y1929923D01*
X17585616Y1929920D01*
X17591233Y1924809D01*
X17597906Y1921186D01*
X17597910Y1921183D01*
X17733558Y1847533D01*
X17733560Y1847532D01*
X17740235Y1843908D01*
X17747584Y1841980D01*
X17896883Y1802812D01*
X17896885Y1802812D01*
X17904233Y1800884D01*
X17990609Y1799527D01*
X18066161Y1798340D01*
X18066164Y1798340D01*
X18073760Y1798221D01*
X18081165Y1799917D01*
X18081166Y1799917D01*
X18157353Y1817366D01*
X18239029Y1836072D01*
X18390498Y1912253D01*
X18469713Y1979910D01*
X18513651Y2017436D01*
X18513652Y2017437D01*
X18519423Y2022366D01*
X18618361Y2160053D01*
X18624540Y2175423D01*
X18678766Y2310313D01*
X18678767Y2310315D01*
X18681601Y2317366D01*
X18702847Y2466651D01*
X18704909Y2481138D01*
X18704909Y2481141D01*
X18705490Y2485222D01*
X18705645Y2500000D01*
X18704751Y2507389D01*
X19294394Y2507389D01*
X19312999Y2338865D01*
X19371266Y2179644D01*
X19375502Y2173341D01*
X19375502Y2173340D01*
X19385245Y2158841D01*
X19465830Y2038917D01*
X19471442Y2033810D01*
X19471445Y2033807D01*
X19585612Y1929923D01*
X19585616Y1929920D01*
X19591233Y1924809D01*
X19597906Y1921186D01*
X19597910Y1921183D01*
X19733558Y1847533D01*
X19733560Y1847532D01*
X19740235Y1843908D01*
X19747584Y1841980D01*
X19896883Y1802812D01*
X19896885Y1802812D01*
X19904233Y1800884D01*
X19990609Y1799527D01*
X20066161Y1798340D01*
X20066164Y1798340D01*
X20073760Y1798221D01*
X20081165Y1799917D01*
X20081166Y1799917D01*
X20157353Y1817366D01*
X20239029Y1836072D01*
X20390498Y1912253D01*
X20469713Y1979910D01*
X20513651Y2017436D01*
X20513652Y2017437D01*
X20519423Y2022366D01*
X20618361Y2160053D01*
X20624540Y2175423D01*
X20678766Y2310313D01*
X20678767Y2310315D01*
X20681601Y2317366D01*
X20702847Y2466651D01*
X20704909Y2481138D01*
X20704909Y2481141D01*
X20705490Y2485222D01*
X20705645Y2500000D01*
X20703840Y2514920D01*
X20699584Y2550085D01*
X20685276Y2668320D01*
X20651620Y2757389D01*
X31294394Y2757389D01*
X31312999Y2588865D01*
X31371266Y2429644D01*
X31375502Y2423341D01*
X31375502Y2423340D01*
X31388574Y2403887D01*
X31465830Y2288917D01*
X31471442Y2283810D01*
X31471445Y2283807D01*
X31585612Y2179923D01*
X31585616Y2179920D01*
X31591233Y2174809D01*
X31597906Y2171186D01*
X31597910Y2171183D01*
X31733558Y2097533D01*
X31733560Y2097532D01*
X31740235Y2093908D01*
X31747584Y2091980D01*
X31896883Y2052812D01*
X31896885Y2052812D01*
X31904233Y2050884D01*
X31990609Y2049527D01*
X32066161Y2048340D01*
X32066164Y2048340D01*
X32073760Y2048221D01*
X32081165Y2049917D01*
X32081166Y2049917D01*
X32203225Y2077872D01*
X32239029Y2086072D01*
X32390498Y2162253D01*
X32519423Y2272366D01*
X32618361Y2410053D01*
X32626237Y2429644D01*
X32678766Y2560313D01*
X32678767Y2560315D01*
X32681601Y2567366D01*
X32703043Y2718027D01*
X32704909Y2731138D01*
X32704909Y2731141D01*
X32705490Y2735222D01*
X32705645Y2750000D01*
X32703840Y2764920D01*
X32693222Y2852658D01*
X32685276Y2918320D01*
X32625345Y3076923D01*
X32592990Y3124000D01*
X32533614Y3210392D01*
X32533613Y3210393D01*
X32529312Y3216651D01*
X32517514Y3227163D01*
X32408392Y3324388D01*
X32408388Y3324390D01*
X32402721Y3329440D01*
X32252881Y3408776D01*
X32088441Y3450081D01*
X32080843Y3450121D01*
X32080841Y3450121D01*
X32003668Y3450525D01*
X31918895Y3450969D01*
X31911508Y3449195D01*
X31911504Y3449195D01*
X31779086Y3417403D01*
X31754032Y3411388D01*
X31747288Y3407907D01*
X31747285Y3407906D01*
X31742089Y3405224D01*
X31603369Y3333625D01*
X31597647Y3328633D01*
X31597645Y3328632D01*
X31543280Y3281206D01*
X31475604Y3222169D01*
X31455747Y3193915D01*
X31396794Y3110033D01*
X31378113Y3083453D01*
X31316524Y2925487D01*
X31315532Y2917954D01*
X31315532Y2917953D01*
X31295717Y2767436D01*
X31294394Y2757389D01*
X20651620Y2757389D01*
X20625345Y2826923D01*
X20568211Y2910053D01*
X20533614Y2960392D01*
X20533613Y2960393D01*
X20529312Y2966651D01*
X20506089Y2987342D01*
X20408392Y3074388D01*
X20408388Y3074390D01*
X20402721Y3079440D01*
X20395656Y3083181D01*
X20319502Y3123502D01*
X20252881Y3158776D01*
X20088441Y3200081D01*
X20080843Y3200121D01*
X20080841Y3200121D01*
X20003668Y3200525D01*
X19918895Y3200969D01*
X19911508Y3199195D01*
X19911504Y3199195D01*
X19768162Y3164780D01*
X19754032Y3161388D01*
X19747288Y3157907D01*
X19747285Y3157906D01*
X19628147Y3096414D01*
X19603369Y3083625D01*
X19597647Y3078633D01*
X19597645Y3078632D01*
X19593358Y3074892D01*
X19475604Y2972169D01*
X19437758Y2918320D01*
X19385452Y2843895D01*
X19378113Y2833453D01*
X19316524Y2675487D01*
X19315532Y2667954D01*
X19315532Y2667953D01*
X19301333Y2560094D01*
X19294394Y2507389D01*
X18704751Y2507389D01*
X18703840Y2514920D01*
X18699584Y2550085D01*
X18685276Y2668320D01*
X18625345Y2826923D01*
X18568211Y2910053D01*
X18533614Y2960392D01*
X18533613Y2960393D01*
X18529312Y2966651D01*
X18506089Y2987342D01*
X18408392Y3074388D01*
X18408388Y3074390D01*
X18402721Y3079440D01*
X18395656Y3083181D01*
X18319502Y3123502D01*
X18252881Y3158776D01*
X18088441Y3200081D01*
X18080843Y3200121D01*
X18080841Y3200121D01*
X18003668Y3200525D01*
X17918895Y3200969D01*
X17911508Y3199195D01*
X17911504Y3199195D01*
X17768162Y3164780D01*
X17754032Y3161388D01*
X17747288Y3157907D01*
X17747285Y3157906D01*
X17680629Y3123502D01*
X17610921Y3110033D01*
X17580372Y3122246D01*
X17582698Y3106068D01*
X17553204Y3041488D01*
X17540809Y3029051D01*
X17475604Y2972169D01*
X17437758Y2918320D01*
X17385452Y2843895D01*
X17378113Y2833453D01*
X17316524Y2675487D01*
X17315532Y2667954D01*
X17315532Y2667953D01*
X17301333Y2560094D01*
X17294394Y2507389D01*
X15250000Y2507389D01*
X15250000Y3124000D01*
X15270002Y3192121D01*
X15323658Y3238614D01*
X15376000Y3250000D01*
X17457980Y3250000D01*
X17501210Y3237307D01*
X17500451Y3250000D01*
X17500000Y3250000D01*
X17500000Y5257389D01*
X22544394Y5257389D01*
X22562999Y5088865D01*
X22570867Y5067366D01*
X22611691Y4955810D01*
X22621266Y4929644D01*
X22625502Y4923341D01*
X22625502Y4923340D01*
X22638574Y4903887D01*
X22715830Y4788917D01*
X22721442Y4783810D01*
X22721445Y4783807D01*
X22835612Y4679923D01*
X22835616Y4679920D01*
X22841233Y4674809D01*
X22847906Y4671186D01*
X22847910Y4671183D01*
X22983558Y4597533D01*
X22983560Y4597532D01*
X22990235Y4593908D01*
X22997584Y4591980D01*
X23146883Y4552812D01*
X23146885Y4552812D01*
X23154233Y4550884D01*
X23240609Y4549527D01*
X23316161Y4548340D01*
X23316164Y4548340D01*
X23323760Y4548221D01*
X23331165Y4549917D01*
X23331166Y4549917D01*
X23398568Y4565354D01*
X23489029Y4586072D01*
X23640498Y4662253D01*
X23769423Y4772366D01*
X23868361Y4910053D01*
X23876237Y4929644D01*
X23928766Y5060313D01*
X23928767Y5060315D01*
X23931601Y5067366D01*
X23955490Y5235222D01*
X23955645Y5250000D01*
X23953840Y5264920D01*
X23936188Y5410780D01*
X23935276Y5418320D01*
X23875345Y5576923D01*
X23818211Y5660053D01*
X23783614Y5710392D01*
X23783613Y5710393D01*
X23779312Y5716651D01*
X23674189Y5810313D01*
X23658392Y5824388D01*
X23658388Y5824390D01*
X23652721Y5829440D01*
X23634921Y5838865D01*
X23585080Y5865254D01*
X23502881Y5908776D01*
X23338441Y5950081D01*
X23330843Y5950121D01*
X23330841Y5950121D01*
X23253668Y5950525D01*
X23168895Y5950969D01*
X23161508Y5949195D01*
X23161504Y5949195D01*
X23018162Y5914780D01*
X23004032Y5911388D01*
X22997288Y5907907D01*
X22997285Y5907906D01*
X22992089Y5905224D01*
X22853369Y5833625D01*
X22725604Y5722169D01*
X22686901Y5667100D01*
X22682887Y5661388D01*
X22628113Y5583453D01*
X22566524Y5425487D01*
X22565532Y5417954D01*
X22565532Y5417953D01*
X22549770Y5298221D01*
X22544394Y5257389D01*
X17500000Y5257389D01*
X17500000Y6007389D01*
X33044394Y6007389D01*
X33062999Y5838865D01*
X33121266Y5679644D01*
X33125502Y5673341D01*
X33125502Y5673340D01*
X33135289Y5658776D01*
X33215830Y5538917D01*
X33221442Y5533810D01*
X33221445Y5533807D01*
X33335612Y5429923D01*
X33335616Y5429920D01*
X33341233Y5424809D01*
X33347906Y5421186D01*
X33347910Y5421183D01*
X33483558Y5347533D01*
X33483560Y5347532D01*
X33490235Y5343908D01*
X33497584Y5341980D01*
X33646883Y5302812D01*
X33646885Y5302812D01*
X33654233Y5300884D01*
X33740609Y5299527D01*
X33816161Y5298340D01*
X33816164Y5298340D01*
X33823760Y5298221D01*
X33831165Y5299917D01*
X33831166Y5299917D01*
X33891586Y5313755D01*
X33989029Y5336072D01*
X34140498Y5412253D01*
X34269423Y5522366D01*
X34368361Y5660053D01*
X34376237Y5679644D01*
X34428766Y5810313D01*
X34428767Y5810315D01*
X34431601Y5817366D01*
X34444610Y5908776D01*
X34454909Y5981138D01*
X34454909Y5981141D01*
X34455490Y5985222D01*
X34455645Y6000000D01*
X34454751Y6007389D01*
X35044394Y6007389D01*
X35062999Y5838865D01*
X35121266Y5679644D01*
X35125502Y5673341D01*
X35125502Y5673340D01*
X35135289Y5658776D01*
X35215830Y5538917D01*
X35221442Y5533810D01*
X35221445Y5533807D01*
X35335612Y5429923D01*
X35335616Y5429920D01*
X35341233Y5424809D01*
X35347906Y5421186D01*
X35347910Y5421183D01*
X35483558Y5347533D01*
X35483560Y5347532D01*
X35490235Y5343908D01*
X35497584Y5341980D01*
X35646883Y5302812D01*
X35646885Y5302812D01*
X35654233Y5300884D01*
X35740609Y5299527D01*
X35816161Y5298340D01*
X35816164Y5298340D01*
X35823760Y5298221D01*
X35831165Y5299917D01*
X35831166Y5299917D01*
X35891586Y5313755D01*
X35989029Y5336072D01*
X36140498Y5412253D01*
X36269423Y5522366D01*
X36368361Y5660053D01*
X36376237Y5679644D01*
X36428766Y5810313D01*
X36428767Y5810315D01*
X36431601Y5817366D01*
X36444610Y5908776D01*
X36454909Y5981138D01*
X36454909Y5981141D01*
X36455490Y5985222D01*
X36455645Y6000000D01*
X36453840Y6014920D01*
X36436188Y6160780D01*
X36435276Y6168320D01*
X36375345Y6326923D01*
X36279312Y6466651D01*
X36273641Y6471704D01*
X36158392Y6574388D01*
X36158388Y6574390D01*
X36152721Y6579440D01*
X36107197Y6603544D01*
X36056281Y6630502D01*
X36002881Y6658776D01*
X35838441Y6700081D01*
X35830843Y6700121D01*
X35830841Y6700121D01*
X35753668Y6700525D01*
X35668895Y6700969D01*
X35661508Y6699195D01*
X35661504Y6699195D01*
X35518162Y6664780D01*
X35504032Y6661388D01*
X35497288Y6657907D01*
X35497285Y6657906D01*
X35399397Y6607382D01*
X35353369Y6583625D01*
X35347647Y6578633D01*
X35347645Y6578632D01*
X35319435Y6554023D01*
X35225604Y6472169D01*
X35221237Y6465955D01*
X35140385Y6350914D01*
X35128113Y6333453D01*
X35066524Y6175487D01*
X35044394Y6007389D01*
X34454751Y6007389D01*
X34453840Y6014920D01*
X34436188Y6160780D01*
X34435276Y6168320D01*
X34375345Y6326923D01*
X34279312Y6466651D01*
X34273641Y6471704D01*
X34158392Y6574388D01*
X34158388Y6574390D01*
X34152721Y6579440D01*
X34107197Y6603544D01*
X34056281Y6630502D01*
X34002881Y6658776D01*
X33838441Y6700081D01*
X33830843Y6700121D01*
X33830841Y6700121D01*
X33753668Y6700525D01*
X33668895Y6700969D01*
X33661508Y6699195D01*
X33661504Y6699195D01*
X33518162Y6664780D01*
X33504032Y6661388D01*
X33497288Y6657907D01*
X33497285Y6657906D01*
X33399397Y6607382D01*
X33353369Y6583625D01*
X33347647Y6578633D01*
X33347645Y6578632D01*
X33319435Y6554023D01*
X33225604Y6472169D01*
X33221237Y6465955D01*
X33140385Y6350914D01*
X33128113Y6333453D01*
X33066524Y6175487D01*
X33044394Y6007389D01*
X17500000Y6007389D01*
X17500000Y7250000D01*
X12500000Y7250000D01*
X12500000Y6376000D01*
X12479998Y6307879D01*
X12426342Y6261386D01*
X12374000Y6250000D01*
X8876000Y6250000D01*
X8807879Y6270002D01*
X8761386Y6323658D01*
X8750000Y6376000D01*
X8750000Y8607389D01*
X38294394Y8607389D01*
X38312999Y8438865D01*
X38371266Y8279644D01*
X38375502Y8273341D01*
X38375502Y8273340D01*
X38388574Y8253887D01*
X38465830Y8138917D01*
X38471442Y8133810D01*
X38471445Y8133807D01*
X38585612Y8029923D01*
X38585616Y8029920D01*
X38591233Y8024809D01*
X38597906Y8021186D01*
X38597910Y8021183D01*
X38733558Y7947533D01*
X38733560Y7947532D01*
X38740235Y7943908D01*
X38747584Y7941980D01*
X38896883Y7902812D01*
X38896885Y7902812D01*
X38904233Y7900884D01*
X38990609Y7899527D01*
X39066161Y7898340D01*
X39066164Y7898340D01*
X39073760Y7898221D01*
X39081165Y7899917D01*
X39081166Y7899917D01*
X39141586Y7913755D01*
X39239029Y7936072D01*
X39390498Y8012253D01*
X39519423Y8122366D01*
X39618361Y8260053D01*
X39626237Y8279644D01*
X39678766Y8410313D01*
X39678767Y8410315D01*
X39681601Y8417366D01*
X39687098Y8455993D01*
X47399500Y8455993D01*
X47399501Y7544008D01*
X47399764Y7541150D01*
X47399764Y7541141D01*
X47403015Y7505757D01*
X47406171Y7471406D01*
X47456873Y7309617D01*
X47544703Y7164592D01*
X47664592Y7044703D01*
X47809617Y6956873D01*
X47816864Y6954602D01*
X47816866Y6954601D01*
X47882106Y6934156D01*
X47971406Y6906171D01*
X48044007Y6899500D01*
X48046905Y6899500D01*
X48501183Y6899501D01*
X48955992Y6899501D01*
X48958850Y6899764D01*
X48958859Y6899764D01*
X48994243Y6903015D01*
X49028594Y6906171D01*
X49034979Y6908172D01*
X49183134Y6954601D01*
X49183136Y6954602D01*
X49190383Y6956873D01*
X49335408Y7044703D01*
X49455297Y7164592D01*
X49543127Y7309617D01*
X49593829Y7471406D01*
X49600500Y7544007D01*
X49600499Y8028137D01*
X62138050Y8028137D01*
X62150309Y7815523D01*
X62151745Y7805303D01*
X62198565Y7597554D01*
X62201645Y7587725D01*
X62281770Y7390397D01*
X62286413Y7381206D01*
X62366460Y7250580D01*
X62376916Y7241120D01*
X62385694Y7244904D01*
X63127978Y7987188D01*
X63134356Y7998868D01*
X63864408Y7998868D01*
X63864539Y7997035D01*
X63868790Y7990420D01*
X64610474Y7248736D01*
X64622484Y7242177D01*
X64634223Y7251145D01*
X64665004Y7293981D01*
X64670315Y7302820D01*
X64764670Y7493733D01*
X64768469Y7503328D01*
X64830376Y7707085D01*
X64832555Y7717166D01*
X64860590Y7930113D01*
X64861109Y7936788D01*
X64862572Y7996636D01*
X64862378Y8003354D01*
X64844781Y8217396D01*
X64843096Y8227576D01*
X64791214Y8434125D01*
X64787894Y8443876D01*
X64702972Y8639186D01*
X64698105Y8648261D01*
X64633063Y8748803D01*
X64622377Y8758005D01*
X64612812Y8753602D01*
X63872022Y8012812D01*
X63864408Y7998868D01*
X63134356Y7998868D01*
X63135592Y8001132D01*
X63135461Y8002965D01*
X63131210Y8009580D01*
X62389849Y8750941D01*
X62378313Y8757241D01*
X62366031Y8747618D01*
X62318089Y8677338D01*
X62313004Y8668387D01*
X62223338Y8475217D01*
X62219775Y8465530D01*
X62162864Y8260319D01*
X62160933Y8250200D01*
X62138302Y8038426D01*
X62138050Y8028137D01*
X49600499Y8028137D01*
X49600499Y8455992D01*
X49600234Y8458884D01*
X49594440Y8521940D01*
X49593829Y8528594D01*
X49574790Y8589347D01*
X49545399Y8683134D01*
X49545398Y8683136D01*
X49543127Y8690383D01*
X49455297Y8835408D01*
X49335408Y8955297D01*
X49190383Y9043127D01*
X49183136Y9045398D01*
X49183134Y9045399D01*
X49034976Y9091829D01*
X49028594Y9093829D01*
X49027905Y9093892D01*
X48967033Y9125838D01*
X48931984Y9187580D01*
X48935880Y9258470D01*
X48977482Y9316000D01*
X49001396Y9330587D01*
X49151511Y9400586D01*
X49161006Y9406069D01*
X49213048Y9442509D01*
X49221424Y9452988D01*
X49214356Y9466434D01*
X48512812Y10167978D01*
X48498868Y10175592D01*
X48497035Y10175461D01*
X48490420Y10171210D01*
X47784923Y9465713D01*
X47778493Y9453938D01*
X47787789Y9441923D01*
X47838994Y9406069D01*
X47848489Y9400586D01*
X47998604Y9330587D01*
X48051889Y9283670D01*
X48071350Y9215393D01*
X48050808Y9147433D01*
X47996786Y9101367D01*
X47973896Y9094058D01*
X47971406Y9093829D01*
X47965024Y9091829D01*
X47816866Y9045399D01*
X47816864Y9045398D01*
X47809617Y9043127D01*
X47664592Y8955297D01*
X47544703Y8835408D01*
X47456873Y8690383D01*
X47406171Y8528594D01*
X47399500Y8455993D01*
X39687098Y8455993D01*
X39705490Y8585222D01*
X39705645Y8600000D01*
X39703840Y8614920D01*
X39696286Y8677338D01*
X39685276Y8768320D01*
X39625345Y8926923D01*
X39563137Y9017436D01*
X39533614Y9060392D01*
X39533613Y9060393D01*
X39529312Y9066651D01*
X39499912Y9092846D01*
X39408392Y9174388D01*
X39408388Y9174390D01*
X39402721Y9179440D01*
X39387348Y9187580D01*
X39279596Y9244631D01*
X39252881Y9258776D01*
X39088441Y9300081D01*
X39080843Y9300121D01*
X39080841Y9300121D01*
X39003668Y9300525D01*
X38918895Y9300969D01*
X38911508Y9299195D01*
X38911504Y9299195D01*
X38791831Y9270463D01*
X38754032Y9261388D01*
X38747288Y9257907D01*
X38747285Y9257906D01*
X38610117Y9187108D01*
X38603369Y9183625D01*
X38597647Y9178633D01*
X38597645Y9178632D01*
X38564779Y9149961D01*
X38475604Y9072169D01*
X38378113Y8933453D01*
X38316524Y8775487D01*
X38315532Y8767954D01*
X38315532Y8767953D01*
X38299775Y8648261D01*
X38294394Y8607389D01*
X8750000Y8607389D01*
X8750000Y9507389D01*
X17294394Y9507389D01*
X17312999Y9338865D01*
X17341352Y9261388D01*
X17368535Y9187108D01*
X17371266Y9179644D01*
X17375502Y9173341D01*
X17375502Y9173340D01*
X17387517Y9155460D01*
X17465830Y9038917D01*
X17471442Y9033810D01*
X17471445Y9033807D01*
X17585612Y8929923D01*
X17585616Y8929920D01*
X17591233Y8924809D01*
X17597906Y8921186D01*
X17597910Y8921183D01*
X17733558Y8847533D01*
X17733560Y8847532D01*
X17740235Y8843908D01*
X17747584Y8841980D01*
X17896883Y8802812D01*
X17896885Y8802812D01*
X17904233Y8800884D01*
X17990609Y8799527D01*
X18066161Y8798340D01*
X18066164Y8798340D01*
X18073760Y8798221D01*
X18081165Y8799917D01*
X18081166Y8799917D01*
X18207744Y8828907D01*
X18239029Y8836072D01*
X18390498Y8912253D01*
X18519423Y9022366D01*
X18618361Y9160053D01*
X18627837Y9183625D01*
X18678766Y9310313D01*
X18678767Y9310315D01*
X18681601Y9317366D01*
X18701038Y9453938D01*
X18704909Y9481138D01*
X18704909Y9481141D01*
X18705490Y9485222D01*
X18705645Y9500000D01*
X18704751Y9507389D01*
X19294394Y9507389D01*
X19312999Y9338865D01*
X19341352Y9261388D01*
X19368535Y9187108D01*
X19371266Y9179644D01*
X19375502Y9173341D01*
X19375502Y9173340D01*
X19387517Y9155460D01*
X19465830Y9038917D01*
X19471442Y9033810D01*
X19471445Y9033807D01*
X19585612Y8929923D01*
X19585616Y8929920D01*
X19591233Y8924809D01*
X19597906Y8921186D01*
X19597910Y8921183D01*
X19733558Y8847533D01*
X19733560Y8847532D01*
X19740235Y8843908D01*
X19747584Y8841980D01*
X19896883Y8802812D01*
X19896885Y8802812D01*
X19904233Y8800884D01*
X19990609Y8799527D01*
X20066161Y8798340D01*
X20066164Y8798340D01*
X20073760Y8798221D01*
X20081165Y8799917D01*
X20081166Y8799917D01*
X20207744Y8828907D01*
X20239029Y8836072D01*
X20390498Y8912253D01*
X20519423Y9022366D01*
X20618361Y9160053D01*
X20627837Y9183625D01*
X20678766Y9310313D01*
X20678767Y9310315D01*
X20681601Y9317366D01*
X20701038Y9453938D01*
X20704909Y9481138D01*
X20704909Y9481141D01*
X20705490Y9485222D01*
X20705645Y9500000D01*
X20703840Y9514920D01*
X20690639Y9624000D01*
X20685276Y9668320D01*
X20625345Y9826923D01*
X20581577Y9890605D01*
X20533614Y9960392D01*
X20533613Y9960393D01*
X20529312Y9966651D01*
X20517514Y9977163D01*
X20408392Y10074388D01*
X20408388Y10074390D01*
X20402721Y10079440D01*
X20390432Y10085947D01*
X20271218Y10149067D01*
X20252881Y10158776D01*
X20088441Y10200081D01*
X20080843Y10200121D01*
X20080841Y10200121D01*
X20003668Y10200525D01*
X19918895Y10200969D01*
X19911508Y10199195D01*
X19911504Y10199195D01*
X19781481Y10167978D01*
X19754032Y10161388D01*
X19747288Y10157907D01*
X19747285Y10157906D01*
X19627808Y10096239D01*
X19603369Y10083625D01*
X19597647Y10078633D01*
X19597645Y10078632D01*
X19592780Y10074388D01*
X19475604Y9972169D01*
X19471237Y9965955D01*
X19410120Y9878994D01*
X19378113Y9833453D01*
X19316524Y9675487D01*
X19315532Y9667954D01*
X19315532Y9667953D01*
X19304606Y9584955D01*
X19294394Y9507389D01*
X18704751Y9507389D01*
X18703840Y9514920D01*
X18690639Y9624000D01*
X18685276Y9668320D01*
X18625345Y9826923D01*
X18581577Y9890605D01*
X18533614Y9960392D01*
X18533613Y9960393D01*
X18529312Y9966651D01*
X18517514Y9977163D01*
X18408392Y10074388D01*
X18408388Y10074390D01*
X18402721Y10079440D01*
X18390432Y10085947D01*
X18271218Y10149067D01*
X18252881Y10158776D01*
X18088441Y10200081D01*
X18080843Y10200121D01*
X18080841Y10200121D01*
X18003668Y10200525D01*
X17918895Y10200969D01*
X17911508Y10199195D01*
X17911504Y10199195D01*
X17781481Y10167978D01*
X17754032Y10161388D01*
X17747288Y10157907D01*
X17747285Y10157906D01*
X17680629Y10123502D01*
X17610921Y10110033D01*
X17580372Y10122246D01*
X17582698Y10106068D01*
X17553204Y10041488D01*
X17540809Y10029051D01*
X17475604Y9972169D01*
X17471237Y9965955D01*
X17410120Y9878994D01*
X17378113Y9833453D01*
X17316524Y9675487D01*
X17315532Y9667954D01*
X17315532Y9667953D01*
X17304606Y9584955D01*
X17294394Y9507389D01*
X8750000Y9507389D01*
X8750000Y9624000D01*
X8770002Y9692121D01*
X8823658Y9738614D01*
X8876000Y9750000D01*
X14250000Y9750000D01*
X15223396Y10236698D01*
X15279745Y10250000D01*
X17457980Y10250000D01*
X17501210Y10237307D01*
X17500451Y10250000D01*
X17500000Y10250000D01*
X17500000Y10534525D01*
X47187483Y10534525D01*
X47206472Y10317481D01*
X47208375Y10306688D01*
X47264764Y10096239D01*
X47268510Y10085947D01*
X47360586Y9888489D01*
X47366069Y9878994D01*
X47402509Y9826952D01*
X47412988Y9818576D01*
X47426434Y9825644D01*
X48127978Y10527188D01*
X48134356Y10538868D01*
X48864408Y10538868D01*
X48864539Y10537035D01*
X48868790Y10530420D01*
X49574287Y9824923D01*
X49586062Y9818493D01*
X49598077Y9827789D01*
X49633931Y9878994D01*
X49639414Y9888489D01*
X49731490Y10085947D01*
X49735236Y10096239D01*
X49791625Y10306688D01*
X49793528Y10317481D01*
X49812517Y10534525D01*
X49812517Y10545475D01*
X49810350Y10570246D01*
X62344967Y10570246D01*
X62358796Y10359251D01*
X62360217Y10353655D01*
X62360218Y10353650D01*
X62405440Y10175592D01*
X62410845Y10154310D01*
X62499369Y9962286D01*
X62621405Y9789609D01*
X62625539Y9785582D01*
X62731288Y9682566D01*
X62772865Y9642063D01*
X62777661Y9638858D01*
X62777664Y9638856D01*
X62858333Y9584955D01*
X62948677Y9524589D01*
X62953980Y9522310D01*
X62953985Y9522308D01*
X62971182Y9514920D01*
X63006768Y9499631D01*
X63061460Y9454364D01*
X63082998Y9386713D01*
X63064541Y9318158D01*
X63011951Y9270463D01*
X62996175Y9264099D01*
X62976868Y9257788D01*
X62967359Y9253791D01*
X62778466Y9155460D01*
X62769734Y9149961D01*
X62749677Y9134901D01*
X62741223Y9123573D01*
X62747968Y9111242D01*
X63487188Y8372022D01*
X63501132Y8364408D01*
X63502965Y8364539D01*
X63509580Y8368790D01*
X64253389Y9112599D01*
X64260410Y9125456D01*
X64253611Y9134787D01*
X64249554Y9137482D01*
X64063117Y9240401D01*
X64053705Y9244631D01*
X64002178Y9262878D01*
X63944642Y9304472D01*
X63918726Y9370570D01*
X63932660Y9440186D01*
X63982672Y9491585D01*
X64154442Y9587781D01*
X64317012Y9722988D01*
X64452219Y9885558D01*
X64455043Y9890601D01*
X64455046Y9890605D01*
X64552713Y10065002D01*
X64552714Y10065004D01*
X64555537Y10070045D01*
X64557393Y10075512D01*
X64557395Y10075517D01*
X64621647Y10264800D01*
X64623504Y10270270D01*
X64628785Y10306688D01*
X64653314Y10475860D01*
X64653314Y10475862D01*
X64653846Y10479530D01*
X64655429Y10540000D01*
X64636081Y10750560D01*
X64578686Y10954069D01*
X64567553Y10976646D01*
X64487719Y11138531D01*
X64485165Y11143710D01*
X64358651Y11313133D01*
X64243164Y11419888D01*
X64207622Y11452743D01*
X64207620Y11452745D01*
X64203381Y11456663D01*
X64058271Y11548221D01*
X64029434Y11566416D01*
X64029433Y11566416D01*
X64024554Y11569495D01*
X63828160Y11647848D01*
X63822503Y11648973D01*
X63822497Y11648975D01*
X63626442Y11687972D01*
X63626440Y11687972D01*
X63620775Y11689099D01*
X63615000Y11689175D01*
X63614996Y11689175D01*
X63508976Y11690563D01*
X63409346Y11691867D01*
X63403649Y11690888D01*
X63403648Y11690888D01*
X63206650Y11657038D01*
X63206649Y11657038D01*
X63200953Y11656059D01*
X63002575Y11582873D01*
X62997614Y11579921D01*
X62997613Y11579921D01*
X62867986Y11502801D01*
X62820856Y11474762D01*
X62661881Y11335345D01*
X62530976Y11169292D01*
X62528287Y11164181D01*
X62528285Y11164178D01*
X62514792Y11138531D01*
X62432523Y10982164D01*
X62369820Y10780227D01*
X62344967Y10570246D01*
X49810350Y10570246D01*
X49793528Y10762519D01*
X49791625Y10773312D01*
X49735236Y10983761D01*
X49731490Y10994053D01*
X49639414Y11191511D01*
X49633931Y11201006D01*
X49597491Y11253048D01*
X49587012Y11261424D01*
X49573566Y11254356D01*
X48872022Y10552812D01*
X48864408Y10538868D01*
X48134356Y10538868D01*
X48135592Y10541132D01*
X48135461Y10542965D01*
X48131210Y10549580D01*
X47425713Y11255077D01*
X47413938Y11261507D01*
X47401923Y11252211D01*
X47366069Y11201006D01*
X47360586Y11191511D01*
X47268510Y10994053D01*
X47264764Y10983761D01*
X47208375Y10773312D01*
X47206472Y10762519D01*
X47187483Y10545475D01*
X47187483Y10534525D01*
X17500000Y10534525D01*
X17500000Y12257389D01*
X22544394Y12257389D01*
X22562999Y12088865D01*
X22621266Y11929644D01*
X22625502Y11923341D01*
X22625502Y11923340D01*
X22638574Y11903887D01*
X22715830Y11788917D01*
X22721442Y11783810D01*
X22721445Y11783807D01*
X22835612Y11679923D01*
X22835616Y11679920D01*
X22841233Y11674809D01*
X22847906Y11671186D01*
X22847910Y11671183D01*
X22983558Y11597533D01*
X22983560Y11597532D01*
X22990235Y11593908D01*
X22997584Y11591980D01*
X23146883Y11552812D01*
X23146885Y11552812D01*
X23154233Y11550884D01*
X23240609Y11549527D01*
X23316161Y11548340D01*
X23316164Y11548340D01*
X23323760Y11548221D01*
X23331165Y11549917D01*
X23331166Y11549917D01*
X23403205Y11566416D01*
X23489029Y11586072D01*
X23570429Y11627012D01*
X47778576Y11627012D01*
X47785644Y11613566D01*
X48487188Y10912022D01*
X48501132Y10904408D01*
X48502965Y10904539D01*
X48509580Y10908790D01*
X49215077Y11614287D01*
X49221507Y11626062D01*
X49212211Y11638077D01*
X49161006Y11673931D01*
X49151511Y11679414D01*
X48954053Y11771490D01*
X48943761Y11775236D01*
X48733312Y11831625D01*
X48722519Y11833528D01*
X48505475Y11852517D01*
X48494525Y11852517D01*
X48277481Y11833528D01*
X48266688Y11831625D01*
X48056239Y11775236D01*
X48045947Y11771490D01*
X47848489Y11679414D01*
X47838994Y11673931D01*
X47786952Y11637491D01*
X47778576Y11627012D01*
X23570429Y11627012D01*
X23640498Y11662253D01*
X23769423Y11772366D01*
X23868361Y11910053D01*
X23878145Y11934391D01*
X23928766Y12060313D01*
X23928767Y12060315D01*
X23931601Y12067366D01*
X23955490Y12235222D01*
X23955645Y12250000D01*
X23954129Y12262532D01*
X23942536Y12358324D01*
X23935276Y12418320D01*
X23875345Y12576923D01*
X23864997Y12591980D01*
X23783614Y12710392D01*
X23783613Y12710393D01*
X23779312Y12716651D01*
X23755950Y12737466D01*
X23658392Y12824388D01*
X23658388Y12824390D01*
X23652721Y12829440D01*
X23502881Y12908776D01*
X23338441Y12950081D01*
X23330843Y12950121D01*
X23330841Y12950121D01*
X23253668Y12950525D01*
X23168895Y12950969D01*
X23161508Y12949195D01*
X23161504Y12949195D01*
X23027824Y12917100D01*
X23004032Y12911388D01*
X22997288Y12907907D01*
X22997285Y12907906D01*
X22922949Y12869538D01*
X22853369Y12833625D01*
X22725604Y12722169D01*
X22708548Y12697901D01*
X22638009Y12597533D01*
X22628113Y12583453D01*
X22566524Y12425487D01*
X22565532Y12417954D01*
X22565532Y12417953D01*
X22546266Y12271606D01*
X22544394Y12257389D01*
X17500000Y12257389D01*
X17500000Y13257389D01*
X31294394Y13257389D01*
X31312999Y13088865D01*
X31371266Y12929644D01*
X31375502Y12923341D01*
X31375502Y12923340D01*
X31385289Y12908776D01*
X31465830Y12788917D01*
X31471442Y12783810D01*
X31471445Y12783807D01*
X31585612Y12679923D01*
X31585616Y12679920D01*
X31591233Y12674809D01*
X31597906Y12671186D01*
X31597910Y12671183D01*
X31733558Y12597533D01*
X31733560Y12597532D01*
X31740235Y12593908D01*
X31747584Y12591980D01*
X31896883Y12552812D01*
X31896885Y12552812D01*
X31904233Y12550884D01*
X31990609Y12549527D01*
X32066161Y12548340D01*
X32066164Y12548340D01*
X32073760Y12548221D01*
X32081165Y12549917D01*
X32081166Y12549917D01*
X32141586Y12563755D01*
X32239029Y12586072D01*
X32390498Y12662253D01*
X32493263Y12750023D01*
X32513651Y12767436D01*
X32513652Y12767437D01*
X32519423Y12772366D01*
X32618361Y12910053D01*
X32626237Y12929644D01*
X32678766Y13060313D01*
X32678767Y13060315D01*
X32681601Y13067366D01*
X32705490Y13235222D01*
X32705645Y13250000D01*
X32703840Y13264920D01*
X32686188Y13410780D01*
X32685276Y13418320D01*
X32625345Y13576923D01*
X32529312Y13716651D01*
X32523119Y13722169D01*
X32408392Y13824388D01*
X32408388Y13824390D01*
X32402721Y13829440D01*
X32389554Y13836412D01*
X32316554Y13875063D01*
X32252881Y13908776D01*
X32088441Y13950081D01*
X32080843Y13950121D01*
X32080841Y13950121D01*
X32003668Y13950525D01*
X31918895Y13950969D01*
X31911508Y13949195D01*
X31911504Y13949195D01*
X31809933Y13924809D01*
X31754032Y13911388D01*
X31747288Y13907907D01*
X31747285Y13907906D01*
X31618080Y13841218D01*
X31603369Y13833625D01*
X31597647Y13828633D01*
X31597645Y13828632D01*
X31555904Y13792219D01*
X31475604Y13722169D01*
X31378113Y13583453D01*
X31316524Y13425487D01*
X31315532Y13417954D01*
X31315532Y13417953D01*
X31299903Y13299234D01*
X31294394Y13257389D01*
X17500000Y13257389D01*
X17500000Y14874000D01*
X17520002Y14942121D01*
X17573658Y14988614D01*
X17626000Y15000000D01*
X41583240Y15000000D01*
X41651361Y14979998D01*
G37*
%TD.AperFunction*%
%TD*%
M02*
