%TF.GenerationSoftware,KiCad,Pcbnew,(6.0.10)*%
%TF.CreationDate,2023-06-03T07:50:41-04:00*%
%TF.ProjectId,diff-probe-soic,64696666-2d70-4726-9f62-652d736f6963,rev?*%
%TF.SameCoordinates,PX1f78a40PY3750280*%
%TF.FileFunction,Copper,L2,Inr*%
%TF.FilePolarity,Positive*%
%FSLAX46Y46*%
G04 Gerber Fmt 4.6, Leading zero omitted, Abs format (unit mm)*
G04 Created by KiCad (PCBNEW (6.0.10)) date 2023-06-03 07:50:41*
%MOMM*%
%LPD*%
G01*
G04 APERTURE LIST*
G04 Aperture macros list*
%AMRoundRect*
0 Rectangle with rounded corners*
0 $1 Rounding radius*
0 $2 $3 $4 $5 $6 $7 $8 $9 X,Y pos of 4 corners*
0 Add a 4 corners polygon primitive as box body*
4,1,4,$2,$3,$4,$5,$6,$7,$8,$9,$2,$3,0*
0 Add four circle primitives for the rounded corners*
1,1,$1+$1,$2,$3*
1,1,$1+$1,$4,$5*
1,1,$1+$1,$6,$7*
1,1,$1+$1,$8,$9*
0 Add four rect primitives between the rounded corners*
20,1,$1+$1,$2,$3,$4,$5,0*
20,1,$1+$1,$4,$5,$6,$7,0*
20,1,$1+$1,$6,$7,$8,$9,0*
20,1,$1+$1,$8,$9,$2,$3,0*%
%AMHorizOval*
0 Thick line with rounded ends*
0 $1 width*
0 $2 $3 position (X,Y) of the first rounded end (center of the circle)*
0 $4 $5 position (X,Y) of the second rounded end (center of the circle)*
0 Add line between two ends*
20,1,$1,$2,$3,$4,$5,0*
0 Add two circle primitives to create the rounded ends*
1,1,$1,$2,$3*
1,1,$1,$4,$5*%
G04 Aperture macros list end*
%TA.AperFunction,ComponentPad*%
%ADD10O,7.000000X3.500000*%
%TD*%
%TA.AperFunction,ComponentPad*%
%ADD11RoundRect,0.400000X-0.400000X0.400000X-0.400000X-0.400000X0.400000X-0.400000X0.400000X0.400000X0*%
%TD*%
%TA.AperFunction,ComponentPad*%
%ADD12C,1.600000*%
%TD*%
%TA.AperFunction,ComponentPad*%
%ADD13R,1.700000X1.700000*%
%TD*%
%TA.AperFunction,ComponentPad*%
%ADD14O,1.700000X1.700000*%
%TD*%
%TA.AperFunction,ComponentPad*%
%ADD15HorizOval,1.700000X0.000000X0.000000X0.000000X0.000000X0*%
%TD*%
%TA.AperFunction,ViaPad*%
%ADD16C,0.800000*%
%TD*%
G04 APERTURE END LIST*
D10*
%TO.N,*%
%TO.C,J2*%
X51580000Y2920000D03*
X51580000Y13080000D03*
D11*
%TO.N,/OUT*%
X46500000Y8000000D03*
D12*
%TO.N,GND*%
X46500000Y10540000D03*
%TD*%
D13*
%TO.N,/IN_POS*%
%TO.C,J1*%
X2000000Y6730000D03*
D14*
%TO.N,/IN_NEG*%
X2000000Y9270000D03*
%TD*%
D13*
%TO.N,/NEG*%
%TO.C,J3*%
X61500000Y5460000D03*
D15*
%TO.N,GND*%
X61500000Y8000000D03*
D14*
%TO.N,/POS*%
X61500000Y10540000D03*
%TD*%
D16*
%TO.N,VSS*%
X58500000Y2750000D03*
%TO.N,VDD*%
X58500000Y13000000D03*
%TO.N,GND*%
X39250000Y4750000D03*
X18000000Y13000000D03*
X9750000Y8050000D03*
X23500000Y1500000D03*
X21750000Y1500000D03*
X20000000Y6000000D03*
X23500000Y8500000D03*
X21750000Y8500000D03*
X26750000Y4250000D03*
X37500000Y4750000D03*
X28750000Y4250000D03*
X18000000Y6000000D03*
X32000000Y13000000D03*
X32000000Y3000000D03*
X33750000Y9500000D03*
X35750000Y9500000D03*
X20000000Y13000000D03*
X11500000Y8100000D03*
%TO.N,VSS*%
X37500000Y3000000D03*
X18000000Y2500000D03*
X20000000Y9500000D03*
X58500000Y1500000D03*
X18000000Y9500000D03*
X35750000Y6000000D03*
X20000000Y2500000D03*
X33750000Y6000000D03*
%TO.N,VDD*%
X58500000Y14500000D03*
X23250000Y5250000D03*
X39000000Y8600000D03*
X37500000Y13000000D03*
X23250000Y12250000D03*
%TO.N,/FB_POS*%
X14750000Y5000000D03*
%TO.N,/FB_NEG*%
X14750000Y12000000D03*
%TD*%
%TA.AperFunction,Conductor*%
%TO.N,GND*%
G36*
X48664467Y14979998D02*
G01*
X48710960Y14926342D01*
X48721064Y14856068D01*
X48691570Y14791488D01*
X48670407Y14772064D01*
X48537393Y14675423D01*
X48508746Y14654610D01*
X48505582Y14651554D01*
X48505579Y14651552D01*
X48305626Y14458460D01*
X48305622Y14458455D01*
X48302461Y14455403D01*
X48299754Y14451938D01*
X48299752Y14451936D01*
X48217309Y14346414D01*
X48125907Y14229425D01*
X48123704Y14225609D01*
X48012968Y14033807D01*
X47982523Y13981075D01*
X47875097Y13715187D01*
X47874032Y13710914D01*
X47874031Y13710912D01*
X47856112Y13639044D01*
X47805721Y13436935D01*
X47805262Y13432565D01*
X47805261Y13432561D01*
X47776204Y13156105D01*
X47775745Y13151736D01*
X47775898Y13147348D01*
X47775898Y13147342D01*
X47784260Y12907906D01*
X47785753Y12865141D01*
X47786515Y12860818D01*
X47786516Y12860811D01*
X47815242Y12697901D01*
X47835550Y12582728D01*
X47836905Y12578557D01*
X47836907Y12578550D01*
X47871473Y12472169D01*
X47924167Y12309994D01*
X47926095Y12306041D01*
X47926097Y12306036D01*
X47955445Y12245865D01*
X48049879Y12052247D01*
X48210238Y11814504D01*
X48402125Y11601392D01*
X48621803Y11417060D01*
X48864998Y11265095D01*
X49006260Y11202201D01*
X49091661Y11164178D01*
X49126975Y11148455D01*
X49402636Y11069411D01*
X49406986Y11068800D01*
X49406989Y11068799D01*
X49511342Y11054133D01*
X49686615Y11029500D01*
X53401604Y11029500D01*
X53403790Y11029653D01*
X53403794Y11029653D01*
X53611686Y11044190D01*
X53611691Y11044191D01*
X53616071Y11044497D01*
X53620365Y11045410D01*
X53620367Y11045410D01*
X53738984Y11070623D01*
X53896575Y11104120D01*
X53900706Y11105624D01*
X53900711Y11105625D01*
X54075633Y11169292D01*
X54166050Y11202201D01*
X54243081Y11243159D01*
X54415361Y11334761D01*
X54415367Y11334765D01*
X54419253Y11336831D01*
X54422813Y11339418D01*
X54422817Y11339420D01*
X54647691Y11502801D01*
X54647694Y11502803D01*
X54651254Y11505390D01*
X54661137Y11514934D01*
X54854374Y11701540D01*
X54854378Y11701545D01*
X54857539Y11704597D01*
X54889438Y11745425D01*
X55031381Y11927104D01*
X55034093Y11930575D01*
X55078441Y12007389D01*
X55175276Y12175112D01*
X55175278Y12175117D01*
X55177477Y12178925D01*
X55284903Y12444813D01*
X55354279Y12723065D01*
X55357113Y12750023D01*
X55383796Y13003895D01*
X55383796Y13003898D01*
X55384255Y13008264D01*
X55384023Y13014920D01*
X55374401Y13290462D01*
X55374400Y13290468D01*
X55374247Y13294859D01*
X55368691Y13326373D01*
X55325212Y13572949D01*
X55324450Y13577272D01*
X55323095Y13581443D01*
X55323093Y13581450D01*
X55251794Y13800884D01*
X55235833Y13850006D01*
X55229514Y13862963D01*
X55170046Y13984888D01*
X55110121Y14107753D01*
X54949762Y14345496D01*
X54757875Y14558608D01*
X54538197Y14742940D01*
X54534459Y14745276D01*
X54499460Y14767146D01*
X54452289Y14820207D01*
X54441294Y14890347D01*
X54469965Y14955297D01*
X54529199Y14994436D01*
X54566229Y15000000D01*
X57758684Y15000000D01*
X57826805Y14979998D01*
X57873298Y14926342D01*
X57883402Y14856068D01*
X57876078Y14828233D01*
X57816524Y14675487D01*
X57815532Y14667954D01*
X57815532Y14667953D01*
X57800706Y14555333D01*
X57794394Y14507389D01*
X57812999Y14338865D01*
X57871266Y14179644D01*
X57875502Y14173341D01*
X57875502Y14173340D01*
X57888574Y14153887D01*
X57965830Y14038917D01*
X57971442Y14033810D01*
X57971445Y14033807D01*
X58085612Y13929923D01*
X58085616Y13929920D01*
X58091233Y13924809D01*
X58097910Y13921184D01*
X58097911Y13921183D01*
X58210160Y13860237D01*
X58260481Y13810154D01*
X58275738Y13740816D01*
X58251086Y13674237D01*
X58207829Y13637541D01*
X58103369Y13583625D01*
X58097647Y13578633D01*
X58097645Y13578632D01*
X58026069Y13516192D01*
X57975604Y13472169D01*
X57878113Y13333453D01*
X57816524Y13175487D01*
X57794394Y13007389D01*
X57812999Y12838865D01*
X57871266Y12679644D01*
X57875502Y12673341D01*
X57875502Y12673340D01*
X57885289Y12658776D01*
X57965830Y12538917D01*
X57971442Y12533810D01*
X57971445Y12533807D01*
X58085612Y12429923D01*
X58085616Y12429920D01*
X58091233Y12424809D01*
X58097906Y12421186D01*
X58097910Y12421183D01*
X58233558Y12347533D01*
X58233560Y12347532D01*
X58240235Y12343908D01*
X58247584Y12341980D01*
X58396883Y12302812D01*
X58396885Y12302812D01*
X58404233Y12300884D01*
X58490609Y12299527D01*
X58566161Y12298340D01*
X58566164Y12298340D01*
X58573760Y12298221D01*
X58581165Y12299917D01*
X58581166Y12299917D01*
X58643459Y12314184D01*
X58739029Y12336072D01*
X58890498Y12412253D01*
X59019423Y12522366D01*
X59118361Y12660053D01*
X59126237Y12679644D01*
X59178766Y12810313D01*
X59178767Y12810315D01*
X59181601Y12817366D01*
X59194610Y12908776D01*
X59204909Y12981138D01*
X59204909Y12981141D01*
X59205490Y12985222D01*
X59205645Y13000000D01*
X59203840Y13014920D01*
X59201004Y13038347D01*
X59185276Y13168320D01*
X59125345Y13326923D01*
X59052742Y13432561D01*
X59033614Y13460392D01*
X59033613Y13460393D01*
X59029312Y13466651D01*
X59017514Y13477163D01*
X58908392Y13574388D01*
X58908388Y13574390D01*
X58902721Y13579440D01*
X58896011Y13582993D01*
X58896005Y13582997D01*
X58790151Y13639044D01*
X58739308Y13688597D01*
X58723326Y13757771D01*
X58747280Y13824605D01*
X58792496Y13862963D01*
X58883714Y13908841D01*
X58890498Y13912253D01*
X59019423Y14022366D01*
X59118361Y14160053D01*
X59126237Y14179644D01*
X59178766Y14310313D01*
X59178767Y14310315D01*
X59181601Y14317366D01*
X59205490Y14485222D01*
X59205645Y14500000D01*
X59203840Y14514920D01*
X59186935Y14654610D01*
X59185276Y14668320D01*
X59125345Y14826923D01*
X59127792Y14827847D01*
X59116389Y14885274D01*
X59142407Y14951332D01*
X59200007Y14992837D01*
X59241884Y15000000D01*
X65874000Y15000000D01*
X65942121Y14979998D01*
X65988614Y14926342D01*
X66000000Y14874000D01*
X66000000Y1126000D01*
X65979998Y1057879D01*
X65926342Y1011386D01*
X65874000Y1000000D01*
X59240472Y1000000D01*
X59172351Y1020002D01*
X59125858Y1073658D01*
X59115754Y1143932D01*
X59123565Y1172996D01*
X59178765Y1310309D01*
X59178767Y1310316D01*
X59181601Y1317366D01*
X59205490Y1485222D01*
X59205645Y1500000D01*
X59203840Y1514920D01*
X59199829Y1548064D01*
X59185276Y1668320D01*
X59125345Y1826923D01*
X59114997Y1841980D01*
X59033614Y1960392D01*
X59033613Y1960393D01*
X59029312Y1966651D01*
X58957122Y2030970D01*
X58919568Y2091218D01*
X58920548Y2162208D01*
X58959112Y2220855D01*
X59013651Y2267436D01*
X59013652Y2267437D01*
X59019423Y2272366D01*
X59118361Y2410053D01*
X59126349Y2429923D01*
X59178766Y2560313D01*
X59178767Y2560315D01*
X59181601Y2567366D01*
X59205490Y2735222D01*
X59205645Y2750000D01*
X59203840Y2764920D01*
X59194282Y2843895D01*
X59185276Y2918320D01*
X59125345Y3076923D01*
X59092990Y3124000D01*
X59033614Y3210392D01*
X59033613Y3210393D01*
X59029312Y3216651D01*
X59010680Y3233252D01*
X58908392Y3324388D01*
X58908388Y3324390D01*
X58902721Y3329440D01*
X58895656Y3333181D01*
X58835080Y3365254D01*
X58752881Y3408776D01*
X58588441Y3450081D01*
X58580843Y3450121D01*
X58580841Y3450121D01*
X58503668Y3450525D01*
X58418895Y3450969D01*
X58411508Y3449195D01*
X58411504Y3449195D01*
X58295942Y3421450D01*
X58254032Y3411388D01*
X58247288Y3407907D01*
X58247285Y3407906D01*
X58242089Y3405224D01*
X58103369Y3333625D01*
X58097647Y3328633D01*
X58097645Y3328632D01*
X58043280Y3281206D01*
X57975604Y3222169D01*
X57954486Y3192121D01*
X57896794Y3110033D01*
X57878113Y3083453D01*
X57816524Y2925487D01*
X57815532Y2917954D01*
X57815532Y2917953D01*
X57803281Y2824892D01*
X57794394Y2757389D01*
X57812999Y2588865D01*
X57871266Y2429644D01*
X57875502Y2423341D01*
X57875502Y2423340D01*
X57885245Y2408841D01*
X57965830Y2288917D01*
X57971442Y2283810D01*
X57971445Y2283807D01*
X58043737Y2218027D01*
X58080659Y2157387D01*
X58078936Y2086412D01*
X58041768Y2029888D01*
X57975604Y1972169D01*
X57971237Y1965955D01*
X57888009Y1847533D01*
X57878113Y1833453D01*
X57816524Y1675487D01*
X57815532Y1667954D01*
X57815532Y1667953D01*
X57799749Y1548064D01*
X57794394Y1507389D01*
X57812999Y1338865D01*
X57871018Y1180322D01*
X57871018Y1180321D01*
X57871266Y1179644D01*
X57871153Y1179603D01*
X57883581Y1113426D01*
X57856881Y1047641D01*
X57798853Y1006735D01*
X57758210Y1000000D01*
X54563654Y1000000D01*
X54495533Y1020002D01*
X54449040Y1073658D01*
X54438936Y1143932D01*
X54468430Y1208512D01*
X54489593Y1227936D01*
X54647691Y1342801D01*
X54647694Y1342803D01*
X54651254Y1345390D01*
X54747738Y1438563D01*
X54854374Y1541540D01*
X54854378Y1541545D01*
X54857539Y1544597D01*
X54940853Y1651233D01*
X55031381Y1767104D01*
X55034093Y1770575D01*
X55078524Y1847533D01*
X55175276Y2015112D01*
X55175278Y2015117D01*
X55177477Y2018925D01*
X55284903Y2284813D01*
X55354279Y2563065D01*
X55364550Y2660780D01*
X55383796Y2843895D01*
X55383796Y2843898D01*
X55384255Y2848264D01*
X55382072Y2910780D01*
X55374401Y3130462D01*
X55374400Y3130468D01*
X55374247Y3134859D01*
X55370657Y3155224D01*
X55339311Y3332993D01*
X55324450Y3417272D01*
X55323095Y3421443D01*
X55323093Y3421450D01*
X55245980Y3658776D01*
X55235833Y3690006D01*
X55231352Y3699195D01*
X55170046Y3824888D01*
X55110121Y3947753D01*
X54949762Y4185496D01*
X54757875Y4398608D01*
X54559155Y4565354D01*
X60349500Y4565354D01*
X60352618Y4539154D01*
X60356456Y4530514D01*
X60356456Y4530513D01*
X60384814Y4466670D01*
X60398061Y4436847D01*
X60477287Y4357759D01*
X60487924Y4353056D01*
X60487926Y4353055D01*
X60526341Y4336072D01*
X60579673Y4312494D01*
X60605354Y4309500D01*
X62394646Y4309500D01*
X62398350Y4309941D01*
X62398353Y4309941D01*
X62405746Y4310821D01*
X62420846Y4312618D01*
X62523153Y4358061D01*
X62554984Y4389947D01*
X62577093Y4412095D01*
X62602241Y4437287D01*
X62615232Y4466670D01*
X62633265Y4507462D01*
X62647506Y4539673D01*
X62650500Y4565354D01*
X62650500Y6354646D01*
X62647382Y6380846D01*
X62607025Y6471704D01*
X62606663Y6472518D01*
X62601939Y6483153D01*
X62522713Y6562241D01*
X62512076Y6566944D01*
X62512074Y6566945D01*
X62452538Y6593265D01*
X62420327Y6607506D01*
X62394646Y6610500D01*
X62284285Y6610500D01*
X62216164Y6630502D01*
X62169671Y6684158D01*
X62159567Y6754432D01*
X62189061Y6819012D01*
X62211116Y6839078D01*
X62249247Y6866277D01*
X62257648Y6876977D01*
X62250660Y6890130D01*
X61512812Y7627978D01*
X61498868Y7635592D01*
X61497035Y7635461D01*
X61490420Y7631210D01*
X60746737Y6887527D01*
X60739977Y6875147D01*
X60745257Y6868094D01*
X60784284Y6845288D01*
X60833007Y6793649D01*
X60846078Y6723866D01*
X60819346Y6658094D01*
X60761299Y6617216D01*
X60720713Y6610500D01*
X60605354Y6610500D01*
X60601650Y6610059D01*
X60601647Y6610059D01*
X60594254Y6609179D01*
X60579154Y6607382D01*
X60570514Y6603544D01*
X60570513Y6603544D01*
X60488117Y6566945D01*
X60476847Y6561939D01*
X60397759Y6482713D01*
X60393056Y6472076D01*
X60393055Y6472074D01*
X60366735Y6412538D01*
X60352494Y6380327D01*
X60349500Y6354646D01*
X60349500Y4565354D01*
X54559155Y4565354D01*
X54538197Y4582940D01*
X54295002Y4734905D01*
X54033025Y4851545D01*
X53804406Y4917100D01*
X53761591Y4929377D01*
X53761590Y4929377D01*
X53757364Y4930589D01*
X53753014Y4931200D01*
X53753011Y4931201D01*
X53648658Y4945867D01*
X53473385Y4970500D01*
X49758396Y4970500D01*
X49756210Y4970347D01*
X49756206Y4970347D01*
X49548314Y4955810D01*
X49548309Y4955809D01*
X49543929Y4955503D01*
X49539635Y4954590D01*
X49539633Y4954590D01*
X49455835Y4936778D01*
X49263425Y4895880D01*
X49259294Y4894376D01*
X49259289Y4894375D01*
X49141616Y4851545D01*
X48993950Y4797799D01*
X48936845Y4767436D01*
X48744639Y4665239D01*
X48744633Y4665235D01*
X48740747Y4663169D01*
X48737187Y4660582D01*
X48737183Y4660580D01*
X48512309Y4497199D01*
X48508746Y4494610D01*
X48505582Y4491554D01*
X48505579Y4491552D01*
X48305626Y4298460D01*
X48305622Y4298455D01*
X48302461Y4295403D01*
X48299754Y4291938D01*
X48299752Y4291936D01*
X48216592Y4185496D01*
X48125907Y4069425D01*
X48123704Y4065609D01*
X48057765Y3951398D01*
X47982523Y3821075D01*
X47875097Y3555187D01*
X47874032Y3550914D01*
X47874031Y3550912D01*
X47852849Y3465955D01*
X47805721Y3276935D01*
X47805262Y3272565D01*
X47805261Y3272561D01*
X47776204Y2996105D01*
X47775745Y2991736D01*
X47775898Y2987348D01*
X47775898Y2987342D01*
X47784703Y2735222D01*
X47785753Y2705141D01*
X47786515Y2700818D01*
X47786516Y2700811D01*
X47810046Y2567366D01*
X47835550Y2422728D01*
X47836905Y2418557D01*
X47836907Y2418550D01*
X47862799Y2338865D01*
X47924167Y2149994D01*
X47926095Y2146041D01*
X47926097Y2146036D01*
X47975270Y2045217D01*
X48049879Y1892247D01*
X48210238Y1654504D01*
X48402125Y1441392D01*
X48621803Y1257060D01*
X48625539Y1254726D01*
X48625541Y1254724D01*
X48660540Y1232854D01*
X48707711Y1179793D01*
X48718706Y1109653D01*
X48690035Y1044703D01*
X48630801Y1005564D01*
X48593771Y1000000D01*
X15376000Y1000000D01*
X15307879Y1020002D01*
X15261386Y1073658D01*
X15250000Y1126000D01*
X15250000Y2507389D01*
X17294394Y2507389D01*
X17312999Y2338865D01*
X17371266Y2179644D01*
X17375502Y2173341D01*
X17375502Y2173340D01*
X17386222Y2157387D01*
X17465830Y2038917D01*
X17471442Y2033810D01*
X17471445Y2033807D01*
X17585612Y1929923D01*
X17585616Y1929920D01*
X17591233Y1924809D01*
X17597906Y1921186D01*
X17597910Y1921183D01*
X17733558Y1847533D01*
X17733560Y1847532D01*
X17740235Y1843908D01*
X17747584Y1841980D01*
X17896883Y1802812D01*
X17896885Y1802812D01*
X17904233Y1800884D01*
X17990609Y1799527D01*
X18066161Y1798340D01*
X18066164Y1798340D01*
X18073760Y1798221D01*
X18081165Y1799917D01*
X18081166Y1799917D01*
X18141586Y1813755D01*
X18239029Y1836072D01*
X18390498Y1912253D01*
X18519423Y2022366D01*
X18618361Y2160053D01*
X18626237Y2179644D01*
X18678766Y2310313D01*
X18678767Y2310315D01*
X18681601Y2317366D01*
X18705490Y2485222D01*
X18705645Y2500000D01*
X18704751Y2507389D01*
X19294394Y2507389D01*
X19312999Y2338865D01*
X19371266Y2179644D01*
X19375502Y2173341D01*
X19375502Y2173340D01*
X19386222Y2157387D01*
X19465830Y2038917D01*
X19471442Y2033810D01*
X19471445Y2033807D01*
X19585612Y1929923D01*
X19585616Y1929920D01*
X19591233Y1924809D01*
X19597906Y1921186D01*
X19597910Y1921183D01*
X19733558Y1847533D01*
X19733560Y1847532D01*
X19740235Y1843908D01*
X19747584Y1841980D01*
X19896883Y1802812D01*
X19896885Y1802812D01*
X19904233Y1800884D01*
X19990609Y1799527D01*
X20066161Y1798340D01*
X20066164Y1798340D01*
X20073760Y1798221D01*
X20081165Y1799917D01*
X20081166Y1799917D01*
X20141586Y1813755D01*
X20239029Y1836072D01*
X20390498Y1912253D01*
X20519423Y2022366D01*
X20618361Y2160053D01*
X20626237Y2179644D01*
X20678766Y2310313D01*
X20678767Y2310315D01*
X20681601Y2317366D01*
X20705490Y2485222D01*
X20705645Y2500000D01*
X20703840Y2514920D01*
X20694891Y2588865D01*
X20685276Y2668320D01*
X20625345Y2826923D01*
X20607658Y2852658D01*
X20533614Y2960392D01*
X20533613Y2960393D01*
X20529312Y2966651D01*
X20517514Y2977163D01*
X20483589Y3007389D01*
X36794394Y3007389D01*
X36812999Y2838865D01*
X36871266Y2679644D01*
X36875502Y2673341D01*
X36875502Y2673340D01*
X36888574Y2653887D01*
X36965830Y2538917D01*
X36971442Y2533810D01*
X36971445Y2533807D01*
X37085612Y2429923D01*
X37085616Y2429920D01*
X37091233Y2424809D01*
X37097906Y2421186D01*
X37097910Y2421183D01*
X37233558Y2347533D01*
X37233560Y2347532D01*
X37240235Y2343908D01*
X37247584Y2341980D01*
X37396883Y2302812D01*
X37396885Y2302812D01*
X37404233Y2300884D01*
X37490609Y2299527D01*
X37566161Y2298340D01*
X37566164Y2298340D01*
X37573760Y2298221D01*
X37581165Y2299917D01*
X37581166Y2299917D01*
X37657353Y2317366D01*
X37739029Y2336072D01*
X37890498Y2412253D01*
X37969713Y2479910D01*
X38013651Y2517436D01*
X38013652Y2517437D01*
X38019423Y2522366D01*
X38118361Y2660053D01*
X38124540Y2675423D01*
X38178766Y2810313D01*
X38178767Y2810315D01*
X38181601Y2817366D01*
X38203566Y2971704D01*
X38204909Y2981138D01*
X38204909Y2981141D01*
X38205490Y2985222D01*
X38205645Y3000000D01*
X38203840Y3014920D01*
X38192809Y3106068D01*
X38185276Y3168320D01*
X38125345Y3326923D01*
X38067818Y3410625D01*
X38033614Y3460392D01*
X38033613Y3460393D01*
X38029312Y3466651D01*
X38017514Y3477163D01*
X37908392Y3574388D01*
X37908388Y3574390D01*
X37902721Y3579440D01*
X37752881Y3658776D01*
X37588441Y3700081D01*
X37580843Y3700121D01*
X37580841Y3700121D01*
X37503668Y3700525D01*
X37418895Y3700969D01*
X37411508Y3699195D01*
X37411504Y3699195D01*
X37268162Y3664780D01*
X37254032Y3661388D01*
X37247288Y3657907D01*
X37247285Y3657906D01*
X37242089Y3655224D01*
X37103369Y3583625D01*
X36975604Y3472169D01*
X36939958Y3421450D01*
X36932887Y3411388D01*
X36878113Y3333453D01*
X36816524Y3175487D01*
X36815532Y3167954D01*
X36815532Y3167953D01*
X36797246Y3029051D01*
X36794394Y3007389D01*
X20483589Y3007389D01*
X20408392Y3074388D01*
X20408388Y3074390D01*
X20402721Y3079440D01*
X20395656Y3083181D01*
X20319502Y3123502D01*
X20252881Y3158776D01*
X20088441Y3200081D01*
X20080843Y3200121D01*
X20080841Y3200121D01*
X20003668Y3200525D01*
X19918895Y3200969D01*
X19911508Y3199195D01*
X19911504Y3199195D01*
X19768162Y3164780D01*
X19754032Y3161388D01*
X19747288Y3157907D01*
X19747285Y3157906D01*
X19615081Y3089670D01*
X19603369Y3083625D01*
X19597647Y3078633D01*
X19597645Y3078632D01*
X19592780Y3074388D01*
X19475604Y2972169D01*
X19471237Y2965955D01*
X19385452Y2843895D01*
X19378113Y2833453D01*
X19316524Y2675487D01*
X19315532Y2667954D01*
X19315532Y2667953D01*
X19295717Y2517436D01*
X19294394Y2507389D01*
X18704751Y2507389D01*
X18703840Y2514920D01*
X18694891Y2588865D01*
X18685276Y2668320D01*
X18625345Y2826923D01*
X18607658Y2852658D01*
X18533614Y2960392D01*
X18533613Y2960393D01*
X18529312Y2966651D01*
X18517514Y2977163D01*
X18408392Y3074388D01*
X18408388Y3074390D01*
X18402721Y3079440D01*
X18395656Y3083181D01*
X18319502Y3123502D01*
X18252881Y3158776D01*
X18088441Y3200081D01*
X18080843Y3200121D01*
X18080841Y3200121D01*
X18003668Y3200525D01*
X17918895Y3200969D01*
X17911508Y3199195D01*
X17911504Y3199195D01*
X17768162Y3164780D01*
X17754032Y3161388D01*
X17747288Y3157907D01*
X17747285Y3157906D01*
X17680629Y3123502D01*
X17610921Y3110033D01*
X17580372Y3122246D01*
X17582698Y3106068D01*
X17553204Y3041488D01*
X17540809Y3029051D01*
X17507507Y3000000D01*
X17475604Y2972169D01*
X17471237Y2965955D01*
X17385452Y2843895D01*
X17378113Y2833453D01*
X17316524Y2675487D01*
X17315532Y2667954D01*
X17315532Y2667953D01*
X17295717Y2517436D01*
X17294394Y2507389D01*
X15250000Y2507389D01*
X15250000Y3124000D01*
X15270002Y3192121D01*
X15323658Y3238614D01*
X15376000Y3250000D01*
X17457980Y3250000D01*
X17501210Y3237307D01*
X17500451Y3250000D01*
X17500000Y3250000D01*
X17500000Y5257389D01*
X22544394Y5257389D01*
X22562999Y5088865D01*
X22570867Y5067366D01*
X22611691Y4955810D01*
X22621266Y4929644D01*
X22625502Y4923341D01*
X22625502Y4923340D01*
X22638574Y4903887D01*
X22715830Y4788917D01*
X22721442Y4783810D01*
X22721445Y4783807D01*
X22835612Y4679923D01*
X22835616Y4679920D01*
X22841233Y4674809D01*
X22847906Y4671186D01*
X22847910Y4671183D01*
X22983558Y4597533D01*
X22983560Y4597532D01*
X22990235Y4593908D01*
X22997584Y4591980D01*
X23146883Y4552812D01*
X23146885Y4552812D01*
X23154233Y4550884D01*
X23240609Y4549527D01*
X23316161Y4548340D01*
X23316164Y4548340D01*
X23323760Y4548221D01*
X23331165Y4549917D01*
X23331166Y4549917D01*
X23398568Y4565354D01*
X23489029Y4586072D01*
X23640498Y4662253D01*
X23769423Y4772366D01*
X23868361Y4910053D01*
X23876237Y4929644D01*
X23928766Y5060313D01*
X23928767Y5060315D01*
X23931601Y5067366D01*
X23955490Y5235222D01*
X23955645Y5250000D01*
X23953840Y5264920D01*
X23936188Y5410780D01*
X23935276Y5418320D01*
X23875345Y5576923D01*
X23818211Y5660053D01*
X23783614Y5710392D01*
X23783613Y5710393D01*
X23779312Y5716651D01*
X23674189Y5810313D01*
X23658392Y5824388D01*
X23658388Y5824390D01*
X23652721Y5829440D01*
X23634921Y5838865D01*
X23585080Y5865254D01*
X23502881Y5908776D01*
X23338441Y5950081D01*
X23330843Y5950121D01*
X23330841Y5950121D01*
X23253668Y5950525D01*
X23168895Y5950969D01*
X23161508Y5949195D01*
X23161504Y5949195D01*
X23018162Y5914780D01*
X23004032Y5911388D01*
X22997288Y5907907D01*
X22997285Y5907906D01*
X22992089Y5905224D01*
X22853369Y5833625D01*
X22725604Y5722169D01*
X22686901Y5667100D01*
X22682887Y5661388D01*
X22628113Y5583453D01*
X22566524Y5425487D01*
X22565532Y5417954D01*
X22565532Y5417953D01*
X22549770Y5298221D01*
X22544394Y5257389D01*
X17500000Y5257389D01*
X17500000Y6007389D01*
X33044394Y6007389D01*
X33062999Y5838865D01*
X33121266Y5679644D01*
X33125502Y5673341D01*
X33125502Y5673340D01*
X33135289Y5658776D01*
X33215830Y5538917D01*
X33221442Y5533810D01*
X33221445Y5533807D01*
X33335612Y5429923D01*
X33335616Y5429920D01*
X33341233Y5424809D01*
X33347906Y5421186D01*
X33347910Y5421183D01*
X33483558Y5347533D01*
X33483560Y5347532D01*
X33490235Y5343908D01*
X33497584Y5341980D01*
X33646883Y5302812D01*
X33646885Y5302812D01*
X33654233Y5300884D01*
X33740609Y5299527D01*
X33816161Y5298340D01*
X33816164Y5298340D01*
X33823760Y5298221D01*
X33831165Y5299917D01*
X33831166Y5299917D01*
X33891586Y5313755D01*
X33989029Y5336072D01*
X34140498Y5412253D01*
X34269423Y5522366D01*
X34368361Y5660053D01*
X34376237Y5679644D01*
X34428766Y5810313D01*
X34428767Y5810315D01*
X34431601Y5817366D01*
X34444610Y5908776D01*
X34454909Y5981138D01*
X34454909Y5981141D01*
X34455490Y5985222D01*
X34455645Y6000000D01*
X34454751Y6007389D01*
X35044394Y6007389D01*
X35062999Y5838865D01*
X35121266Y5679644D01*
X35125502Y5673341D01*
X35125502Y5673340D01*
X35135289Y5658776D01*
X35215830Y5538917D01*
X35221442Y5533810D01*
X35221445Y5533807D01*
X35335612Y5429923D01*
X35335616Y5429920D01*
X35341233Y5424809D01*
X35347906Y5421186D01*
X35347910Y5421183D01*
X35483558Y5347533D01*
X35483560Y5347532D01*
X35490235Y5343908D01*
X35497584Y5341980D01*
X35646883Y5302812D01*
X35646885Y5302812D01*
X35654233Y5300884D01*
X35740609Y5299527D01*
X35816161Y5298340D01*
X35816164Y5298340D01*
X35823760Y5298221D01*
X35831165Y5299917D01*
X35831166Y5299917D01*
X35891586Y5313755D01*
X35989029Y5336072D01*
X36140498Y5412253D01*
X36269423Y5522366D01*
X36368361Y5660053D01*
X36376237Y5679644D01*
X36428766Y5810313D01*
X36428767Y5810315D01*
X36431601Y5817366D01*
X36444610Y5908776D01*
X36454909Y5981138D01*
X36454909Y5981141D01*
X36455490Y5985222D01*
X36455645Y6000000D01*
X36453840Y6014920D01*
X36436188Y6160780D01*
X36435276Y6168320D01*
X36375345Y6326923D01*
X36279312Y6466651D01*
X36273641Y6471704D01*
X36158392Y6574388D01*
X36158388Y6574390D01*
X36152721Y6579440D01*
X36107197Y6603544D01*
X36056281Y6630502D01*
X36002881Y6658776D01*
X35838441Y6700081D01*
X35830843Y6700121D01*
X35830841Y6700121D01*
X35753668Y6700525D01*
X35668895Y6700969D01*
X35661508Y6699195D01*
X35661504Y6699195D01*
X35518162Y6664780D01*
X35504032Y6661388D01*
X35497288Y6657907D01*
X35497285Y6657906D01*
X35399397Y6607382D01*
X35353369Y6583625D01*
X35347647Y6578633D01*
X35347645Y6578632D01*
X35319435Y6554023D01*
X35225604Y6472169D01*
X35221237Y6465955D01*
X35140385Y6350914D01*
X35128113Y6333453D01*
X35066524Y6175487D01*
X35044394Y6007389D01*
X34454751Y6007389D01*
X34453840Y6014920D01*
X34436188Y6160780D01*
X34435276Y6168320D01*
X34375345Y6326923D01*
X34279312Y6466651D01*
X34273641Y6471704D01*
X34158392Y6574388D01*
X34158388Y6574390D01*
X34152721Y6579440D01*
X34107197Y6603544D01*
X34056281Y6630502D01*
X34002881Y6658776D01*
X33838441Y6700081D01*
X33830843Y6700121D01*
X33830841Y6700121D01*
X33753668Y6700525D01*
X33668895Y6700969D01*
X33661508Y6699195D01*
X33661504Y6699195D01*
X33518162Y6664780D01*
X33504032Y6661388D01*
X33497288Y6657907D01*
X33497285Y6657906D01*
X33399397Y6607382D01*
X33353369Y6583625D01*
X33347647Y6578633D01*
X33347645Y6578632D01*
X33319435Y6554023D01*
X33225604Y6472169D01*
X33221237Y6465955D01*
X33140385Y6350914D01*
X33128113Y6333453D01*
X33066524Y6175487D01*
X33044394Y6007389D01*
X17500000Y6007389D01*
X17500000Y7250000D01*
X12500000Y7250000D01*
X12500000Y6376000D01*
X12479998Y6307879D01*
X12426342Y6261386D01*
X12374000Y6250000D01*
X8876000Y6250000D01*
X8807879Y6270002D01*
X8761386Y6323658D01*
X8750000Y6376000D01*
X8750000Y8607389D01*
X38294394Y8607389D01*
X38312999Y8438865D01*
X38371266Y8279644D01*
X38375502Y8273341D01*
X38375502Y8273340D01*
X38388574Y8253887D01*
X38465830Y8138917D01*
X38471442Y8133810D01*
X38471445Y8133807D01*
X38585612Y8029923D01*
X38585616Y8029920D01*
X38591233Y8024809D01*
X38597906Y8021186D01*
X38597910Y8021183D01*
X38733558Y7947533D01*
X38733560Y7947532D01*
X38740235Y7943908D01*
X38747584Y7941980D01*
X38896883Y7902812D01*
X38896885Y7902812D01*
X38904233Y7900884D01*
X38990609Y7899527D01*
X39066161Y7898340D01*
X39066164Y7898340D01*
X39073760Y7898221D01*
X39081165Y7899917D01*
X39081166Y7899917D01*
X39141586Y7913755D01*
X39239029Y7936072D01*
X39390498Y8012253D01*
X39519423Y8122366D01*
X39618361Y8260053D01*
X39626237Y8279644D01*
X39678766Y8410313D01*
X39678767Y8410315D01*
X39681601Y8417366D01*
X39687098Y8455993D01*
X45399500Y8455993D01*
X45399501Y7544008D01*
X45399764Y7541150D01*
X45399764Y7541141D01*
X45403015Y7505757D01*
X45406171Y7471406D01*
X45456873Y7309617D01*
X45544703Y7164592D01*
X45664592Y7044703D01*
X45809617Y6956873D01*
X45816864Y6954602D01*
X45816866Y6954601D01*
X45882106Y6934156D01*
X45971406Y6906171D01*
X46044007Y6899500D01*
X46046905Y6899500D01*
X46501183Y6899501D01*
X46955992Y6899501D01*
X46958850Y6899764D01*
X46958859Y6899764D01*
X46994243Y6903015D01*
X47028594Y6906171D01*
X47034979Y6908172D01*
X47183134Y6954601D01*
X47183136Y6954602D01*
X47190383Y6956873D01*
X47335408Y7044703D01*
X47455297Y7164592D01*
X47543127Y7309617D01*
X47593829Y7471406D01*
X47600500Y7544007D01*
X47600499Y8028137D01*
X60138050Y8028137D01*
X60150309Y7815523D01*
X60151745Y7805303D01*
X60198565Y7597554D01*
X60201645Y7587725D01*
X60281770Y7390397D01*
X60286413Y7381206D01*
X60366460Y7250580D01*
X60376916Y7241120D01*
X60385694Y7244904D01*
X61127978Y7987188D01*
X61134356Y7998868D01*
X61864408Y7998868D01*
X61864539Y7997035D01*
X61868790Y7990420D01*
X62610474Y7248736D01*
X62622484Y7242177D01*
X62634223Y7251145D01*
X62665004Y7293981D01*
X62670315Y7302820D01*
X62764670Y7493733D01*
X62768469Y7503328D01*
X62830376Y7707085D01*
X62832555Y7717166D01*
X62860590Y7930113D01*
X62861109Y7936788D01*
X62862572Y7996636D01*
X62862378Y8003354D01*
X62844781Y8217396D01*
X62843096Y8227576D01*
X62791214Y8434125D01*
X62787894Y8443876D01*
X62702972Y8639186D01*
X62698105Y8648261D01*
X62633063Y8748803D01*
X62622377Y8758005D01*
X62612812Y8753602D01*
X61872022Y8012812D01*
X61864408Y7998868D01*
X61134356Y7998868D01*
X61135592Y8001132D01*
X61135461Y8002965D01*
X61131210Y8009580D01*
X60389849Y8750941D01*
X60378313Y8757241D01*
X60366031Y8747618D01*
X60318089Y8677338D01*
X60313004Y8668387D01*
X60223338Y8475217D01*
X60219775Y8465530D01*
X60162864Y8260319D01*
X60160933Y8250200D01*
X60138302Y8038426D01*
X60138050Y8028137D01*
X47600499Y8028137D01*
X47600499Y8455992D01*
X47600234Y8458884D01*
X47594440Y8521940D01*
X47593829Y8528594D01*
X47574790Y8589347D01*
X47545399Y8683134D01*
X47545398Y8683136D01*
X47543127Y8690383D01*
X47455297Y8835408D01*
X47335408Y8955297D01*
X47190383Y9043127D01*
X47183136Y9045398D01*
X47183134Y9045399D01*
X47034976Y9091829D01*
X47028594Y9093829D01*
X47027905Y9093892D01*
X46967033Y9125838D01*
X46931984Y9187580D01*
X46935880Y9258470D01*
X46977482Y9316000D01*
X47001396Y9330587D01*
X47151511Y9400586D01*
X47161006Y9406069D01*
X47213048Y9442509D01*
X47221424Y9452988D01*
X47214356Y9466434D01*
X46512812Y10167978D01*
X46498868Y10175592D01*
X46497035Y10175461D01*
X46490420Y10171210D01*
X45784923Y9465713D01*
X45778493Y9453938D01*
X45787789Y9441923D01*
X45838994Y9406069D01*
X45848489Y9400586D01*
X45998604Y9330587D01*
X46051889Y9283670D01*
X46071350Y9215393D01*
X46050808Y9147433D01*
X45996786Y9101367D01*
X45973896Y9094058D01*
X45971406Y9093829D01*
X45965024Y9091829D01*
X45816866Y9045399D01*
X45816864Y9045398D01*
X45809617Y9043127D01*
X45664592Y8955297D01*
X45544703Y8835408D01*
X45456873Y8690383D01*
X45406171Y8528594D01*
X45399500Y8455993D01*
X39687098Y8455993D01*
X39705490Y8585222D01*
X39705645Y8600000D01*
X39703840Y8614920D01*
X39696286Y8677338D01*
X39685276Y8768320D01*
X39625345Y8926923D01*
X39563137Y9017436D01*
X39533614Y9060392D01*
X39533613Y9060393D01*
X39529312Y9066651D01*
X39499912Y9092846D01*
X39408392Y9174388D01*
X39408388Y9174390D01*
X39402721Y9179440D01*
X39387348Y9187580D01*
X39279596Y9244631D01*
X39252881Y9258776D01*
X39088441Y9300081D01*
X39080843Y9300121D01*
X39080841Y9300121D01*
X39003668Y9300525D01*
X38918895Y9300969D01*
X38911508Y9299195D01*
X38911504Y9299195D01*
X38791831Y9270463D01*
X38754032Y9261388D01*
X38747288Y9257907D01*
X38747285Y9257906D01*
X38610117Y9187108D01*
X38603369Y9183625D01*
X38597647Y9178633D01*
X38597645Y9178632D01*
X38564779Y9149961D01*
X38475604Y9072169D01*
X38378113Y8933453D01*
X38316524Y8775487D01*
X38315532Y8767954D01*
X38315532Y8767953D01*
X38299775Y8648261D01*
X38294394Y8607389D01*
X8750000Y8607389D01*
X8750000Y9507389D01*
X17294394Y9507389D01*
X17312999Y9338865D01*
X17341352Y9261388D01*
X17368535Y9187108D01*
X17371266Y9179644D01*
X17375502Y9173341D01*
X17375502Y9173340D01*
X17387517Y9155460D01*
X17465830Y9038917D01*
X17471442Y9033810D01*
X17471445Y9033807D01*
X17585612Y8929923D01*
X17585616Y8929920D01*
X17591233Y8924809D01*
X17597906Y8921186D01*
X17597910Y8921183D01*
X17733558Y8847533D01*
X17733560Y8847532D01*
X17740235Y8843908D01*
X17747584Y8841980D01*
X17896883Y8802812D01*
X17896885Y8802812D01*
X17904233Y8800884D01*
X17990609Y8799527D01*
X18066161Y8798340D01*
X18066164Y8798340D01*
X18073760Y8798221D01*
X18081165Y8799917D01*
X18081166Y8799917D01*
X18207744Y8828907D01*
X18239029Y8836072D01*
X18390498Y8912253D01*
X18519423Y9022366D01*
X18618361Y9160053D01*
X18627837Y9183625D01*
X18678766Y9310313D01*
X18678767Y9310315D01*
X18681601Y9317366D01*
X18701038Y9453938D01*
X18704909Y9481138D01*
X18704909Y9481141D01*
X18705490Y9485222D01*
X18705645Y9500000D01*
X18704751Y9507389D01*
X19294394Y9507389D01*
X19312999Y9338865D01*
X19341352Y9261388D01*
X19368535Y9187108D01*
X19371266Y9179644D01*
X19375502Y9173341D01*
X19375502Y9173340D01*
X19387517Y9155460D01*
X19465830Y9038917D01*
X19471442Y9033810D01*
X19471445Y9033807D01*
X19585612Y8929923D01*
X19585616Y8929920D01*
X19591233Y8924809D01*
X19597906Y8921186D01*
X19597910Y8921183D01*
X19733558Y8847533D01*
X19733560Y8847532D01*
X19740235Y8843908D01*
X19747584Y8841980D01*
X19896883Y8802812D01*
X19896885Y8802812D01*
X19904233Y8800884D01*
X19990609Y8799527D01*
X20066161Y8798340D01*
X20066164Y8798340D01*
X20073760Y8798221D01*
X20081165Y8799917D01*
X20081166Y8799917D01*
X20207744Y8828907D01*
X20239029Y8836072D01*
X20390498Y8912253D01*
X20519423Y9022366D01*
X20618361Y9160053D01*
X20627837Y9183625D01*
X20678766Y9310313D01*
X20678767Y9310315D01*
X20681601Y9317366D01*
X20701038Y9453938D01*
X20704909Y9481138D01*
X20704909Y9481141D01*
X20705490Y9485222D01*
X20705645Y9500000D01*
X20703840Y9514920D01*
X20690639Y9624000D01*
X20685276Y9668320D01*
X20625345Y9826923D01*
X20581577Y9890605D01*
X20533614Y9960392D01*
X20533613Y9960393D01*
X20529312Y9966651D01*
X20517514Y9977163D01*
X20408392Y10074388D01*
X20408388Y10074390D01*
X20402721Y10079440D01*
X20390432Y10085947D01*
X20271218Y10149067D01*
X20252881Y10158776D01*
X20088441Y10200081D01*
X20080843Y10200121D01*
X20080841Y10200121D01*
X20003668Y10200525D01*
X19918895Y10200969D01*
X19911508Y10199195D01*
X19911504Y10199195D01*
X19781481Y10167978D01*
X19754032Y10161388D01*
X19747288Y10157907D01*
X19747285Y10157906D01*
X19627808Y10096239D01*
X19603369Y10083625D01*
X19597647Y10078633D01*
X19597645Y10078632D01*
X19592780Y10074388D01*
X19475604Y9972169D01*
X19471237Y9965955D01*
X19410120Y9878994D01*
X19378113Y9833453D01*
X19316524Y9675487D01*
X19315532Y9667954D01*
X19315532Y9667953D01*
X19304606Y9584955D01*
X19294394Y9507389D01*
X18704751Y9507389D01*
X18703840Y9514920D01*
X18690639Y9624000D01*
X18685276Y9668320D01*
X18625345Y9826923D01*
X18581577Y9890605D01*
X18533614Y9960392D01*
X18533613Y9960393D01*
X18529312Y9966651D01*
X18517514Y9977163D01*
X18408392Y10074388D01*
X18408388Y10074390D01*
X18402721Y10079440D01*
X18390432Y10085947D01*
X18271218Y10149067D01*
X18252881Y10158776D01*
X18088441Y10200081D01*
X18080843Y10200121D01*
X18080841Y10200121D01*
X18003668Y10200525D01*
X17918895Y10200969D01*
X17911508Y10199195D01*
X17911504Y10199195D01*
X17781481Y10167978D01*
X17754032Y10161388D01*
X17747288Y10157907D01*
X17747285Y10157906D01*
X17680629Y10123502D01*
X17610921Y10110033D01*
X17580372Y10122246D01*
X17582698Y10106068D01*
X17553204Y10041488D01*
X17540809Y10029051D01*
X17475604Y9972169D01*
X17471237Y9965955D01*
X17410120Y9878994D01*
X17378113Y9833453D01*
X17316524Y9675487D01*
X17315532Y9667954D01*
X17315532Y9667953D01*
X17304606Y9584955D01*
X17294394Y9507389D01*
X8750000Y9507389D01*
X8750000Y9624000D01*
X8770002Y9692121D01*
X8823658Y9738614D01*
X8876000Y9750000D01*
X14250000Y9750000D01*
X15223396Y10236698D01*
X15279745Y10250000D01*
X17457980Y10250000D01*
X17501210Y10237307D01*
X17500451Y10250000D01*
X17500000Y10250000D01*
X17500000Y10534525D01*
X45187483Y10534525D01*
X45206472Y10317481D01*
X45208375Y10306688D01*
X45264764Y10096239D01*
X45268510Y10085947D01*
X45360586Y9888489D01*
X45366069Y9878994D01*
X45402509Y9826952D01*
X45412988Y9818576D01*
X45426434Y9825644D01*
X46127978Y10527188D01*
X46134356Y10538868D01*
X46864408Y10538868D01*
X46864539Y10537035D01*
X46868790Y10530420D01*
X47574287Y9824923D01*
X47586062Y9818493D01*
X47598077Y9827789D01*
X47633931Y9878994D01*
X47639414Y9888489D01*
X47731490Y10085947D01*
X47735236Y10096239D01*
X47791625Y10306688D01*
X47793528Y10317481D01*
X47812517Y10534525D01*
X47812517Y10545475D01*
X47810350Y10570246D01*
X60344967Y10570246D01*
X60358796Y10359251D01*
X60360217Y10353655D01*
X60360218Y10353650D01*
X60405440Y10175592D01*
X60410845Y10154310D01*
X60499369Y9962286D01*
X60621405Y9789609D01*
X60625539Y9785582D01*
X60731288Y9682566D01*
X60772865Y9642063D01*
X60777661Y9638858D01*
X60777664Y9638856D01*
X60858333Y9584955D01*
X60948677Y9524589D01*
X60953980Y9522310D01*
X60953985Y9522308D01*
X60971182Y9514920D01*
X61006768Y9499631D01*
X61061460Y9454364D01*
X61082998Y9386713D01*
X61064541Y9318158D01*
X61011951Y9270463D01*
X60996175Y9264099D01*
X60976868Y9257788D01*
X60967359Y9253791D01*
X60778466Y9155460D01*
X60769734Y9149961D01*
X60749677Y9134901D01*
X60741223Y9123573D01*
X60747968Y9111242D01*
X61487188Y8372022D01*
X61501132Y8364408D01*
X61502965Y8364539D01*
X61509580Y8368790D01*
X62253389Y9112599D01*
X62260410Y9125456D01*
X62253611Y9134787D01*
X62249554Y9137482D01*
X62063117Y9240401D01*
X62053705Y9244631D01*
X62002178Y9262878D01*
X61944642Y9304472D01*
X61918726Y9370570D01*
X61932660Y9440186D01*
X61982672Y9491585D01*
X62154442Y9587781D01*
X62317012Y9722988D01*
X62452219Y9885558D01*
X62455043Y9890601D01*
X62455046Y9890605D01*
X62552713Y10065002D01*
X62552714Y10065004D01*
X62555537Y10070045D01*
X62557393Y10075512D01*
X62557395Y10075517D01*
X62621647Y10264800D01*
X62623504Y10270270D01*
X62628785Y10306688D01*
X62653314Y10475860D01*
X62653314Y10475862D01*
X62653846Y10479530D01*
X62655429Y10540000D01*
X62636081Y10750560D01*
X62578686Y10954069D01*
X62567553Y10976646D01*
X62487719Y11138531D01*
X62485165Y11143710D01*
X62358651Y11313133D01*
X62243164Y11419888D01*
X62207622Y11452743D01*
X62207620Y11452745D01*
X62203381Y11456663D01*
X62058271Y11548221D01*
X62029434Y11566416D01*
X62029433Y11566416D01*
X62024554Y11569495D01*
X61828160Y11647848D01*
X61822503Y11648973D01*
X61822497Y11648975D01*
X61626442Y11687972D01*
X61626440Y11687972D01*
X61620775Y11689099D01*
X61615000Y11689175D01*
X61614996Y11689175D01*
X61508976Y11690563D01*
X61409346Y11691867D01*
X61403649Y11690888D01*
X61403648Y11690888D01*
X61206650Y11657038D01*
X61206649Y11657038D01*
X61200953Y11656059D01*
X61002575Y11582873D01*
X60997614Y11579921D01*
X60997613Y11579921D01*
X60867986Y11502801D01*
X60820856Y11474762D01*
X60661881Y11335345D01*
X60530976Y11169292D01*
X60528287Y11164181D01*
X60528285Y11164178D01*
X60514792Y11138531D01*
X60432523Y10982164D01*
X60369820Y10780227D01*
X60344967Y10570246D01*
X47810350Y10570246D01*
X47793528Y10762519D01*
X47791625Y10773312D01*
X47735236Y10983761D01*
X47731490Y10994053D01*
X47639414Y11191511D01*
X47633931Y11201006D01*
X47597491Y11253048D01*
X47587012Y11261424D01*
X47573566Y11254356D01*
X46872022Y10552812D01*
X46864408Y10538868D01*
X46134356Y10538868D01*
X46135592Y10541132D01*
X46135461Y10542965D01*
X46131210Y10549580D01*
X45425713Y11255077D01*
X45413938Y11261507D01*
X45401923Y11252211D01*
X45366069Y11201006D01*
X45360586Y11191511D01*
X45268510Y10994053D01*
X45264764Y10983761D01*
X45208375Y10773312D01*
X45206472Y10762519D01*
X45187483Y10545475D01*
X45187483Y10534525D01*
X17500000Y10534525D01*
X17500000Y12257389D01*
X22544394Y12257389D01*
X22562999Y12088865D01*
X22621266Y11929644D01*
X22625502Y11923341D01*
X22625502Y11923340D01*
X22638574Y11903887D01*
X22715830Y11788917D01*
X22721442Y11783810D01*
X22721445Y11783807D01*
X22835612Y11679923D01*
X22835616Y11679920D01*
X22841233Y11674809D01*
X22847906Y11671186D01*
X22847910Y11671183D01*
X22983558Y11597533D01*
X22983560Y11597532D01*
X22990235Y11593908D01*
X22997584Y11591980D01*
X23146883Y11552812D01*
X23146885Y11552812D01*
X23154233Y11550884D01*
X23240609Y11549527D01*
X23316161Y11548340D01*
X23316164Y11548340D01*
X23323760Y11548221D01*
X23331165Y11549917D01*
X23331166Y11549917D01*
X23403205Y11566416D01*
X23489029Y11586072D01*
X23570429Y11627012D01*
X45778576Y11627012D01*
X45785644Y11613566D01*
X46487188Y10912022D01*
X46501132Y10904408D01*
X46502965Y10904539D01*
X46509580Y10908790D01*
X47215077Y11614287D01*
X47221507Y11626062D01*
X47212211Y11638077D01*
X47161006Y11673931D01*
X47151511Y11679414D01*
X46954053Y11771490D01*
X46943761Y11775236D01*
X46733312Y11831625D01*
X46722519Y11833528D01*
X46505475Y11852517D01*
X46494525Y11852517D01*
X46277481Y11833528D01*
X46266688Y11831625D01*
X46056239Y11775236D01*
X46045947Y11771490D01*
X45848489Y11679414D01*
X45838994Y11673931D01*
X45786952Y11637491D01*
X45778576Y11627012D01*
X23570429Y11627012D01*
X23640498Y11662253D01*
X23769423Y11772366D01*
X23868361Y11910053D01*
X23878145Y11934391D01*
X23928766Y12060313D01*
X23928767Y12060315D01*
X23931601Y12067366D01*
X23955490Y12235222D01*
X23955645Y12250000D01*
X23954129Y12262532D01*
X23936188Y12410780D01*
X23935276Y12418320D01*
X23875345Y12576923D01*
X23818211Y12660053D01*
X23783614Y12710392D01*
X23783613Y12710393D01*
X23779312Y12716651D01*
X23755950Y12737466D01*
X23658392Y12824388D01*
X23658388Y12824390D01*
X23652721Y12829440D01*
X23634921Y12838865D01*
X23576989Y12869538D01*
X23502881Y12908776D01*
X23338441Y12950081D01*
X23330843Y12950121D01*
X23330841Y12950121D01*
X23253668Y12950525D01*
X23168895Y12950969D01*
X23161508Y12949195D01*
X23161504Y12949195D01*
X23018162Y12914780D01*
X23004032Y12911388D01*
X22997288Y12907907D01*
X22997285Y12907906D01*
X22992089Y12905224D01*
X22853369Y12833625D01*
X22725604Y12722169D01*
X22686901Y12667100D01*
X22682887Y12661388D01*
X22628113Y12583453D01*
X22566524Y12425487D01*
X22565532Y12417954D01*
X22565532Y12417953D01*
X22549770Y12298221D01*
X22544394Y12257389D01*
X17500000Y12257389D01*
X17500000Y13007389D01*
X36794394Y13007389D01*
X36812999Y12838865D01*
X36871266Y12679644D01*
X36875502Y12673341D01*
X36875502Y12673340D01*
X36885289Y12658776D01*
X36965830Y12538917D01*
X36971442Y12533810D01*
X36971445Y12533807D01*
X37085612Y12429923D01*
X37085616Y12429920D01*
X37091233Y12424809D01*
X37097906Y12421186D01*
X37097910Y12421183D01*
X37233558Y12347533D01*
X37233560Y12347532D01*
X37240235Y12343908D01*
X37247584Y12341980D01*
X37396883Y12302812D01*
X37396885Y12302812D01*
X37404233Y12300884D01*
X37490609Y12299527D01*
X37566161Y12298340D01*
X37566164Y12298340D01*
X37573760Y12298221D01*
X37581165Y12299917D01*
X37581166Y12299917D01*
X37643459Y12314184D01*
X37739029Y12336072D01*
X37890498Y12412253D01*
X38019423Y12522366D01*
X38118361Y12660053D01*
X38126237Y12679644D01*
X38178766Y12810313D01*
X38178767Y12810315D01*
X38181601Y12817366D01*
X38194610Y12908776D01*
X38204909Y12981138D01*
X38204909Y12981141D01*
X38205490Y12985222D01*
X38205645Y13000000D01*
X38203840Y13014920D01*
X38201004Y13038347D01*
X38185276Y13168320D01*
X38125345Y13326923D01*
X38052742Y13432561D01*
X38033614Y13460392D01*
X38033613Y13460393D01*
X38029312Y13466651D01*
X38017514Y13477163D01*
X37908392Y13574388D01*
X37908388Y13574390D01*
X37902721Y13579440D01*
X37752881Y13658776D01*
X37588441Y13700081D01*
X37580843Y13700121D01*
X37580841Y13700121D01*
X37503668Y13700525D01*
X37418895Y13700969D01*
X37411508Y13699195D01*
X37411504Y13699195D01*
X37268162Y13664780D01*
X37254032Y13661388D01*
X37247288Y13657907D01*
X37247285Y13657906D01*
X37242089Y13655224D01*
X37103369Y13583625D01*
X37097647Y13578633D01*
X37097645Y13578632D01*
X37026069Y13516192D01*
X36975604Y13472169D01*
X36878113Y13333453D01*
X36816524Y13175487D01*
X36794394Y13007389D01*
X17500000Y13007389D01*
X17500000Y14874000D01*
X17520002Y14942121D01*
X17573658Y14988614D01*
X17626000Y15000000D01*
X48596346Y15000000D01*
X48664467Y14979998D01*
G37*
%TD.AperFunction*%
%TD*%
M02*
