%TF.GenerationSoftware,KiCad,Pcbnew,(6.0.10)*%
%TF.CreationDate,2023-06-04T13:07:17-04:00*%
%TF.ProjectId,diff-probe,64696666-2d70-4726-9f62-652e6b696361,A*%
%TF.SameCoordinates,PX1f78a40PY3750280*%
%TF.FileFunction,Soldermask,Bot*%
%TF.FilePolarity,Negative*%
%FSLAX46Y46*%
G04 Gerber Fmt 4.6, Leading zero omitted, Abs format (unit mm)*
G04 Created by KiCad (PCBNEW (6.0.10)) date 2023-06-04 13:07:17*
%MOMM*%
%LPD*%
G01*
G04 APERTURE LIST*
G04 Aperture macros list*
%AMRoundRect*
0 Rectangle with rounded corners*
0 $1 Rounding radius*
0 $2 $3 $4 $5 $6 $7 $8 $9 X,Y pos of 4 corners*
0 Add a 4 corners polygon primitive as box body*
4,1,4,$2,$3,$4,$5,$6,$7,$8,$9,$2,$3,0*
0 Add four circle primitives for the rounded corners*
1,1,$1+$1,$2,$3*
1,1,$1+$1,$4,$5*
1,1,$1+$1,$6,$7*
1,1,$1+$1,$8,$9*
0 Add four rect primitives between the rounded corners*
20,1,$1+$1,$2,$3,$4,$5,0*
20,1,$1+$1,$4,$5,$6,$7,0*
20,1,$1+$1,$6,$7,$8,$9,0*
20,1,$1+$1,$8,$9,$2,$3,0*%
%AMHorizOval*
0 Thick line with rounded ends*
0 $1 width*
0 $2 $3 position (X,Y) of the first rounded end (center of the circle)*
0 $4 $5 position (X,Y) of the second rounded end (center of the circle)*
0 Add line between two ends*
20,1,$1,$2,$3,$4,$5,0*
0 Add two circle primitives to create the rounded ends*
1,1,$1,$2,$3*
1,1,$1,$4,$5*%
G04 Aperture macros list end*
%ADD10C,2.500000*%
%ADD11R,1.500000X0.450000*%
%ADD12O,7.000000X3.500000*%
%ADD13RoundRect,0.400000X-0.400000X0.400000X-0.400000X-0.400000X0.400000X-0.400000X0.400000X0.400000X0*%
%ADD14C,1.600000*%
%ADD15R,1.700000X1.700000*%
%ADD16O,1.700000X1.700000*%
%ADD17RoundRect,0.250000X-0.325000X-0.650000X0.325000X-0.650000X0.325000X0.650000X-0.325000X0.650000X0*%
%ADD18RoundRect,0.225000X-0.250000X0.225000X-0.250000X-0.225000X0.250000X-0.225000X0.250000X0.225000X0*%
%ADD19RoundRect,0.250000X0.325000X0.650000X-0.325000X0.650000X-0.325000X-0.650000X0.325000X-0.650000X0*%
%ADD20HorizOval,1.700000X0.000000X0.000000X0.000000X0.000000X0*%
%ADD21RoundRect,0.200000X-0.275000X0.200000X-0.275000X-0.200000X0.275000X-0.200000X0.275000X0.200000X0*%
G04 APERTURE END LIST*
D10*
%TO.C,H2*%
X42000000Y2750000D03*
%TD*%
%TO.C,H1*%
X42000000Y13250000D03*
%TD*%
D11*
%TO.C,D2*%
X64830000Y2000000D03*
X62170000Y2650000D03*
X62170000Y1350000D03*
%TD*%
%TO.C,D1*%
X62170000Y14000000D03*
X64830000Y13350000D03*
X64830000Y14650000D03*
%TD*%
D12*
%TO.C,J2*%
X53580000Y2920000D03*
X53580000Y13080000D03*
D13*
X48500000Y8000000D03*
D14*
X48500000Y10540000D03*
%TD*%
D15*
%TO.C,J1*%
X2000000Y6730000D03*
D16*
X2000000Y9270000D03*
%TD*%
D17*
%TO.C,C40*%
X33275000Y13250000D03*
X36225000Y13250000D03*
%TD*%
D18*
%TO.C,C13*%
X18000000Y5025000D03*
X18000000Y3475000D03*
%TD*%
D19*
%TO.C,C41*%
X33275000Y2750000D03*
X36225000Y2750000D03*
%TD*%
D18*
%TO.C,C23*%
X18000000Y12025000D03*
X18000000Y10475000D03*
%TD*%
%TO.C,C21*%
X20000000Y12025000D03*
X20000000Y10475000D03*
%TD*%
%TO.C,C33*%
X33750000Y8525000D03*
X33750000Y6975000D03*
%TD*%
D15*
%TO.C,J3*%
X63500000Y5460000D03*
D20*
X63500000Y8000000D03*
D16*
X63500000Y10540000D03*
%TD*%
D18*
%TO.C,C10*%
X23500000Y4275000D03*
X23500000Y2725000D03*
%TD*%
%TO.C,C11*%
X20000000Y5025000D03*
X20000000Y3475000D03*
%TD*%
%TO.C,C30*%
X39250000Y7275000D03*
X39250000Y5725000D03*
%TD*%
%TO.C,C22*%
X21750000Y11275000D03*
X21750000Y9725000D03*
%TD*%
D21*
%TO.C,R6*%
X14250000Y9325000D03*
X14250000Y7675000D03*
%TD*%
D18*
%TO.C,C31*%
X35750000Y8525000D03*
X35750000Y6975000D03*
%TD*%
%TO.C,C20*%
X23500000Y11275000D03*
X23500000Y9725000D03*
%TD*%
%TO.C,C32*%
X37500000Y7275000D03*
X37500000Y5725000D03*
%TD*%
%TO.C,C12*%
X21750000Y4275000D03*
X21750000Y2725000D03*
%TD*%
M02*
