%TF.GenerationSoftware,KiCad,Pcbnew,(6.0.10)*%
%TF.CreationDate,2023-06-03T07:50:41-04:00*%
%TF.ProjectId,diff-probe-soic,64696666-2d70-4726-9f62-652d736f6963,rev?*%
%TF.SameCoordinates,PX1f78a40PY3750280*%
%TF.FileFunction,Legend,Top*%
%TF.FilePolarity,Positive*%
%FSLAX46Y46*%
G04 Gerber Fmt 4.6, Leading zero omitted, Abs format (unit mm)*
G04 Created by KiCad (PCBNEW (6.0.10)) date 2023-06-03 07:50:41*
%MOMM*%
%LPD*%
G01*
G04 APERTURE LIST*
%ADD10C,0.150000*%
%ADD11C,0.120000*%
G04 APERTURE END LIST*
D10*
X31285714Y1047620D02*
X31285714Y2047620D01*
X31523809Y2047620D01*
X31666666Y2000000D01*
X31761904Y1904762D01*
X31809523Y1809524D01*
X31857142Y1619048D01*
X31857142Y1476191D01*
X31809523Y1285715D01*
X31761904Y1190477D01*
X31666666Y1095239D01*
X31523809Y1047620D01*
X31285714Y1047620D01*
X32285714Y1047620D02*
X32285714Y2047620D01*
X33095238Y1571429D02*
X32761904Y1571429D01*
X32761904Y1047620D02*
X32761904Y2047620D01*
X33238095Y2047620D01*
X33952380Y1571429D02*
X33619047Y1571429D01*
X33619047Y1047620D02*
X33619047Y2047620D01*
X34095238Y2047620D01*
X35238095Y1047620D02*
X35238095Y2047620D01*
X35619047Y2047620D01*
X35714285Y2000000D01*
X35761904Y1952381D01*
X35809523Y1857143D01*
X35809523Y1714286D01*
X35761904Y1619048D01*
X35714285Y1571429D01*
X35619047Y1523810D01*
X35238095Y1523810D01*
X36809523Y1047620D02*
X36476190Y1523810D01*
X36238095Y1047620D02*
X36238095Y2047620D01*
X36619047Y2047620D01*
X36714285Y2000000D01*
X36761904Y1952381D01*
X36809523Y1857143D01*
X36809523Y1714286D01*
X36761904Y1619048D01*
X36714285Y1571429D01*
X36619047Y1523810D01*
X36238095Y1523810D01*
X37428571Y2047620D02*
X37619047Y2047620D01*
X37714285Y2000000D01*
X37809523Y1904762D01*
X37857142Y1714286D01*
X37857142Y1380953D01*
X37809523Y1190477D01*
X37714285Y1095239D01*
X37619047Y1047620D01*
X37428571Y1047620D01*
X37333333Y1095239D01*
X37238095Y1190477D01*
X37190476Y1380953D01*
X37190476Y1714286D01*
X37238095Y1904762D01*
X37333333Y2000000D01*
X37428571Y2047620D01*
X38619047Y1571429D02*
X38761904Y1523810D01*
X38809523Y1476191D01*
X38857142Y1380953D01*
X38857142Y1238096D01*
X38809523Y1142858D01*
X38761904Y1095239D01*
X38666666Y1047620D01*
X38285714Y1047620D01*
X38285714Y2047620D01*
X38619047Y2047620D01*
X38714285Y2000000D01*
X38761904Y1952381D01*
X38809523Y1857143D01*
X38809523Y1761905D01*
X38761904Y1666667D01*
X38714285Y1619048D01*
X38619047Y1571429D01*
X38285714Y1571429D01*
X39285714Y1571429D02*
X39619047Y1571429D01*
X39761904Y1047620D02*
X39285714Y1047620D01*
X39285714Y2047620D01*
X39761904Y2047620D01*
X31059523Y13797620D02*
X31059523Y14797620D01*
X31440476Y14797620D01*
X31535714Y14750000D01*
X31583333Y14702381D01*
X31630952Y14607143D01*
X31630952Y14464286D01*
X31583333Y14369048D01*
X31535714Y14321429D01*
X31440476Y14273810D01*
X31059523Y14273810D01*
X32630952Y13892858D02*
X32583333Y13845239D01*
X32440476Y13797620D01*
X32345238Y13797620D01*
X32202380Y13845239D01*
X32107142Y13940477D01*
X32059523Y14035715D01*
X32011904Y14226191D01*
X32011904Y14369048D01*
X32059523Y14559524D01*
X32107142Y14654762D01*
X32202380Y14750000D01*
X32345238Y14797620D01*
X32440476Y14797620D01*
X32583333Y14750000D01*
X32630952Y14702381D01*
X33392857Y14321429D02*
X33535714Y14273810D01*
X33583333Y14226191D01*
X33630952Y14130953D01*
X33630952Y13988096D01*
X33583333Y13892858D01*
X33535714Y13845239D01*
X33440476Y13797620D01*
X33059523Y13797620D01*
X33059523Y14797620D01*
X33392857Y14797620D01*
X33488095Y14750000D01*
X33535714Y14702381D01*
X33583333Y14607143D01*
X33583333Y14511905D01*
X33535714Y14416667D01*
X33488095Y14369048D01*
X33392857Y14321429D01*
X33059523Y14321429D01*
X34583333Y13797620D02*
X34011904Y13797620D01*
X34297619Y13797620D02*
X34297619Y14797620D01*
X34202380Y14654762D01*
X34107142Y14559524D01*
X34011904Y14511905D01*
X35202380Y14797620D02*
X35297619Y14797620D01*
X35392857Y14750000D01*
X35440476Y14702381D01*
X35488095Y14607143D01*
X35535714Y14416667D01*
X35535714Y14178572D01*
X35488095Y13988096D01*
X35440476Y13892858D01*
X35392857Y13845239D01*
X35297619Y13797620D01*
X35202380Y13797620D01*
X35107142Y13845239D01*
X35059523Y13892858D01*
X35011904Y13988096D01*
X34964285Y14178572D01*
X34964285Y14416667D01*
X35011904Y14607143D01*
X35059523Y14702381D01*
X35107142Y14750000D01*
X35202380Y14797620D01*
X35916666Y14702381D02*
X35964285Y14750000D01*
X36059523Y14797620D01*
X36297619Y14797620D01*
X36392857Y14750000D01*
X36440476Y14702381D01*
X36488095Y14607143D01*
X36488095Y14511905D01*
X36440476Y14369048D01*
X35869047Y13797620D01*
X36488095Y13797620D01*
X38250000Y13797620D02*
X37916666Y14273810D01*
X37678571Y13797620D02*
X37678571Y14797620D01*
X38059523Y14797620D01*
X38154761Y14750000D01*
X38202380Y14702381D01*
X38250000Y14607143D01*
X38250000Y14464286D01*
X38202380Y14369048D01*
X38154761Y14321429D01*
X38059523Y14273810D01*
X37678571Y14273810D01*
X39059523Y13845239D02*
X38964285Y13797620D01*
X38773809Y13797620D01*
X38678571Y13845239D01*
X38630952Y13940477D01*
X38630952Y14321429D01*
X38678571Y14416667D01*
X38773809Y14464286D01*
X38964285Y14464286D01*
X39059523Y14416667D01*
X39107142Y14321429D01*
X39107142Y14226191D01*
X38630952Y14130953D01*
X39440476Y14464286D02*
X39678571Y13797620D01*
X39916666Y14464286D01*
X41011904Y14083334D02*
X41488095Y14083334D01*
X40916666Y13797620D02*
X41250000Y14797620D01*
X41583333Y13797620D01*
X4750000Y5000000D02*
X3250000Y5000000D01*
X65750000Y13500000D02*
X63750000Y13500000D01*
X4000000Y5750000D02*
X4000000Y4250000D01*
X4000000Y11750000D02*
X4000000Y10250000D01*
X64750000Y14500000D02*
X64750000Y12500000D01*
D11*
X64750000Y3500000D02*
X64750000Y1500000D01*
D10*
X64000000Y6857143D02*
X63928571Y6714286D01*
X63928571Y6500000D01*
X64000000Y6285715D01*
X64142857Y6142858D01*
X64285714Y6071429D01*
X64571428Y6000000D01*
X64785714Y6000000D01*
X65071428Y6071429D01*
X65214285Y6142858D01*
X65357142Y6285715D01*
X65428571Y6500000D01*
X65428571Y6642858D01*
X65357142Y6857143D01*
X65285714Y6928572D01*
X64785714Y6928572D01*
X64785714Y6642858D01*
X65428571Y7571429D02*
X63928571Y7571429D01*
X65428571Y8428572D01*
X63928571Y8428572D01*
X65428571Y9142858D02*
X63928571Y9142858D01*
X63928571Y9500000D01*
X64000000Y9714286D01*
X64142857Y9857143D01*
X64285714Y9928572D01*
X64571428Y10000000D01*
X64785714Y10000000D01*
X65071428Y9928572D01*
X65214285Y9857143D01*
X65357142Y9714286D01*
X65428571Y9500000D01*
X65428571Y9142858D01*
%TO.C,U1*%
X17238095Y1547620D02*
X17238095Y738096D01*
X17285714Y642858D01*
X17333333Y595239D01*
X17428571Y547620D01*
X17619047Y547620D01*
X17714285Y595239D01*
X17761904Y642858D01*
X17809523Y738096D01*
X17809523Y1547620D01*
X18809523Y547620D02*
X18238095Y547620D01*
X18523809Y547620D02*
X18523809Y1547620D01*
X18428571Y1404762D01*
X18333333Y1309524D01*
X18238095Y1261905D01*
%TO.C,U2*%
X17238095Y15547620D02*
X17238095Y14738096D01*
X17285714Y14642858D01*
X17333333Y14595239D01*
X17428571Y14547620D01*
X17619047Y14547620D01*
X17714285Y14595239D01*
X17761904Y14642858D01*
X17809523Y14738096D01*
X17809523Y15547620D01*
X18238095Y15452381D02*
X18285714Y15500000D01*
X18380952Y15547620D01*
X18619047Y15547620D01*
X18714285Y15500000D01*
X18761904Y15452381D01*
X18809523Y15357143D01*
X18809523Y15261905D01*
X18761904Y15119048D01*
X18190476Y14547620D01*
X18809523Y14547620D01*
%TO.C,U3*%
X33988095Y11947620D02*
X33988095Y11138096D01*
X34035714Y11042858D01*
X34083333Y10995239D01*
X34178571Y10947620D01*
X34369047Y10947620D01*
X34464285Y10995239D01*
X34511904Y11042858D01*
X34559523Y11138096D01*
X34559523Y11947620D01*
X34940476Y11947620D02*
X35559523Y11947620D01*
X35226190Y11566667D01*
X35369047Y11566667D01*
X35464285Y11519048D01*
X35511904Y11471429D01*
X35559523Y11376191D01*
X35559523Y11138096D01*
X35511904Y11042858D01*
X35464285Y10995239D01*
X35369047Y10947620D01*
X35083333Y10947620D01*
X34988095Y10995239D01*
X34940476Y11042858D01*
%TO.C,J2*%
X42452380Y1666667D02*
X43166666Y1666667D01*
X43309523Y1619048D01*
X43404761Y1523810D01*
X43452380Y1380953D01*
X43452380Y1285715D01*
X42547619Y2095239D02*
X42500000Y2142858D01*
X42452380Y2238096D01*
X42452380Y2476191D01*
X42500000Y2571429D01*
X42547619Y2619048D01*
X42642857Y2666667D01*
X42738095Y2666667D01*
X42880952Y2619048D01*
X43452380Y2047620D01*
X43452380Y2666667D01*
%TO.C,R7*%
X13952380Y10083334D02*
X13476190Y9750000D01*
X13952380Y9511905D02*
X12952380Y9511905D01*
X12952380Y9892858D01*
X13000000Y9988096D01*
X13047619Y10035715D01*
X13142857Y10083334D01*
X13285714Y10083334D01*
X13380952Y10035715D01*
X13428571Y9988096D01*
X13476190Y9892858D01*
X13476190Y9511905D01*
X12952380Y10416667D02*
X12952380Y11083334D01*
X13952380Y10654762D01*
%TO.C,C6*%
X29107142Y12583334D02*
X29154761Y12535715D01*
X29202380Y12392858D01*
X29202380Y12297620D01*
X29154761Y12154762D01*
X29059523Y12059524D01*
X28964285Y12011905D01*
X28773809Y11964286D01*
X28630952Y11964286D01*
X28440476Y12011905D01*
X28345238Y12059524D01*
X28250000Y12154762D01*
X28202380Y12297620D01*
X28202380Y12392858D01*
X28250000Y12535715D01*
X28297619Y12583334D01*
X28202380Y13440477D02*
X28202380Y13250000D01*
X28250000Y13154762D01*
X28297619Y13107143D01*
X28440476Y13011905D01*
X28630952Y12964286D01*
X29011904Y12964286D01*
X29107142Y13011905D01*
X29154761Y13059524D01*
X29202380Y13154762D01*
X29202380Y13345239D01*
X29154761Y13440477D01*
X29107142Y13488096D01*
X29011904Y13535715D01*
X28773809Y13535715D01*
X28678571Y13488096D01*
X28630952Y13440477D01*
X28583333Y13345239D01*
X28583333Y13154762D01*
X28630952Y13059524D01*
X28678571Y13011905D01*
X28773809Y12964286D01*
%TO.C,C5*%
X29107142Y2333334D02*
X29154761Y2285715D01*
X29202380Y2142858D01*
X29202380Y2047620D01*
X29154761Y1904762D01*
X29059523Y1809524D01*
X28964285Y1761905D01*
X28773809Y1714286D01*
X28630952Y1714286D01*
X28440476Y1761905D01*
X28345238Y1809524D01*
X28250000Y1904762D01*
X28202380Y2047620D01*
X28202380Y2142858D01*
X28250000Y2285715D01*
X28297619Y2333334D01*
X28202380Y3238096D02*
X28202380Y2761905D01*
X28678571Y2714286D01*
X28630952Y2761905D01*
X28583333Y2857143D01*
X28583333Y3095239D01*
X28630952Y3190477D01*
X28678571Y3238096D01*
X28773809Y3285715D01*
X29011904Y3285715D01*
X29107142Y3238096D01*
X29154761Y3190477D01*
X29202380Y3095239D01*
X29202380Y2857143D01*
X29154761Y2761905D01*
X29107142Y2714286D01*
%TO.C,R9*%
X27452380Y2333334D02*
X26976190Y2000000D01*
X27452380Y1761905D02*
X26452380Y1761905D01*
X26452380Y2142858D01*
X26500000Y2238096D01*
X26547619Y2285715D01*
X26642857Y2333334D01*
X26785714Y2333334D01*
X26880952Y2285715D01*
X26928571Y2238096D01*
X26976190Y2142858D01*
X26976190Y1761905D01*
X27452380Y2809524D02*
X27452380Y3000000D01*
X27404761Y3095239D01*
X27357142Y3142858D01*
X27214285Y3238096D01*
X27023809Y3285715D01*
X26642857Y3285715D01*
X26547619Y3238096D01*
X26500000Y3190477D01*
X26452380Y3095239D01*
X26452380Y2904762D01*
X26500000Y2809524D01*
X26547619Y2761905D01*
X26642857Y2714286D01*
X26880952Y2714286D01*
X26976190Y2761905D01*
X27023809Y2809524D01*
X27071428Y2904762D01*
X27071428Y3095239D01*
X27023809Y3190477D01*
X26976190Y3238096D01*
X26880952Y3285715D01*
%TO.C,R11*%
X27202380Y12607143D02*
X26726190Y12273810D01*
X27202380Y12035715D02*
X26202380Y12035715D01*
X26202380Y12416667D01*
X26250000Y12511905D01*
X26297619Y12559524D01*
X26392857Y12607143D01*
X26535714Y12607143D01*
X26630952Y12559524D01*
X26678571Y12511905D01*
X26726190Y12416667D01*
X26726190Y12035715D01*
X27202380Y13559524D02*
X27202380Y12988096D01*
X27202380Y13273810D02*
X26202380Y13273810D01*
X26345238Y13178572D01*
X26440476Y13083334D01*
X26488095Y12988096D01*
X27202380Y14511905D02*
X27202380Y13940477D01*
X27202380Y14226191D02*
X26202380Y14226191D01*
X26345238Y14130953D01*
X26440476Y14035715D01*
X26488095Y13940477D01*
%TO.C,R8*%
X25702380Y2333334D02*
X25226190Y2000000D01*
X25702380Y1761905D02*
X24702380Y1761905D01*
X24702380Y2142858D01*
X24750000Y2238096D01*
X24797619Y2285715D01*
X24892857Y2333334D01*
X25035714Y2333334D01*
X25130952Y2285715D01*
X25178571Y2238096D01*
X25226190Y2142858D01*
X25226190Y1761905D01*
X25130952Y2904762D02*
X25083333Y2809524D01*
X25035714Y2761905D01*
X24940476Y2714286D01*
X24892857Y2714286D01*
X24797619Y2761905D01*
X24750000Y2809524D01*
X24702380Y2904762D01*
X24702380Y3095239D01*
X24750000Y3190477D01*
X24797619Y3238096D01*
X24892857Y3285715D01*
X24940476Y3285715D01*
X25035714Y3238096D01*
X25083333Y3190477D01*
X25130952Y3095239D01*
X25130952Y2904762D01*
X25178571Y2809524D01*
X25226190Y2761905D01*
X25321428Y2714286D01*
X25511904Y2714286D01*
X25607142Y2761905D01*
X25654761Y2809524D01*
X25702380Y2904762D01*
X25702380Y3095239D01*
X25654761Y3190477D01*
X25607142Y3238096D01*
X25511904Y3285715D01*
X25321428Y3285715D01*
X25226190Y3238096D01*
X25178571Y3190477D01*
X25130952Y3095239D01*
%TO.C,R12*%
X41357142Y9297620D02*
X41023809Y9773810D01*
X40785714Y9297620D02*
X40785714Y10297620D01*
X41166666Y10297620D01*
X41261904Y10250000D01*
X41309523Y10202381D01*
X41357142Y10107143D01*
X41357142Y9964286D01*
X41309523Y9869048D01*
X41261904Y9821429D01*
X41166666Y9773810D01*
X40785714Y9773810D01*
X42309523Y9297620D02*
X41738095Y9297620D01*
X42023809Y9297620D02*
X42023809Y10297620D01*
X41928571Y10154762D01*
X41833333Y10059524D01*
X41738095Y10011905D01*
X42690476Y10202381D02*
X42738095Y10250000D01*
X42833333Y10297620D01*
X43071428Y10297620D01*
X43166666Y10250000D01*
X43214285Y10202381D01*
X43261904Y10107143D01*
X43261904Y10011905D01*
X43214285Y9869048D01*
X42642857Y9297620D01*
X43261904Y9297620D01*
%TO.C,R10*%
X25202380Y12607143D02*
X24726190Y12273810D01*
X25202380Y12035715D02*
X24202380Y12035715D01*
X24202380Y12416667D01*
X24250000Y12511905D01*
X24297619Y12559524D01*
X24392857Y12607143D01*
X24535714Y12607143D01*
X24630952Y12559524D01*
X24678571Y12511905D01*
X24726190Y12416667D01*
X24726190Y12035715D01*
X25202380Y13559524D02*
X25202380Y12988096D01*
X25202380Y13273810D02*
X24202380Y13273810D01*
X24345238Y13178572D01*
X24440476Y13083334D01*
X24488095Y12988096D01*
X24202380Y14178572D02*
X24202380Y14273810D01*
X24250000Y14369048D01*
X24297619Y14416667D01*
X24392857Y14464286D01*
X24583333Y14511905D01*
X24821428Y14511905D01*
X25011904Y14464286D01*
X25107142Y14416667D01*
X25154761Y14369048D01*
X25202380Y14273810D01*
X25202380Y14178572D01*
X25154761Y14083334D01*
X25107142Y14035715D01*
X25011904Y13988096D01*
X24821428Y13940477D01*
X24583333Y13940477D01*
X24392857Y13988096D01*
X24297619Y14035715D01*
X24250000Y14083334D01*
X24202380Y14178572D01*
%TO.C,R5*%
X13952380Y2833334D02*
X13476190Y2500000D01*
X13952380Y2261905D02*
X12952380Y2261905D01*
X12952380Y2642858D01*
X13000000Y2738096D01*
X13047619Y2785715D01*
X13142857Y2833334D01*
X13285714Y2833334D01*
X13380952Y2785715D01*
X13428571Y2738096D01*
X13476190Y2642858D01*
X13476190Y2261905D01*
X12952380Y3738096D02*
X12952380Y3261905D01*
X13428571Y3214286D01*
X13380952Y3261905D01*
X13333333Y3357143D01*
X13333333Y3595239D01*
X13380952Y3690477D01*
X13428571Y3738096D01*
X13523809Y3785715D01*
X13761904Y3785715D01*
X13857142Y3738096D01*
X13904761Y3690477D01*
X13952380Y3595239D01*
X13952380Y3357143D01*
X13904761Y3261905D01*
X13857142Y3214286D01*
D11*
%TO.C,U1*%
X19000000Y1940000D02*
X17050000Y1940000D01*
X19000000Y7060000D02*
X20950000Y7060000D01*
X19000000Y1940000D02*
X20950000Y1940000D01*
X19000000Y7060000D02*
X17050000Y7060000D01*
D10*
X16500000Y7500000D02*
G75*
G03*
X16500000Y7500000I-200000J0D01*
G01*
D11*
%TO.C,U2*%
X19000000Y8940000D02*
X17050000Y8940000D01*
X19000000Y14060000D02*
X20950000Y14060000D01*
X19000000Y8940000D02*
X20950000Y8940000D01*
X19000000Y14060000D02*
X17050000Y14060000D01*
D10*
X16500000Y14500000D02*
G75*
G03*
X16500000Y14500000I-200000J0D01*
G01*
D11*
%TO.C,U3*%
X34750000Y5440000D02*
X32800000Y5440000D01*
X34750000Y10560000D02*
X36700000Y10560000D01*
X34750000Y5440000D02*
X36700000Y5440000D01*
X34750000Y10560000D02*
X32800000Y10560000D01*
D10*
X32250000Y11000000D02*
G75*
G03*
X32250000Y11000000I-200000J0D01*
G01*
D11*
%TO.C,J2*%
X58900000Y15400000D02*
X58900000Y600000D01*
X58900000Y600000D02*
X44000000Y600000D01*
X58600000Y8000000D02*
X57600000Y7000000D01*
X44000000Y15400000D02*
X58900000Y15400000D01*
X44000000Y600000D02*
X44000000Y15400000D01*
X58600000Y8000000D02*
X57600000Y9000000D01*
%TO.C,R3*%
X6272500Y9762742D02*
X6272500Y10237258D01*
X5227500Y9762742D02*
X5227500Y10237258D01*
%TO.C,C4*%
X9240000Y10140580D02*
X9240000Y9859420D01*
X10260000Y10140580D02*
X10260000Y9859420D01*
%TO.C,R7*%
X12977500Y13102258D02*
X12977500Y12627742D01*
X14022500Y13102258D02*
X14022500Y12627742D01*
%TO.C,C6*%
X28240000Y9859420D02*
X28240000Y10140580D01*
X29260000Y9859420D02*
X29260000Y10140580D01*
%TO.C,C1*%
X8010000Y6140580D02*
X8010000Y5859420D01*
X6990000Y6140580D02*
X6990000Y5859420D01*
%TO.C,R4*%
X10977500Y9762742D02*
X10977500Y10237258D01*
X12022500Y9762742D02*
X12022500Y10237258D01*
%TO.C,R2*%
X10977500Y6237258D02*
X10977500Y5762742D01*
X12022500Y6237258D02*
X12022500Y5762742D01*
%TO.C,C2*%
X9240000Y5859420D02*
X9240000Y6140580D01*
X10260000Y5859420D02*
X10260000Y6140580D01*
%TO.C,C5*%
X28240000Y6390580D02*
X28240000Y6109420D01*
X29260000Y6390580D02*
X29260000Y6109420D01*
%TO.C,R9*%
X27272500Y6487258D02*
X27272500Y6012742D01*
X26227500Y6487258D02*
X26227500Y6012742D01*
%TO.C,R1*%
X5227500Y6237258D02*
X5227500Y5762742D01*
X6272500Y6237258D02*
X6272500Y5762742D01*
%TO.C,R11*%
X27197500Y9762742D02*
X27197500Y10237258D01*
X26152500Y9762742D02*
X26152500Y10237258D01*
%TO.C,J1*%
X3330000Y8000000D02*
X3330000Y10600000D01*
X3330000Y8000000D02*
X670000Y8000000D01*
X3330000Y5400000D02*
X2000000Y5400000D01*
X3330000Y6730000D02*
X3330000Y5400000D01*
X3330000Y10600000D02*
X670000Y10600000D01*
X670000Y8000000D02*
X670000Y10600000D01*
%TO.C,R8*%
X24227500Y6012742D02*
X24227500Y6487258D01*
X25272500Y6012742D02*
X25272500Y6487258D01*
%TO.C,R12*%
X41762742Y7477500D02*
X42237258Y7477500D01*
X41762742Y8522500D02*
X42237258Y8522500D01*
%TO.C,C3*%
X8010000Y9859420D02*
X8010000Y10140580D01*
X6990000Y9859420D02*
X6990000Y10140580D01*
%TO.C,R10*%
X25197500Y10237258D02*
X25197500Y9762742D01*
X24152500Y10237258D02*
X24152500Y9762742D01*
%TO.C,R5*%
X12977500Y5512742D02*
X12977500Y5987258D01*
X14022500Y5512742D02*
X14022500Y5987258D01*
%TD*%
M02*
