%TF.GenerationSoftware,KiCad,Pcbnew,(6.0.10)*%
%TF.CreationDate,2023-06-03T07:50:41-04:00*%
%TF.ProjectId,diff-probe-soic,64696666-2d70-4726-9f62-652d736f6963,rev?*%
%TF.SameCoordinates,PX1f78a40PY3750280*%
%TF.FileFunction,Copper,L3,Inr*%
%TF.FilePolarity,Positive*%
%FSLAX46Y46*%
G04 Gerber Fmt 4.6, Leading zero omitted, Abs format (unit mm)*
G04 Created by KiCad (PCBNEW (6.0.10)) date 2023-06-03 07:50:41*
%MOMM*%
%LPD*%
G01*
G04 APERTURE LIST*
G04 Aperture macros list*
%AMRoundRect*
0 Rectangle with rounded corners*
0 $1 Rounding radius*
0 $2 $3 $4 $5 $6 $7 $8 $9 X,Y pos of 4 corners*
0 Add a 4 corners polygon primitive as box body*
4,1,4,$2,$3,$4,$5,$6,$7,$8,$9,$2,$3,0*
0 Add four circle primitives for the rounded corners*
1,1,$1+$1,$2,$3*
1,1,$1+$1,$4,$5*
1,1,$1+$1,$6,$7*
1,1,$1+$1,$8,$9*
0 Add four rect primitives between the rounded corners*
20,1,$1+$1,$2,$3,$4,$5,0*
20,1,$1+$1,$4,$5,$6,$7,0*
20,1,$1+$1,$6,$7,$8,$9,0*
20,1,$1+$1,$8,$9,$2,$3,0*%
%AMHorizOval*
0 Thick line with rounded ends*
0 $1 width*
0 $2 $3 position (X,Y) of the first rounded end (center of the circle)*
0 $4 $5 position (X,Y) of the second rounded end (center of the circle)*
0 Add line between two ends*
20,1,$1,$2,$3,$4,$5,0*
0 Add two circle primitives to create the rounded ends*
1,1,$1,$2,$3*
1,1,$1,$4,$5*%
G04 Aperture macros list end*
%TA.AperFunction,ComponentPad*%
%ADD10O,7.000000X3.500000*%
%TD*%
%TA.AperFunction,ComponentPad*%
%ADD11RoundRect,0.400000X-0.400000X0.400000X-0.400000X-0.400000X0.400000X-0.400000X0.400000X0.400000X0*%
%TD*%
%TA.AperFunction,ComponentPad*%
%ADD12C,1.600000*%
%TD*%
%TA.AperFunction,ComponentPad*%
%ADD13R,1.700000X1.700000*%
%TD*%
%TA.AperFunction,ComponentPad*%
%ADD14O,1.700000X1.700000*%
%TD*%
%TA.AperFunction,ComponentPad*%
%ADD15HorizOval,1.700000X0.000000X0.000000X0.000000X0.000000X0*%
%TD*%
%TA.AperFunction,ViaPad*%
%ADD16C,0.800000*%
%TD*%
G04 APERTURE END LIST*
D10*
%TO.N,*%
%TO.C,J2*%
X51580000Y2920000D03*
X51580000Y13080000D03*
D11*
%TO.N,/OUT*%
X46500000Y8000000D03*
D12*
%TO.N,GND*%
X46500000Y10540000D03*
%TD*%
D13*
%TO.N,/IN_POS*%
%TO.C,J1*%
X2000000Y6730000D03*
D14*
%TO.N,/IN_NEG*%
X2000000Y9270000D03*
%TD*%
D13*
%TO.N,/NEG*%
%TO.C,J3*%
X61500000Y5460000D03*
D15*
%TO.N,GND*%
X61500000Y8000000D03*
D14*
%TO.N,/POS*%
X61500000Y10540000D03*
%TD*%
D16*
%TO.N,VSS*%
X58500000Y2750000D03*
%TO.N,VDD*%
X58500000Y13000000D03*
%TO.N,GND*%
X39250000Y4750000D03*
X18000000Y13000000D03*
X9750000Y8050000D03*
X23500000Y1500000D03*
X21750000Y1500000D03*
X20000000Y6000000D03*
X23500000Y8500000D03*
X21750000Y8500000D03*
X26750000Y4250000D03*
X37500000Y4750000D03*
X28750000Y4250000D03*
X18000000Y6000000D03*
X32000000Y13000000D03*
X32000000Y3000000D03*
X33750000Y9500000D03*
X35750000Y9500000D03*
X20000000Y13000000D03*
X11500000Y8100000D03*
%TO.N,VSS*%
X37500000Y3000000D03*
X18000000Y2500000D03*
X20000000Y9500000D03*
X58500000Y1500000D03*
X18000000Y9500000D03*
X35750000Y6000000D03*
X20000000Y2500000D03*
X33750000Y6000000D03*
%TO.N,VDD*%
X58500000Y14500000D03*
X23250000Y5250000D03*
X39000000Y8600000D03*
X37500000Y13000000D03*
X23250000Y12250000D03*
%TO.N,/FB_POS*%
X14750000Y5000000D03*
%TO.N,/FB_NEG*%
X14750000Y12000000D03*
%TD*%
%TA.AperFunction,Conductor*%
%TO.N,VSS*%
G36*
X21192121Y14979998D02*
G01*
X21238614Y14926342D01*
X21250000Y14874000D01*
X21250000Y9046267D01*
X21229998Y8978146D01*
X21225493Y8972247D01*
X21225604Y8972169D01*
X21128113Y8833453D01*
X21066524Y8675487D01*
X21065532Y8667954D01*
X21065532Y8667953D01*
X21054641Y8585222D01*
X21044394Y8507389D01*
X21062999Y8338865D01*
X21121266Y8179644D01*
X21125502Y8173341D01*
X21125502Y8173340D01*
X21140617Y8150847D01*
X21215830Y8038917D01*
X21219778Y8035325D01*
X21248751Y7971564D01*
X21250000Y7953868D01*
X21250000Y4750000D01*
X22500000Y3500000D01*
X26000000Y3500000D01*
X26000000Y3701551D01*
X26020002Y3769672D01*
X26073658Y3816165D01*
X26143932Y3826269D01*
X26208512Y3796775D01*
X26214747Y3790529D01*
X26215830Y3788917D01*
X26221446Y3783807D01*
X26221448Y3783805D01*
X26335612Y3679923D01*
X26335616Y3679920D01*
X26341233Y3674809D01*
X26347906Y3671186D01*
X26347910Y3671183D01*
X26483558Y3597533D01*
X26483560Y3597532D01*
X26490235Y3593908D01*
X26497584Y3591980D01*
X26646883Y3552812D01*
X26646885Y3552812D01*
X26654233Y3550884D01*
X26740609Y3549527D01*
X26816161Y3548340D01*
X26816164Y3548340D01*
X26823760Y3548221D01*
X26831165Y3549917D01*
X26831166Y3549917D01*
X26938013Y3574388D01*
X26989029Y3586072D01*
X27140498Y3662253D01*
X27253072Y3758401D01*
X27263651Y3767436D01*
X27263652Y3767437D01*
X27269423Y3772366D01*
X27368361Y3910053D01*
X27376237Y3929644D01*
X27428766Y4060313D01*
X27428767Y4060315D01*
X27431601Y4067366D01*
X27455490Y4235222D01*
X27455645Y4250000D01*
X27454751Y4257389D01*
X28044394Y4257389D01*
X28062999Y4088865D01*
X28121266Y3929644D01*
X28125502Y3923341D01*
X28125502Y3923340D01*
X28138574Y3903887D01*
X28215830Y3788917D01*
X28221442Y3783810D01*
X28221445Y3783807D01*
X28335612Y3679923D01*
X28335616Y3679920D01*
X28341233Y3674809D01*
X28347906Y3671186D01*
X28347910Y3671183D01*
X28483558Y3597533D01*
X28483560Y3597532D01*
X28490235Y3593908D01*
X28497584Y3591980D01*
X28646883Y3552812D01*
X28646885Y3552812D01*
X28654233Y3550884D01*
X28740609Y3549527D01*
X28816161Y3548340D01*
X28816164Y3548340D01*
X28823760Y3548221D01*
X28831165Y3549917D01*
X28831166Y3549917D01*
X28938013Y3574388D01*
X28989029Y3586072D01*
X29140498Y3662253D01*
X29253072Y3758401D01*
X29263651Y3767436D01*
X29263652Y3767437D01*
X29269423Y3772366D01*
X29368361Y3910053D01*
X29376237Y3929644D01*
X29428766Y4060313D01*
X29428767Y4060315D01*
X29431601Y4067366D01*
X29455490Y4235222D01*
X29455645Y4250000D01*
X29453840Y4264920D01*
X29450570Y4291936D01*
X29435276Y4418320D01*
X29375345Y4576923D01*
X29366584Y4589670D01*
X29283614Y4710392D01*
X29283613Y4710393D01*
X29279312Y4716651D01*
X29267514Y4727163D01*
X29233589Y4757389D01*
X36794394Y4757389D01*
X36812999Y4588865D01*
X36834172Y4531008D01*
X36864576Y4447926D01*
X36871266Y4429644D01*
X36875502Y4423341D01*
X36875502Y4423340D01*
X36888574Y4403887D01*
X36965830Y4288917D01*
X36971442Y4283810D01*
X36971445Y4283807D01*
X37085612Y4179923D01*
X37085616Y4179920D01*
X37091233Y4174809D01*
X37097906Y4171186D01*
X37097910Y4171183D01*
X37233558Y4097533D01*
X37233560Y4097532D01*
X37240235Y4093908D01*
X37247584Y4091980D01*
X37396883Y4052812D01*
X37396885Y4052812D01*
X37404233Y4050884D01*
X37490609Y4049527D01*
X37566161Y4048340D01*
X37566164Y4048340D01*
X37573760Y4048221D01*
X37581165Y4049917D01*
X37581166Y4049917D01*
X37666343Y4069425D01*
X37739029Y4086072D01*
X37890498Y4162253D01*
X37969713Y4229910D01*
X38013651Y4267436D01*
X38013652Y4267437D01*
X38019423Y4272366D01*
X38118361Y4410053D01*
X38124540Y4425423D01*
X38178766Y4560313D01*
X38178767Y4560315D01*
X38181601Y4567366D01*
X38203566Y4721704D01*
X38204909Y4731138D01*
X38204909Y4731141D01*
X38205490Y4735222D01*
X38205645Y4750000D01*
X38204751Y4757389D01*
X38544394Y4757389D01*
X38562999Y4588865D01*
X38584172Y4531008D01*
X38614576Y4447926D01*
X38621266Y4429644D01*
X38625502Y4423341D01*
X38625502Y4423340D01*
X38638574Y4403887D01*
X38715830Y4288917D01*
X38721442Y4283810D01*
X38721445Y4283807D01*
X38835612Y4179923D01*
X38835616Y4179920D01*
X38841233Y4174809D01*
X38847906Y4171186D01*
X38847910Y4171183D01*
X38983558Y4097533D01*
X38983560Y4097532D01*
X38990235Y4093908D01*
X38997584Y4091980D01*
X39146883Y4052812D01*
X39146885Y4052812D01*
X39154233Y4050884D01*
X39240609Y4049527D01*
X39316161Y4048340D01*
X39316164Y4048340D01*
X39323760Y4048221D01*
X39331165Y4049917D01*
X39331166Y4049917D01*
X39416343Y4069425D01*
X39489029Y4086072D01*
X39640498Y4162253D01*
X39719713Y4229910D01*
X39763651Y4267436D01*
X39763652Y4267437D01*
X39769423Y4272366D01*
X39868361Y4410053D01*
X39874540Y4425423D01*
X39928766Y4560313D01*
X39928767Y4560315D01*
X39931601Y4567366D01*
X39953566Y4721704D01*
X39954909Y4731138D01*
X39954909Y4731141D01*
X39955490Y4735222D01*
X39955645Y4750000D01*
X39953840Y4764920D01*
X39943573Y4849758D01*
X39935276Y4918320D01*
X39875345Y5076923D01*
X39812529Y5168320D01*
X39783614Y5210392D01*
X39783613Y5210393D01*
X39779312Y5216651D01*
X39767514Y5227163D01*
X39658392Y5324388D01*
X39658388Y5324390D01*
X39652721Y5329440D01*
X39640196Y5336072D01*
X39562571Y5377172D01*
X39502881Y5408776D01*
X39338441Y5450081D01*
X39330843Y5450121D01*
X39330841Y5450121D01*
X39253668Y5450525D01*
X39168895Y5450969D01*
X39161508Y5449195D01*
X39161504Y5449195D01*
X39018162Y5414780D01*
X39004032Y5411388D01*
X38997288Y5407907D01*
X38997285Y5407906D01*
X38860117Y5337108D01*
X38853369Y5333625D01*
X38847647Y5328633D01*
X38847645Y5328632D01*
X38812921Y5298340D01*
X38725604Y5222169D01*
X38628113Y5083453D01*
X38566524Y4925487D01*
X38565532Y4917954D01*
X38565532Y4917953D01*
X38546366Y4772366D01*
X38544394Y4757389D01*
X38204751Y4757389D01*
X38203840Y4764920D01*
X38193573Y4849758D01*
X38185276Y4918320D01*
X38125345Y5076923D01*
X38062529Y5168320D01*
X38033614Y5210392D01*
X38033613Y5210393D01*
X38029312Y5216651D01*
X38017514Y5227163D01*
X37908392Y5324388D01*
X37908388Y5324390D01*
X37902721Y5329440D01*
X37890196Y5336072D01*
X37812571Y5377172D01*
X37752881Y5408776D01*
X37588441Y5450081D01*
X37580843Y5450121D01*
X37580841Y5450121D01*
X37503668Y5450525D01*
X37418895Y5450969D01*
X37411508Y5449195D01*
X37411504Y5449195D01*
X37268162Y5414780D01*
X37254032Y5411388D01*
X37247288Y5407907D01*
X37247285Y5407906D01*
X37110117Y5337108D01*
X37103369Y5333625D01*
X37097647Y5328633D01*
X37097645Y5328632D01*
X37062921Y5298340D01*
X36975604Y5222169D01*
X36878113Y5083453D01*
X36816524Y4925487D01*
X36815532Y4917954D01*
X36815532Y4917953D01*
X36796366Y4772366D01*
X36794394Y4757389D01*
X29233589Y4757389D01*
X29158392Y4824388D01*
X29158388Y4824390D01*
X29152721Y4829440D01*
X29134921Y4838865D01*
X29085080Y4865254D01*
X29002881Y4908776D01*
X28838441Y4950081D01*
X28830843Y4950121D01*
X28830841Y4950121D01*
X28753668Y4950525D01*
X28668895Y4950969D01*
X28661508Y4949195D01*
X28661504Y4949195D01*
X28518162Y4914780D01*
X28504032Y4911388D01*
X28497288Y4907907D01*
X28497285Y4907906D01*
X28388088Y4851545D01*
X28353369Y4833625D01*
X28347647Y4828633D01*
X28347645Y4828632D01*
X28309931Y4795732D01*
X28225604Y4722169D01*
X28128113Y4583453D01*
X28066524Y4425487D01*
X28065532Y4417954D01*
X28065532Y4417953D01*
X28045717Y4267436D01*
X28044394Y4257389D01*
X27454751Y4257389D01*
X27453840Y4264920D01*
X27450570Y4291936D01*
X27435276Y4418320D01*
X27375345Y4576923D01*
X27366584Y4589670D01*
X27283614Y4710392D01*
X27283613Y4710393D01*
X27279312Y4716651D01*
X27267514Y4727163D01*
X27158392Y4824388D01*
X27158388Y4824390D01*
X27152721Y4829440D01*
X27134921Y4838865D01*
X27085080Y4865254D01*
X27002881Y4908776D01*
X26838441Y4950081D01*
X26830843Y4950121D01*
X26830841Y4950121D01*
X26753668Y4950525D01*
X26668895Y4950969D01*
X26661508Y4949195D01*
X26661504Y4949195D01*
X26518162Y4914780D01*
X26504032Y4911388D01*
X26497288Y4907907D01*
X26497285Y4907906D01*
X26388088Y4851545D01*
X26353369Y4833625D01*
X26347647Y4828633D01*
X26347645Y4828632D01*
X26309931Y4795732D01*
X26225604Y4722169D01*
X26221237Y4715955D01*
X26219635Y4714176D01*
X26159188Y4676937D01*
X26088205Y4678290D01*
X26029221Y4717805D01*
X26000963Y4782936D01*
X26000000Y4798488D01*
X26000000Y6947810D01*
X26020002Y7015931D01*
X26036905Y7036905D01*
X26713095Y7713095D01*
X26775407Y7747121D01*
X26802190Y7750000D01*
X44874000Y7750000D01*
X44942121Y7729998D01*
X44988614Y7676342D01*
X45000000Y7624000D01*
X45000000Y6500000D01*
X48000000Y6500000D01*
X48000000Y7624000D01*
X48020002Y7692121D01*
X48073658Y7738614D01*
X48126000Y7750000D01*
X60278384Y7750000D01*
X60346505Y7729998D01*
X60392998Y7676342D01*
X60400507Y7655017D01*
X60410845Y7614310D01*
X60499369Y7422286D01*
X60621405Y7249609D01*
X60772865Y7102063D01*
X60777661Y7098858D01*
X60777664Y7098856D01*
X60901770Y7015931D01*
X60948677Y6984589D01*
X60953985Y6982308D01*
X60953986Y6982308D01*
X61137650Y6903400D01*
X61137653Y6903399D01*
X61142953Y6901122D01*
X61148582Y6899848D01*
X61148583Y6899848D01*
X61327368Y6859393D01*
X61389395Y6824850D01*
X61422899Y6762257D01*
X61417245Y6691486D01*
X61374226Y6635006D01*
X61307501Y6610751D01*
X61299560Y6610500D01*
X60605354Y6610500D01*
X60601650Y6610059D01*
X60601647Y6610059D01*
X60594254Y6609179D01*
X60579154Y6607382D01*
X60570514Y6603544D01*
X60570513Y6603544D01*
X60488117Y6566945D01*
X60476847Y6561939D01*
X60397759Y6482713D01*
X60393056Y6472076D01*
X60393055Y6472074D01*
X60366735Y6412538D01*
X60352494Y6380327D01*
X60349500Y6354646D01*
X60349500Y4565354D01*
X60352618Y4539154D01*
X60356456Y4530514D01*
X60356456Y4530513D01*
X60384814Y4466670D01*
X60398061Y4436847D01*
X60406294Y4428628D01*
X60406295Y4428627D01*
X60433533Y4401437D01*
X60477287Y4357759D01*
X60487924Y4353056D01*
X60487926Y4353055D01*
X60526341Y4336072D01*
X60579673Y4312494D01*
X60605354Y4309500D01*
X62394646Y4309500D01*
X62398350Y4309941D01*
X62398353Y4309941D01*
X62405746Y4310821D01*
X62420846Y4312618D01*
X62523153Y4358061D01*
X62554984Y4389947D01*
X62577093Y4412095D01*
X62602241Y4437287D01*
X62615232Y4466670D01*
X62633265Y4507462D01*
X62647506Y4539673D01*
X62650500Y4565354D01*
X62650500Y6354646D01*
X62647382Y6380846D01*
X62607025Y6471704D01*
X62606663Y6472518D01*
X62601939Y6483153D01*
X62579188Y6505865D01*
X62530945Y6554023D01*
X62522713Y6562241D01*
X62512076Y6566944D01*
X62512074Y6566945D01*
X62452538Y6593265D01*
X62420327Y6607506D01*
X62394646Y6610500D01*
X61682291Y6610500D01*
X61614170Y6630502D01*
X61567677Y6684158D01*
X61557573Y6754432D01*
X61587067Y6819012D01*
X61646793Y6857396D01*
X61664211Y6861196D01*
X61764013Y6875667D01*
X61764014Y6875667D01*
X61769730Y6876496D01*
X61848987Y6903400D01*
X61964483Y6942605D01*
X61964488Y6942607D01*
X61969955Y6944463D01*
X61974998Y6947287D01*
X62149395Y7044954D01*
X62149399Y7044957D01*
X62154442Y7047781D01*
X62317012Y7182988D01*
X62452219Y7345558D01*
X62455043Y7350601D01*
X62455046Y7350605D01*
X62552713Y7525002D01*
X62552714Y7525004D01*
X62555537Y7530045D01*
X62601179Y7664502D01*
X62642016Y7722578D01*
X62707769Y7749356D01*
X62720492Y7750000D01*
X65874000Y7750000D01*
X65942121Y7729998D01*
X65988614Y7676342D01*
X66000000Y7624000D01*
X66000000Y1126000D01*
X65979998Y1057879D01*
X65926342Y1011386D01*
X65874000Y1000000D01*
X54563654Y1000000D01*
X54495533Y1020002D01*
X54449040Y1073658D01*
X54438936Y1143932D01*
X54468430Y1208512D01*
X54489593Y1227936D01*
X54647691Y1342801D01*
X54647694Y1342803D01*
X54651254Y1345390D01*
X54747738Y1438563D01*
X54854374Y1541540D01*
X54854378Y1541545D01*
X54857539Y1544597D01*
X54940853Y1651233D01*
X55031381Y1767104D01*
X55034093Y1770575D01*
X55073985Y1839670D01*
X55175276Y2015112D01*
X55175278Y2015117D01*
X55177477Y2018925D01*
X55284903Y2284813D01*
X55354279Y2563065D01*
X55381008Y2817366D01*
X55383796Y2843895D01*
X55383796Y2843898D01*
X55384255Y2848264D01*
X55379615Y2981138D01*
X55374401Y3130462D01*
X55374400Y3130468D01*
X55374247Y3134859D01*
X55369677Y3160780D01*
X55340381Y3326923D01*
X55324450Y3417272D01*
X55323095Y3421443D01*
X55323093Y3421450D01*
X55245959Y3658841D01*
X55235833Y3690006D01*
X55231352Y3699195D01*
X55131516Y3903887D01*
X55110121Y3947753D01*
X54949762Y4185496D01*
X54757875Y4398608D01*
X54538197Y4582940D01*
X54295002Y4734905D01*
X54109792Y4817366D01*
X54037039Y4849758D01*
X54037037Y4849759D01*
X54033025Y4851545D01*
X53836470Y4907906D01*
X53761591Y4929377D01*
X53761590Y4929377D01*
X53757364Y4930589D01*
X53753014Y4931200D01*
X53753011Y4931201D01*
X53631843Y4948230D01*
X53473385Y4970500D01*
X49758396Y4970500D01*
X49756210Y4970347D01*
X49756206Y4970347D01*
X49548314Y4955810D01*
X49548309Y4955809D01*
X49543929Y4955503D01*
X49539635Y4954590D01*
X49539633Y4954590D01*
X49514252Y4949195D01*
X49263425Y4895880D01*
X49259294Y4894376D01*
X49259289Y4894375D01*
X49141616Y4851545D01*
X48993950Y4797799D01*
X48932113Y4764920D01*
X48744639Y4665239D01*
X48744633Y4665235D01*
X48740747Y4663169D01*
X48737187Y4660582D01*
X48737183Y4660580D01*
X48512309Y4497199D01*
X48508746Y4494610D01*
X48505582Y4491554D01*
X48505579Y4491552D01*
X48305626Y4298460D01*
X48305622Y4298455D01*
X48302461Y4295403D01*
X48299754Y4291938D01*
X48299752Y4291936D01*
X48216592Y4185496D01*
X48125907Y4069425D01*
X48115134Y4050765D01*
X47985522Y3826269D01*
X47982523Y3821075D01*
X47875097Y3555187D01*
X47874032Y3550914D01*
X47874031Y3550912D01*
X47852849Y3465955D01*
X47805721Y3276935D01*
X47805262Y3272565D01*
X47805261Y3272561D01*
X47776204Y2996105D01*
X47775745Y2991736D01*
X47775898Y2987348D01*
X47775898Y2987342D01*
X47780908Y2843895D01*
X47785753Y2705141D01*
X47786515Y2700818D01*
X47786516Y2700811D01*
X47810805Y2563065D01*
X47835550Y2422728D01*
X47836905Y2418557D01*
X47836907Y2418550D01*
X47863706Y2336072D01*
X47924167Y2149994D01*
X47926095Y2146041D01*
X47926097Y2146036D01*
X47982434Y2030530D01*
X48049879Y1892247D01*
X48210238Y1654504D01*
X48402125Y1441392D01*
X48621803Y1257060D01*
X48625539Y1254726D01*
X48625541Y1254724D01*
X48660540Y1232854D01*
X48707711Y1179793D01*
X48718706Y1109653D01*
X48690035Y1044703D01*
X48630801Y1005564D01*
X48593771Y1000000D01*
X24240472Y1000000D01*
X24172351Y1020002D01*
X24125858Y1073658D01*
X24115754Y1143932D01*
X24123565Y1172996D01*
X24178765Y1310309D01*
X24178767Y1310316D01*
X24181601Y1317366D01*
X24205490Y1485222D01*
X24205645Y1500000D01*
X24203840Y1514920D01*
X24199829Y1548064D01*
X24185276Y1668320D01*
X24125345Y1826923D01*
X24029312Y1966651D01*
X23974921Y2015112D01*
X23908392Y2074388D01*
X23908388Y2074390D01*
X23902721Y2079440D01*
X23752881Y2158776D01*
X23588441Y2200081D01*
X23580843Y2200121D01*
X23580841Y2200121D01*
X23503668Y2200525D01*
X23418895Y2200969D01*
X23411508Y2199195D01*
X23411504Y2199195D01*
X23268162Y2164780D01*
X23254032Y2161388D01*
X23247288Y2157907D01*
X23247285Y2157906D01*
X23110117Y2087108D01*
X23103369Y2083625D01*
X22975604Y1972169D01*
X22971237Y1965955D01*
X22922212Y1896199D01*
X22878113Y1833453D01*
X22816524Y1675487D01*
X22815532Y1667954D01*
X22815532Y1667953D01*
X22799749Y1548064D01*
X22794394Y1507389D01*
X22812999Y1338865D01*
X22871018Y1180322D01*
X22871018Y1180321D01*
X22871266Y1179644D01*
X22871153Y1179603D01*
X22883581Y1113426D01*
X22856881Y1047641D01*
X22798853Y1006735D01*
X22758210Y1000000D01*
X22490472Y1000000D01*
X22422351Y1020002D01*
X22375858Y1073658D01*
X22365754Y1143932D01*
X22373565Y1172996D01*
X22428765Y1310309D01*
X22428767Y1310316D01*
X22431601Y1317366D01*
X22455490Y1485222D01*
X22455645Y1500000D01*
X22453840Y1514920D01*
X22449829Y1548064D01*
X22435276Y1668320D01*
X22375345Y1826923D01*
X22279312Y1966651D01*
X22224921Y2015112D01*
X22158392Y2074388D01*
X22158388Y2074390D01*
X22152721Y2079440D01*
X22002881Y2158776D01*
X21838441Y2200081D01*
X21830843Y2200121D01*
X21830841Y2200121D01*
X21753668Y2200525D01*
X21668895Y2200969D01*
X21661508Y2199195D01*
X21661504Y2199195D01*
X21518162Y2164780D01*
X21504032Y2161388D01*
X21497288Y2157907D01*
X21497285Y2157906D01*
X21360117Y2087108D01*
X21353369Y2083625D01*
X21225604Y1972169D01*
X21221237Y1965955D01*
X21172212Y1896199D01*
X21128113Y1833453D01*
X21066524Y1675487D01*
X21065532Y1667954D01*
X21065532Y1667953D01*
X21049749Y1548064D01*
X21044394Y1507389D01*
X21062999Y1338865D01*
X21121018Y1180322D01*
X21121018Y1180321D01*
X21121266Y1179644D01*
X21121153Y1179603D01*
X21133581Y1113426D01*
X21106881Y1047641D01*
X21048853Y1006735D01*
X21008210Y1000000D01*
X15376000Y1000000D01*
X15307879Y1020002D01*
X15261386Y1073658D01*
X15250000Y1126000D01*
X15250000Y3007389D01*
X31294394Y3007389D01*
X31312999Y2838865D01*
X31371266Y2679644D01*
X31375502Y2673341D01*
X31375502Y2673340D01*
X31388574Y2653887D01*
X31465830Y2538917D01*
X31471442Y2533810D01*
X31471445Y2533807D01*
X31585612Y2429923D01*
X31585616Y2429920D01*
X31591233Y2424809D01*
X31597906Y2421186D01*
X31597910Y2421183D01*
X31733558Y2347533D01*
X31733560Y2347532D01*
X31740235Y2343908D01*
X31747584Y2341980D01*
X31896883Y2302812D01*
X31896885Y2302812D01*
X31904233Y2300884D01*
X31990609Y2299527D01*
X32066161Y2298340D01*
X32066164Y2298340D01*
X32073760Y2298221D01*
X32081165Y2299917D01*
X32081166Y2299917D01*
X32141586Y2313755D01*
X32239029Y2336072D01*
X32390498Y2412253D01*
X32519423Y2522366D01*
X32618361Y2660053D01*
X32626237Y2679644D01*
X32678766Y2810313D01*
X32678767Y2810315D01*
X32681601Y2817366D01*
X32705490Y2985222D01*
X32705645Y3000000D01*
X32703840Y3014920D01*
X32686188Y3160780D01*
X32685276Y3168320D01*
X32625345Y3326923D01*
X32566221Y3412949D01*
X32533614Y3460392D01*
X32533613Y3460393D01*
X32529312Y3466651D01*
X32517514Y3477163D01*
X32408392Y3574388D01*
X32408388Y3574390D01*
X32402721Y3579440D01*
X32390196Y3586072D01*
X32335080Y3615254D01*
X32252881Y3658776D01*
X32088441Y3700081D01*
X32080843Y3700121D01*
X32080841Y3700121D01*
X32003668Y3700525D01*
X31918895Y3700969D01*
X31911508Y3699195D01*
X31911504Y3699195D01*
X31768162Y3664780D01*
X31754032Y3661388D01*
X31747288Y3657907D01*
X31747285Y3657906D01*
X31610117Y3587108D01*
X31603369Y3583625D01*
X31597647Y3578633D01*
X31597645Y3578632D01*
X31562921Y3548340D01*
X31475604Y3472169D01*
X31378113Y3333453D01*
X31316524Y3175487D01*
X31294394Y3007389D01*
X15250000Y3007389D01*
X15250000Y3124000D01*
X15270002Y3192121D01*
X15323658Y3238614D01*
X15376000Y3250000D01*
X17500000Y3250000D01*
X17500000Y5262558D01*
X17520002Y5330679D01*
X17573658Y5377172D01*
X17643932Y5387276D01*
X17686122Y5373289D01*
X17733558Y5347533D01*
X17733560Y5347532D01*
X17740235Y5343908D01*
X17747584Y5341980D01*
X17896883Y5302812D01*
X17896885Y5302812D01*
X17904233Y5300884D01*
X17990609Y5299527D01*
X18066161Y5298340D01*
X18066164Y5298340D01*
X18073760Y5298221D01*
X18081165Y5299917D01*
X18081166Y5299917D01*
X18188013Y5324388D01*
X18239029Y5336072D01*
X18390498Y5412253D01*
X18519423Y5522366D01*
X18618361Y5660053D01*
X18626237Y5679644D01*
X18678766Y5810313D01*
X18678767Y5810315D01*
X18681601Y5817366D01*
X18705490Y5985222D01*
X18705645Y6000000D01*
X18704751Y6007389D01*
X19294394Y6007389D01*
X19312999Y5838865D01*
X19371266Y5679644D01*
X19375502Y5673341D01*
X19375502Y5673340D01*
X19385289Y5658776D01*
X19465830Y5538917D01*
X19471442Y5533810D01*
X19471445Y5533807D01*
X19585612Y5429923D01*
X19585616Y5429920D01*
X19591233Y5424809D01*
X19597906Y5421186D01*
X19597910Y5421183D01*
X19733558Y5347533D01*
X19733560Y5347532D01*
X19740235Y5343908D01*
X19747584Y5341980D01*
X19896883Y5302812D01*
X19896885Y5302812D01*
X19904233Y5300884D01*
X19990609Y5299527D01*
X20066161Y5298340D01*
X20066164Y5298340D01*
X20073760Y5298221D01*
X20081165Y5299917D01*
X20081166Y5299917D01*
X20188013Y5324388D01*
X20239029Y5336072D01*
X20390498Y5412253D01*
X20519423Y5522366D01*
X20618361Y5660053D01*
X20626237Y5679644D01*
X20678766Y5810313D01*
X20678767Y5810315D01*
X20681601Y5817366D01*
X20705490Y5985222D01*
X20705645Y6000000D01*
X20703840Y6014920D01*
X20686188Y6160780D01*
X20685276Y6168320D01*
X20625345Y6326923D01*
X20529312Y6466651D01*
X20523641Y6471704D01*
X20408392Y6574388D01*
X20408388Y6574390D01*
X20402721Y6579440D01*
X20357197Y6603544D01*
X20292084Y6638019D01*
X20252881Y6658776D01*
X20088441Y6700081D01*
X20080843Y6700121D01*
X20080841Y6700121D01*
X20003668Y6700525D01*
X19918895Y6700969D01*
X19911508Y6699195D01*
X19911504Y6699195D01*
X19768162Y6664780D01*
X19754032Y6661388D01*
X19747288Y6657907D01*
X19747285Y6657906D01*
X19649397Y6607382D01*
X19603369Y6583625D01*
X19597647Y6578633D01*
X19597645Y6578632D01*
X19569435Y6554023D01*
X19475604Y6472169D01*
X19471237Y6465955D01*
X19390385Y6350914D01*
X19378113Y6333453D01*
X19316524Y6175487D01*
X19294394Y6007389D01*
X18704751Y6007389D01*
X18703840Y6014920D01*
X18686188Y6160780D01*
X18685276Y6168320D01*
X18625345Y6326923D01*
X18529312Y6466651D01*
X18523641Y6471704D01*
X18408392Y6574388D01*
X18408388Y6574390D01*
X18402721Y6579440D01*
X18357197Y6603544D01*
X18292084Y6638019D01*
X18252881Y6658776D01*
X18088441Y6700081D01*
X18080843Y6700121D01*
X18080841Y6700121D01*
X18003668Y6700525D01*
X17918895Y6700969D01*
X17911508Y6699195D01*
X17911504Y6699195D01*
X17768162Y6664780D01*
X17754032Y6661388D01*
X17747288Y6657907D01*
X17747285Y6657906D01*
X17742089Y6655224D01*
X17683789Y6625133D01*
X17614083Y6611664D01*
X17548160Y6638019D01*
X17506950Y6695831D01*
X17500000Y6737099D01*
X17500000Y7250000D01*
X15376000Y7250000D01*
X15307879Y7270002D01*
X15261386Y7323658D01*
X15250000Y7376000D01*
X15250000Y10124000D01*
X15270002Y10192121D01*
X15323658Y10238614D01*
X15376000Y10250000D01*
X17500000Y10250000D01*
X17500000Y12262558D01*
X17520002Y12330679D01*
X17573658Y12377172D01*
X17643932Y12387276D01*
X17686122Y12373289D01*
X17733558Y12347533D01*
X17733560Y12347532D01*
X17740235Y12343908D01*
X17747584Y12341980D01*
X17896883Y12302812D01*
X17896885Y12302812D01*
X17904233Y12300884D01*
X17990609Y12299527D01*
X18066161Y12298340D01*
X18066164Y12298340D01*
X18073760Y12298221D01*
X18081165Y12299917D01*
X18081166Y12299917D01*
X18141586Y12313755D01*
X18239029Y12336072D01*
X18390498Y12412253D01*
X18519423Y12522366D01*
X18618361Y12660053D01*
X18626237Y12679644D01*
X18678766Y12810313D01*
X18678767Y12810315D01*
X18681601Y12817366D01*
X18705490Y12985222D01*
X18705645Y13000000D01*
X18704751Y13007389D01*
X19294394Y13007389D01*
X19312999Y12838865D01*
X19371266Y12679644D01*
X19375502Y12673341D01*
X19375502Y12673340D01*
X19385289Y12658776D01*
X19465830Y12538917D01*
X19471442Y12533810D01*
X19471445Y12533807D01*
X19585612Y12429923D01*
X19585616Y12429920D01*
X19591233Y12424809D01*
X19597906Y12421186D01*
X19597910Y12421183D01*
X19733558Y12347533D01*
X19733560Y12347532D01*
X19740235Y12343908D01*
X19747584Y12341980D01*
X19896883Y12302812D01*
X19896885Y12302812D01*
X19904233Y12300884D01*
X19990609Y12299527D01*
X20066161Y12298340D01*
X20066164Y12298340D01*
X20073760Y12298221D01*
X20081165Y12299917D01*
X20081166Y12299917D01*
X20141586Y12313755D01*
X20239029Y12336072D01*
X20390498Y12412253D01*
X20519423Y12522366D01*
X20618361Y12660053D01*
X20626237Y12679644D01*
X20678766Y12810313D01*
X20678767Y12810315D01*
X20681601Y12817366D01*
X20705490Y12985222D01*
X20705645Y13000000D01*
X20703840Y13014920D01*
X20701004Y13038347D01*
X20685276Y13168320D01*
X20625345Y13326923D01*
X20616584Y13339670D01*
X20533614Y13460392D01*
X20533613Y13460393D01*
X20529312Y13466651D01*
X20517514Y13477163D01*
X20408392Y13574388D01*
X20408388Y13574390D01*
X20402721Y13579440D01*
X20252881Y13658776D01*
X20088441Y13700081D01*
X20080843Y13700121D01*
X20080841Y13700121D01*
X20003668Y13700525D01*
X19918895Y13700969D01*
X19911508Y13699195D01*
X19911504Y13699195D01*
X19768162Y13664780D01*
X19754032Y13661388D01*
X19747288Y13657907D01*
X19747285Y13657906D01*
X19610117Y13587108D01*
X19603369Y13583625D01*
X19475604Y13472169D01*
X19378113Y13333453D01*
X19316524Y13175487D01*
X19294394Y13007389D01*
X18704751Y13007389D01*
X18703840Y13014920D01*
X18701004Y13038347D01*
X18685276Y13168320D01*
X18625345Y13326923D01*
X18616584Y13339670D01*
X18533614Y13460392D01*
X18533613Y13460393D01*
X18529312Y13466651D01*
X18517514Y13477163D01*
X18408392Y13574388D01*
X18408388Y13574390D01*
X18402721Y13579440D01*
X18252881Y13658776D01*
X18088441Y13700081D01*
X18080843Y13700121D01*
X18080841Y13700121D01*
X18003668Y13700525D01*
X17918895Y13700969D01*
X17911508Y13699195D01*
X17911504Y13699195D01*
X17768162Y13664780D01*
X17754032Y13661388D01*
X17747288Y13657907D01*
X17747285Y13657906D01*
X17742089Y13655224D01*
X17683789Y13625133D01*
X17614083Y13611664D01*
X17548160Y13638019D01*
X17506950Y13695831D01*
X17500000Y13737099D01*
X17500000Y14874000D01*
X17520002Y14942121D01*
X17573658Y14988614D01*
X17626000Y15000000D01*
X21124000Y15000000D01*
X21192121Y14979998D01*
G37*
%TD.AperFunction*%
%TD*%
%TA.AperFunction,Conductor*%
%TO.N,VDD*%
G36*
X48664467Y14979998D02*
G01*
X48710960Y14926342D01*
X48721064Y14856068D01*
X48691570Y14791488D01*
X48670407Y14772064D01*
X48630322Y14742940D01*
X48508746Y14654610D01*
X48505582Y14651554D01*
X48505579Y14651552D01*
X48305626Y14458460D01*
X48305622Y14458455D01*
X48302461Y14455403D01*
X48299754Y14451938D01*
X48299752Y14451936D01*
X48216592Y14345496D01*
X48125907Y14229425D01*
X48123704Y14225609D01*
X48057765Y14111398D01*
X47982523Y13981075D01*
X47875097Y13715187D01*
X47874032Y13710914D01*
X47874031Y13710912D01*
X47843163Y13587108D01*
X47805721Y13436935D01*
X47805262Y13432565D01*
X47805261Y13432561D01*
X47776204Y13156105D01*
X47775745Y13151736D01*
X47775898Y13147348D01*
X47775898Y13147342D01*
X47781560Y12985222D01*
X47785753Y12865141D01*
X47786515Y12860818D01*
X47786516Y12860811D01*
X47810205Y12726468D01*
X47835550Y12582728D01*
X47836905Y12578557D01*
X47836907Y12578550D01*
X47878972Y12449088D01*
X47924167Y12309994D01*
X47926095Y12306041D01*
X47926097Y12306036D01*
X47961924Y12232581D01*
X48049879Y12052247D01*
X48210238Y11814504D01*
X48402125Y11601392D01*
X48621803Y11417060D01*
X48864998Y11265095D01*
X49006260Y11202201D01*
X49091661Y11164178D01*
X49126975Y11148455D01*
X49402636Y11069411D01*
X49406986Y11068800D01*
X49406989Y11068799D01*
X49511342Y11054133D01*
X49686615Y11029500D01*
X53401604Y11029500D01*
X53403790Y11029653D01*
X53403794Y11029653D01*
X53611686Y11044190D01*
X53611691Y11044191D01*
X53616071Y11044497D01*
X53620365Y11045410D01*
X53620367Y11045410D01*
X53738984Y11070623D01*
X53896575Y11104120D01*
X53900706Y11105624D01*
X53900711Y11105625D01*
X54075633Y11169292D01*
X54166050Y11202201D01*
X54284337Y11265095D01*
X54415361Y11334761D01*
X54415367Y11334765D01*
X54419253Y11336831D01*
X54422813Y11339418D01*
X54422817Y11339420D01*
X54647691Y11502801D01*
X54647694Y11502803D01*
X54651254Y11505390D01*
X54700644Y11553085D01*
X54854374Y11701540D01*
X54854378Y11701545D01*
X54857539Y11704597D01*
X54889438Y11745425D01*
X55031381Y11927104D01*
X55034093Y11930575D01*
X55073478Y11998792D01*
X55175276Y12175112D01*
X55175278Y12175117D01*
X55177477Y12178925D01*
X55284903Y12444813D01*
X55354279Y12723065D01*
X55357113Y12750023D01*
X55383796Y13003895D01*
X55383796Y13003898D01*
X55384255Y13008264D01*
X55384023Y13014920D01*
X55374401Y13290462D01*
X55374400Y13290468D01*
X55374247Y13294859D01*
X55368691Y13326373D01*
X55325212Y13572949D01*
X55324450Y13577272D01*
X55323095Y13581443D01*
X55323093Y13581450D01*
X55237194Y13845816D01*
X55235833Y13850006D01*
X55110121Y14107753D01*
X54949762Y14345496D01*
X54757875Y14558608D01*
X54538197Y14742940D01*
X54534459Y14745276D01*
X54499460Y14767146D01*
X54452289Y14820207D01*
X54441294Y14890347D01*
X54469965Y14955297D01*
X54529199Y14994436D01*
X54566229Y15000000D01*
X65874000Y15000000D01*
X65942121Y14979998D01*
X65988614Y14926342D01*
X66000000Y14874000D01*
X66000000Y8376000D01*
X65979998Y8307879D01*
X65926342Y8261386D01*
X65874000Y8250000D01*
X62720337Y8250000D01*
X62652216Y8270002D01*
X62605723Y8323658D01*
X62599068Y8341799D01*
X62578686Y8414069D01*
X62567553Y8436646D01*
X62487719Y8598531D01*
X62485165Y8603710D01*
X62358651Y8773133D01*
X62203381Y8916663D01*
X62196217Y8921183D01*
X62029434Y9026416D01*
X62029433Y9026416D01*
X62024554Y9029495D01*
X61828160Y9107848D01*
X61822503Y9108973D01*
X61822497Y9108975D01*
X61625234Y9148212D01*
X61562324Y9181119D01*
X61527192Y9242814D01*
X61530992Y9313709D01*
X61572517Y9371295D01*
X61631734Y9396487D01*
X61764015Y9415667D01*
X61764019Y9415668D01*
X61769730Y9416496D01*
X61848987Y9443400D01*
X61964483Y9482605D01*
X61964488Y9482607D01*
X61969955Y9484463D01*
X61992563Y9497124D01*
X62149395Y9584954D01*
X62149399Y9584957D01*
X62154442Y9587781D01*
X62317012Y9722988D01*
X62452219Y9885558D01*
X62455043Y9890601D01*
X62455046Y9890605D01*
X62552713Y10065002D01*
X62552714Y10065004D01*
X62555537Y10070045D01*
X62557393Y10075512D01*
X62557395Y10075517D01*
X62621647Y10264800D01*
X62623504Y10270270D01*
X62626034Y10287714D01*
X62653314Y10475860D01*
X62653314Y10475862D01*
X62653846Y10479530D01*
X62655429Y10540000D01*
X62636081Y10750560D01*
X62632277Y10764050D01*
X62580255Y10948504D01*
X62578686Y10954069D01*
X62567553Y10976646D01*
X62487719Y11138531D01*
X62485165Y11143710D01*
X62371267Y11296238D01*
X62362104Y11308509D01*
X62362103Y11308510D01*
X62358651Y11313133D01*
X62248746Y11414728D01*
X62207622Y11452743D01*
X62207620Y11452745D01*
X62203381Y11456663D01*
X62024554Y11569495D01*
X61828160Y11647848D01*
X61822503Y11648973D01*
X61822497Y11648975D01*
X61626442Y11687972D01*
X61626440Y11687972D01*
X61620775Y11689099D01*
X61615000Y11689175D01*
X61614996Y11689175D01*
X61508976Y11690563D01*
X61409346Y11691867D01*
X61403649Y11690888D01*
X61403648Y11690888D01*
X61206650Y11657038D01*
X61206649Y11657038D01*
X61200953Y11656059D01*
X61002575Y11582873D01*
X60997614Y11579921D01*
X60997613Y11579921D01*
X60867986Y11502801D01*
X60820856Y11474762D01*
X60661881Y11335345D01*
X60530976Y11169292D01*
X60528287Y11164181D01*
X60528285Y11164178D01*
X60500987Y11112292D01*
X60432523Y10982164D01*
X60369820Y10780227D01*
X60344967Y10570246D01*
X60358796Y10359251D01*
X60360217Y10353655D01*
X60360218Y10353650D01*
X60408597Y10163161D01*
X60410845Y10154310D01*
X60413262Y10149067D01*
X60487795Y9987393D01*
X60499369Y9962286D01*
X60621405Y9789609D01*
X60625539Y9785582D01*
X60731288Y9682566D01*
X60772865Y9642063D01*
X60777661Y9638858D01*
X60777664Y9638856D01*
X60860485Y9583517D01*
X60948677Y9524589D01*
X60953985Y9522308D01*
X60953986Y9522308D01*
X61137650Y9443400D01*
X61137653Y9443399D01*
X61142953Y9441122D01*
X61148582Y9439848D01*
X61148583Y9439848D01*
X61343550Y9395731D01*
X61343553Y9395731D01*
X61349186Y9394456D01*
X61354958Y9394229D01*
X61360687Y9393475D01*
X61360327Y9390743D01*
X61416604Y9371784D01*
X61460950Y9316341D01*
X61468282Y9245724D01*
X61436271Y9182353D01*
X61375081Y9146349D01*
X61365704Y9144368D01*
X61206650Y9117038D01*
X61206649Y9117038D01*
X61200953Y9116059D01*
X61002575Y9042873D01*
X60997614Y9039921D01*
X60997613Y9039921D01*
X60980089Y9029495D01*
X60820856Y8934762D01*
X60661881Y8795345D01*
X60530976Y8629292D01*
X60528287Y8624181D01*
X60528285Y8624178D01*
X60514792Y8598531D01*
X60432523Y8442164D01*
X60411979Y8376000D01*
X60400377Y8338636D01*
X60361074Y8279511D01*
X60296045Y8251020D01*
X60280044Y8250000D01*
X48126000Y8250000D01*
X48057879Y8270002D01*
X48011386Y8323658D01*
X48000000Y8376000D01*
X48000000Y9500000D01*
X47319246Y9500000D01*
X47251125Y9520002D01*
X47204632Y9573658D01*
X47194528Y9643932D01*
X47224022Y9708512D01*
X47238676Y9722874D01*
X47277072Y9754808D01*
X47277073Y9754809D01*
X47281505Y9758495D01*
X47410837Y9913999D01*
X47509664Y10090469D01*
X47529556Y10149067D01*
X47572820Y10276519D01*
X47572820Y10276521D01*
X47574678Y10281993D01*
X47575507Y10287709D01*
X47575508Y10287714D01*
X47603167Y10478484D01*
X47603700Y10482158D01*
X47605215Y10540000D01*
X47586708Y10741409D01*
X47531807Y10936074D01*
X47442351Y11117473D01*
X47424079Y11141943D01*
X47324788Y11274909D01*
X47324787Y11274910D01*
X47321335Y11279533D01*
X47298350Y11300780D01*
X47177053Y11412906D01*
X47177051Y11412908D01*
X47172812Y11416826D01*
X47145374Y11434138D01*
X47006637Y11521675D01*
X47001757Y11524754D01*
X46813898Y11599702D01*
X46615526Y11639161D01*
X46609752Y11639237D01*
X46609748Y11639237D01*
X46507257Y11640578D01*
X46413286Y11641808D01*
X46407589Y11640829D01*
X46407588Y11640829D01*
X46219646Y11608535D01*
X46219645Y11608535D01*
X46213949Y11607556D01*
X46024193Y11537551D01*
X45850371Y11434138D01*
X45698305Y11300780D01*
X45573089Y11141943D01*
X45478914Y10962947D01*
X45418937Y10769787D01*
X45395164Y10568931D01*
X45408392Y10367106D01*
X45428555Y10287714D01*
X45451036Y10199195D01*
X45458178Y10171072D01*
X45542856Y9987393D01*
X45546189Y9982677D01*
X45651842Y9833181D01*
X45659588Y9822220D01*
X45756898Y9727426D01*
X45768366Y9716254D01*
X45803204Y9654393D01*
X45799067Y9583517D01*
X45757268Y9526129D01*
X45691079Y9500450D01*
X45680445Y9500000D01*
X45000000Y9500000D01*
X45000000Y8376000D01*
X44979998Y8307879D01*
X44926342Y8261386D01*
X44874000Y8250000D01*
X26750000Y8250000D01*
X25500000Y7000000D01*
X25500000Y4126000D01*
X25479998Y4057879D01*
X25426342Y4011386D01*
X25374000Y4000000D01*
X22552190Y4000000D01*
X22484069Y4020002D01*
X22463095Y4036905D01*
X21786905Y4713095D01*
X21752879Y4775407D01*
X21750000Y4802190D01*
X21750000Y7680923D01*
X21770002Y7749044D01*
X21823658Y7795537D01*
X21847871Y7803743D01*
X21915583Y7819251D01*
X21989029Y7836072D01*
X22140498Y7912253D01*
X22269423Y8022366D01*
X22368361Y8160053D01*
X22376237Y8179644D01*
X22428766Y8310313D01*
X22428767Y8310315D01*
X22431601Y8317366D01*
X22455490Y8485222D01*
X22455645Y8500000D01*
X22454751Y8507389D01*
X22794394Y8507389D01*
X22812999Y8338865D01*
X22871266Y8179644D01*
X22875502Y8173341D01*
X22875502Y8173340D01*
X22888574Y8153887D01*
X22965830Y8038917D01*
X22971442Y8033810D01*
X22971445Y8033807D01*
X23085612Y7929923D01*
X23085616Y7929920D01*
X23091233Y7924809D01*
X23097906Y7921186D01*
X23097910Y7921183D01*
X23233558Y7847533D01*
X23233560Y7847532D01*
X23240235Y7843908D01*
X23247584Y7841980D01*
X23396883Y7802812D01*
X23396885Y7802812D01*
X23404233Y7800884D01*
X23490609Y7799527D01*
X23566161Y7798340D01*
X23566164Y7798340D01*
X23573760Y7798221D01*
X23581165Y7799917D01*
X23581166Y7799917D01*
X23665583Y7819251D01*
X23739029Y7836072D01*
X23890498Y7912253D01*
X24019423Y8022366D01*
X24118361Y8160053D01*
X24126237Y8179644D01*
X24178766Y8310313D01*
X24178767Y8310315D01*
X24181601Y8317366D01*
X24205490Y8485222D01*
X24205645Y8500000D01*
X24203840Y8514920D01*
X24193721Y8598531D01*
X24185276Y8668320D01*
X24125345Y8826923D01*
X24114997Y8841980D01*
X24033614Y8960392D01*
X24033613Y8960393D01*
X24029312Y8966651D01*
X24017514Y8977163D01*
X23908392Y9074388D01*
X23908388Y9074390D01*
X23902721Y9079440D01*
X23849068Y9107848D01*
X23780093Y9144368D01*
X23752881Y9158776D01*
X23588441Y9200081D01*
X23580843Y9200121D01*
X23580841Y9200121D01*
X23503668Y9200525D01*
X23418895Y9200969D01*
X23411508Y9199195D01*
X23411504Y9199195D01*
X23277824Y9167100D01*
X23254032Y9161388D01*
X23247288Y9157907D01*
X23247285Y9157906D01*
X23150300Y9107848D01*
X23103369Y9083625D01*
X22975604Y8972169D01*
X22971237Y8965955D01*
X22888009Y8847533D01*
X22878113Y8833453D01*
X22816524Y8675487D01*
X22815532Y8667954D01*
X22815532Y8667953D01*
X22807075Y8603710D01*
X22794394Y8507389D01*
X22454751Y8507389D01*
X22453840Y8514920D01*
X22443721Y8598531D01*
X22435276Y8668320D01*
X22375345Y8826923D01*
X22364997Y8841980D01*
X22283614Y8960392D01*
X22283613Y8960393D01*
X22279312Y8966651D01*
X22267514Y8977163D01*
X22158392Y9074388D01*
X22158388Y9074390D01*
X22152721Y9079440D01*
X22099068Y9107848D01*
X22030093Y9144368D01*
X22002881Y9158776D01*
X21845304Y9198357D01*
X21784109Y9234352D01*
X21752088Y9297718D01*
X21750000Y9320561D01*
X21750000Y9507389D01*
X33044394Y9507389D01*
X33062999Y9338865D01*
X33121266Y9179644D01*
X33125502Y9173341D01*
X33125502Y9173340D01*
X33135289Y9158776D01*
X33215830Y9038917D01*
X33221442Y9033810D01*
X33221445Y9033807D01*
X33335612Y8929923D01*
X33335616Y8929920D01*
X33341233Y8924809D01*
X33347906Y8921186D01*
X33347910Y8921183D01*
X33483558Y8847533D01*
X33483560Y8847532D01*
X33490235Y8843908D01*
X33497584Y8841980D01*
X33646883Y8802812D01*
X33646885Y8802812D01*
X33654233Y8800884D01*
X33740609Y8799527D01*
X33816161Y8798340D01*
X33816164Y8798340D01*
X33823760Y8798221D01*
X33831165Y8799917D01*
X33831166Y8799917D01*
X33891586Y8813755D01*
X33989029Y8836072D01*
X34140498Y8912253D01*
X34269423Y9022366D01*
X34368361Y9160053D01*
X34377326Y9182353D01*
X34428766Y9310313D01*
X34428767Y9310315D01*
X34431601Y9317366D01*
X34445973Y9418353D01*
X34454909Y9481138D01*
X34454909Y9481141D01*
X34455490Y9485222D01*
X34455562Y9492068D01*
X34455602Y9495865D01*
X34455602Y9495871D01*
X34455645Y9500000D01*
X34454751Y9507389D01*
X35044394Y9507389D01*
X35062999Y9338865D01*
X35121266Y9179644D01*
X35125502Y9173341D01*
X35125502Y9173340D01*
X35135289Y9158776D01*
X35215830Y9038917D01*
X35221442Y9033810D01*
X35221445Y9033807D01*
X35335612Y8929923D01*
X35335616Y8929920D01*
X35341233Y8924809D01*
X35347906Y8921186D01*
X35347910Y8921183D01*
X35483558Y8847533D01*
X35483560Y8847532D01*
X35490235Y8843908D01*
X35497584Y8841980D01*
X35646883Y8802812D01*
X35646885Y8802812D01*
X35654233Y8800884D01*
X35740609Y8799527D01*
X35816161Y8798340D01*
X35816164Y8798340D01*
X35823760Y8798221D01*
X35831165Y8799917D01*
X35831166Y8799917D01*
X35891586Y8813755D01*
X35989029Y8836072D01*
X36140498Y8912253D01*
X36269423Y9022366D01*
X36368361Y9160053D01*
X36377326Y9182353D01*
X36428766Y9310313D01*
X36428767Y9310315D01*
X36431601Y9317366D01*
X36445973Y9418353D01*
X36454909Y9481138D01*
X36454909Y9481141D01*
X36455490Y9485222D01*
X36455562Y9492068D01*
X36455602Y9495865D01*
X36455602Y9495871D01*
X36455645Y9500000D01*
X36453840Y9514920D01*
X36444575Y9591479D01*
X36435276Y9668320D01*
X36375345Y9826923D01*
X36312037Y9919036D01*
X36283614Y9960392D01*
X36283613Y9960393D01*
X36279312Y9966651D01*
X36256032Y9987393D01*
X36158392Y10074388D01*
X36158388Y10074390D01*
X36152721Y10079440D01*
X36141397Y10085436D01*
X36021218Y10149067D01*
X36002881Y10158776D01*
X35838441Y10200081D01*
X35830843Y10200121D01*
X35830841Y10200121D01*
X35753668Y10200525D01*
X35668895Y10200969D01*
X35661508Y10199195D01*
X35661504Y10199195D01*
X35522513Y10165825D01*
X35504032Y10161388D01*
X35497288Y10157907D01*
X35497285Y10157906D01*
X35377215Y10095933D01*
X35353369Y10083625D01*
X35347647Y10078633D01*
X35347645Y10078632D01*
X35342780Y10074388D01*
X35225604Y9972169D01*
X35128113Y9833453D01*
X35066524Y9675487D01*
X35065532Y9667954D01*
X35065532Y9667953D01*
X35054978Y9587781D01*
X35044394Y9507389D01*
X34454751Y9507389D01*
X34453840Y9514920D01*
X34444575Y9591479D01*
X34435276Y9668320D01*
X34375345Y9826923D01*
X34312037Y9919036D01*
X34283614Y9960392D01*
X34283613Y9960393D01*
X34279312Y9966651D01*
X34256032Y9987393D01*
X34158392Y10074388D01*
X34158388Y10074390D01*
X34152721Y10079440D01*
X34141397Y10085436D01*
X34021218Y10149067D01*
X34002881Y10158776D01*
X33838441Y10200081D01*
X33830843Y10200121D01*
X33830841Y10200121D01*
X33753668Y10200525D01*
X33668895Y10200969D01*
X33661508Y10199195D01*
X33661504Y10199195D01*
X33522513Y10165825D01*
X33504032Y10161388D01*
X33497288Y10157907D01*
X33497285Y10157906D01*
X33377215Y10095933D01*
X33353369Y10083625D01*
X33347647Y10078633D01*
X33347645Y10078632D01*
X33342780Y10074388D01*
X33225604Y9972169D01*
X33128113Y9833453D01*
X33066524Y9675487D01*
X33065532Y9667954D01*
X33065532Y9667953D01*
X33054978Y9587781D01*
X33044394Y9507389D01*
X21750000Y9507389D01*
X21750000Y13007389D01*
X31294394Y13007389D01*
X31312999Y12838865D01*
X31371266Y12679644D01*
X31375502Y12673341D01*
X31375502Y12673340D01*
X31388574Y12653887D01*
X31465830Y12538917D01*
X31471442Y12533810D01*
X31471445Y12533807D01*
X31585612Y12429923D01*
X31585616Y12429920D01*
X31591233Y12424809D01*
X31597906Y12421186D01*
X31597910Y12421183D01*
X31733558Y12347533D01*
X31733560Y12347532D01*
X31740235Y12343908D01*
X31747584Y12341980D01*
X31896883Y12302812D01*
X31896885Y12302812D01*
X31904233Y12300884D01*
X31990609Y12299527D01*
X32066161Y12298340D01*
X32066164Y12298340D01*
X32073760Y12298221D01*
X32081165Y12299917D01*
X32081166Y12299917D01*
X32143459Y12314184D01*
X32239029Y12336072D01*
X32390498Y12412253D01*
X32519423Y12522366D01*
X32618361Y12660053D01*
X32626237Y12679644D01*
X32678766Y12810313D01*
X32678767Y12810315D01*
X32681601Y12817366D01*
X32705490Y12985222D01*
X32705645Y13000000D01*
X32703840Y13014920D01*
X32701004Y13038347D01*
X32685276Y13168320D01*
X32625345Y13326923D01*
X32552742Y13432561D01*
X32533614Y13460392D01*
X32533613Y13460393D01*
X32529312Y13466651D01*
X32517514Y13477163D01*
X32408392Y13574388D01*
X32408388Y13574390D01*
X32402721Y13579440D01*
X32252881Y13658776D01*
X32088441Y13700081D01*
X32080843Y13700121D01*
X32080841Y13700121D01*
X32003668Y13700525D01*
X31918895Y13700969D01*
X31911508Y13699195D01*
X31911504Y13699195D01*
X31768162Y13664780D01*
X31754032Y13661388D01*
X31747288Y13657907D01*
X31747285Y13657906D01*
X31742089Y13655224D01*
X31603369Y13583625D01*
X31597647Y13578633D01*
X31597645Y13578632D01*
X31526069Y13516192D01*
X31475604Y13472169D01*
X31378113Y13333453D01*
X31316524Y13175487D01*
X31294394Y13007389D01*
X21750000Y13007389D01*
X21750000Y14874000D01*
X21770002Y14942121D01*
X21823658Y14988614D01*
X21876000Y15000000D01*
X48596346Y15000000D01*
X48664467Y14979998D01*
G37*
%TD.AperFunction*%
%TD*%
M02*
