%TF.GenerationSoftware,KiCad,Pcbnew,(6.0.10)*%
%TF.CreationDate,2023-06-04T21:30:06-04:00*%
%TF.ProjectId,diff-probe,64696666-2d70-4726-9f62-652e6b696361,A*%
%TF.SameCoordinates,PX1f78a40PY3750280*%
%TF.FileFunction,Legend,Bot*%
%TF.FilePolarity,Positive*%
%FSLAX46Y46*%
G04 Gerber Fmt 4.6, Leading zero omitted, Abs format (unit mm)*
G04 Created by KiCad (PCBNEW (6.0.10)) date 2023-06-04 21:30:06*
%MOMM*%
%LPD*%
G01*
G04 APERTURE LIST*
%ADD10C,0.150000*%
%ADD11C,0.120000*%
G04 APERTURE END LIST*
D10*
X60750000Y6250000D02*
X60750000Y4750000D01*
X4500000Y10000000D02*
X4500000Y8500000D01*
X61500000Y10500000D02*
X60000000Y10500000D01*
X5250000Y6500000D02*
X3750000Y6500000D01*
X4500000Y7250000D02*
X4500000Y5750000D01*
X60750000Y11250000D02*
X60750000Y9750000D01*
X60000000Y7607143D02*
X59928571Y7750000D01*
X59928571Y7964286D01*
X60000000Y8178572D01*
X60142857Y8321429D01*
X60285714Y8392858D01*
X60571428Y8464286D01*
X60785714Y8464286D01*
X61071428Y8392858D01*
X61214285Y8321429D01*
X61357142Y8178572D01*
X61428571Y7964286D01*
X61428571Y7821429D01*
X61357142Y7607143D01*
X61285714Y7535715D01*
X60785714Y7535715D01*
X60785714Y7821429D01*
X58071428Y9928572D02*
X58071428Y8785715D01*
X58642857Y9357143D02*
X57500000Y9357143D01*
X58928571Y8785715D02*
X58928571Y9928572D01*
X57428571Y7357143D02*
X57428571Y8071429D01*
X58142857Y8142858D01*
X58071428Y8071429D01*
X58000000Y7928572D01*
X58000000Y7571429D01*
X58071428Y7428572D01*
X58142857Y7357143D01*
X58285714Y7285715D01*
X58642857Y7285715D01*
X58785714Y7357143D01*
X58857142Y7428572D01*
X58928571Y7571429D01*
X58928571Y7928572D01*
X58857142Y8071429D01*
X58785714Y8142858D01*
X57428571Y6857143D02*
X58928571Y6357143D01*
X57428571Y5857143D01*
X45202380Y12214286D02*
X44202380Y12214286D01*
X44202380Y11976191D01*
X44250000Y11833334D01*
X44345238Y11738096D01*
X44440476Y11690477D01*
X44630952Y11642858D01*
X44773809Y11642858D01*
X44964285Y11690477D01*
X45059523Y11738096D01*
X45154761Y11833334D01*
X45202380Y11976191D01*
X45202380Y12214286D01*
X45202380Y11214286D02*
X44202380Y11214286D01*
X44678571Y10404762D02*
X44678571Y10738096D01*
X45202380Y10738096D02*
X44202380Y10738096D01*
X44202380Y10261905D01*
X44678571Y9547620D02*
X44678571Y9880953D01*
X45202380Y9880953D02*
X44202380Y9880953D01*
X44202380Y9404762D01*
X45202380Y8261905D02*
X44202380Y8261905D01*
X44202380Y7880953D01*
X44250000Y7785715D01*
X44297619Y7738096D01*
X44392857Y7690477D01*
X44535714Y7690477D01*
X44630952Y7738096D01*
X44678571Y7785715D01*
X44726190Y7880953D01*
X44726190Y8261905D01*
X45202380Y6690477D02*
X44726190Y7023810D01*
X45202380Y7261905D02*
X44202380Y7261905D01*
X44202380Y6880953D01*
X44250000Y6785715D01*
X44297619Y6738096D01*
X44392857Y6690477D01*
X44535714Y6690477D01*
X44630952Y6738096D01*
X44678571Y6785715D01*
X44726190Y6880953D01*
X44726190Y7261905D01*
X44202380Y6071429D02*
X44202380Y5880953D01*
X44250000Y5785715D01*
X44345238Y5690477D01*
X44535714Y5642858D01*
X44869047Y5642858D01*
X45059523Y5690477D01*
X45154761Y5785715D01*
X45202380Y5880953D01*
X45202380Y6071429D01*
X45154761Y6166667D01*
X45059523Y6261905D01*
X44869047Y6309524D01*
X44535714Y6309524D01*
X44345238Y6261905D01*
X44250000Y6166667D01*
X44202380Y6071429D01*
X44678571Y4880953D02*
X44726190Y4738096D01*
X44773809Y4690477D01*
X44869047Y4642858D01*
X45011904Y4642858D01*
X45107142Y4690477D01*
X45154761Y4738096D01*
X45202380Y4833334D01*
X45202380Y5214286D01*
X44202380Y5214286D01*
X44202380Y4880953D01*
X44250000Y4785715D01*
X44297619Y4738096D01*
X44392857Y4690477D01*
X44488095Y4690477D01*
X44583333Y4738096D01*
X44630952Y4785715D01*
X44678571Y4880953D01*
X44678571Y5214286D01*
X44678571Y4214286D02*
X44678571Y3880953D01*
X45202380Y3738096D02*
X45202380Y4214286D01*
X44202380Y4214286D01*
X44202380Y3738096D01*
X46702380Y13190477D02*
X45702380Y13190477D01*
X45702380Y12809524D01*
X45750000Y12714286D01*
X45797619Y12666667D01*
X45892857Y12619048D01*
X46035714Y12619048D01*
X46130952Y12666667D01*
X46178571Y12714286D01*
X46226190Y12809524D01*
X46226190Y13190477D01*
X46607142Y11619048D02*
X46654761Y11666667D01*
X46702380Y11809524D01*
X46702380Y11904762D01*
X46654761Y12047620D01*
X46559523Y12142858D01*
X46464285Y12190477D01*
X46273809Y12238096D01*
X46130952Y12238096D01*
X45940476Y12190477D01*
X45845238Y12142858D01*
X45750000Y12047620D01*
X45702380Y11904762D01*
X45702380Y11809524D01*
X45750000Y11666667D01*
X45797619Y11619048D01*
X46178571Y10857143D02*
X46226190Y10714286D01*
X46273809Y10666667D01*
X46369047Y10619048D01*
X46511904Y10619048D01*
X46607142Y10666667D01*
X46654761Y10714286D01*
X46702380Y10809524D01*
X46702380Y11190477D01*
X45702380Y11190477D01*
X45702380Y10857143D01*
X45750000Y10761905D01*
X45797619Y10714286D01*
X45892857Y10666667D01*
X45988095Y10666667D01*
X46083333Y10714286D01*
X46130952Y10761905D01*
X46178571Y10857143D01*
X46178571Y11190477D01*
X46702380Y9666667D02*
X46702380Y10238096D01*
X46702380Y9952381D02*
X45702380Y9952381D01*
X45845238Y10047620D01*
X45940476Y10142858D01*
X45988095Y10238096D01*
X45702380Y9047620D02*
X45702380Y8952381D01*
X45750000Y8857143D01*
X45797619Y8809524D01*
X45892857Y8761905D01*
X46083333Y8714286D01*
X46321428Y8714286D01*
X46511904Y8761905D01*
X46607142Y8809524D01*
X46654761Y8857143D01*
X46702380Y8952381D01*
X46702380Y9047620D01*
X46654761Y9142858D01*
X46607142Y9190477D01*
X46511904Y9238096D01*
X46321428Y9285715D01*
X46083333Y9285715D01*
X45892857Y9238096D01*
X45797619Y9190477D01*
X45750000Y9142858D01*
X45702380Y9047620D01*
X45797619Y8333334D02*
X45750000Y8285715D01*
X45702380Y8190477D01*
X45702380Y7952381D01*
X45750000Y7857143D01*
X45797619Y7809524D01*
X45892857Y7761905D01*
X45988095Y7761905D01*
X46130952Y7809524D01*
X46702380Y8380953D01*
X46702380Y7761905D01*
X46702380Y6000000D02*
X46226190Y6333334D01*
X46702380Y6571429D02*
X45702380Y6571429D01*
X45702380Y6190477D01*
X45750000Y6095239D01*
X45797619Y6047620D01*
X45892857Y6000000D01*
X46035714Y6000000D01*
X46130952Y6047620D01*
X46178571Y6095239D01*
X46226190Y6190477D01*
X46226190Y6571429D01*
X46654761Y5190477D02*
X46702380Y5285715D01*
X46702380Y5476191D01*
X46654761Y5571429D01*
X46559523Y5619048D01*
X46178571Y5619048D01*
X46083333Y5571429D01*
X46035714Y5476191D01*
X46035714Y5285715D01*
X46083333Y5190477D01*
X46178571Y5142858D01*
X46273809Y5142858D01*
X46369047Y5619048D01*
X46035714Y4809524D02*
X46702380Y4571429D01*
X46035714Y4333334D01*
X46416666Y3238096D02*
X46416666Y2761905D01*
X46702380Y3333334D02*
X45702380Y3000000D01*
X46702380Y2666667D01*
%TO.C,D2*%
X67452380Y2738096D02*
X66452380Y2738096D01*
X66452380Y2500000D01*
X66500000Y2357143D01*
X66595238Y2261905D01*
X66690476Y2214286D01*
X66880952Y2166667D01*
X67023809Y2166667D01*
X67214285Y2214286D01*
X67309523Y2261905D01*
X67404761Y2357143D01*
X67452380Y2500000D01*
X67452380Y2738096D01*
X66547619Y1785715D02*
X66500000Y1738096D01*
X66452380Y1642858D01*
X66452380Y1404762D01*
X66500000Y1309524D01*
X66547619Y1261905D01*
X66642857Y1214286D01*
X66738095Y1214286D01*
X66880952Y1261905D01*
X67452380Y1833334D01*
X67452380Y1214286D01*
%TO.C,D1*%
X67452380Y14738096D02*
X66452380Y14738096D01*
X66452380Y14500000D01*
X66500000Y14357143D01*
X66595238Y14261905D01*
X66690476Y14214286D01*
X66880952Y14166667D01*
X67023809Y14166667D01*
X67214285Y14214286D01*
X67309523Y14261905D01*
X67404761Y14357143D01*
X67452380Y14500000D01*
X67452380Y14738096D01*
X67452380Y13214286D02*
X67452380Y13785715D01*
X67452380Y13500000D02*
X66452380Y13500000D01*
X66595238Y13595239D01*
X66690476Y13690477D01*
X66738095Y13785715D01*
%TO.C,C40*%
X35392857Y11042858D02*
X35440476Y10995239D01*
X35583333Y10947620D01*
X35678571Y10947620D01*
X35821428Y10995239D01*
X35916666Y11090477D01*
X35964285Y11185715D01*
X36011904Y11376191D01*
X36011904Y11519048D01*
X35964285Y11709524D01*
X35916666Y11804762D01*
X35821428Y11900000D01*
X35678571Y11947620D01*
X35583333Y11947620D01*
X35440476Y11900000D01*
X35392857Y11852381D01*
X34535714Y11614286D02*
X34535714Y10947620D01*
X34773809Y11995239D02*
X35011904Y11280953D01*
X34392857Y11280953D01*
X33821428Y11947620D02*
X33726190Y11947620D01*
X33630952Y11900000D01*
X33583333Y11852381D01*
X33535714Y11757143D01*
X33488095Y11566667D01*
X33488095Y11328572D01*
X33535714Y11138096D01*
X33583333Y11042858D01*
X33630952Y10995239D01*
X33726190Y10947620D01*
X33821428Y10947620D01*
X33916666Y10995239D01*
X33964285Y11042858D01*
X34011904Y11138096D01*
X34059523Y11328572D01*
X34059523Y11566667D01*
X34011904Y11757143D01*
X33964285Y11852381D01*
X33916666Y11900000D01*
X33821428Y11947620D01*
%TO.C,C13*%
X14857142Y3142858D02*
X14904761Y3190477D01*
X14952380Y3333334D01*
X14952380Y3428572D01*
X14904761Y3571429D01*
X14809523Y3666667D01*
X14714285Y3714286D01*
X14523809Y3761905D01*
X14380952Y3761905D01*
X14190476Y3714286D01*
X14095238Y3666667D01*
X14000000Y3571429D01*
X13952380Y3428572D01*
X13952380Y3333334D01*
X14000000Y3190477D01*
X14047619Y3142858D01*
X14952380Y2190477D02*
X14952380Y2761905D01*
X14952380Y2476191D02*
X13952380Y2476191D01*
X14095238Y2571429D01*
X14190476Y2666667D01*
X14238095Y2761905D01*
X13952380Y1857143D02*
X13952380Y1238096D01*
X14333333Y1571429D01*
X14333333Y1428572D01*
X14380952Y1333334D01*
X14428571Y1285715D01*
X14523809Y1238096D01*
X14761904Y1238096D01*
X14857142Y1285715D01*
X14904761Y1333334D01*
X14952380Y1428572D01*
X14952380Y1714286D01*
X14904761Y1809524D01*
X14857142Y1857143D01*
%TO.C,C41*%
X35392857Y4242858D02*
X35440476Y4195239D01*
X35583333Y4147620D01*
X35678571Y4147620D01*
X35821428Y4195239D01*
X35916666Y4290477D01*
X35964285Y4385715D01*
X36011904Y4576191D01*
X36011904Y4719048D01*
X35964285Y4909524D01*
X35916666Y5004762D01*
X35821428Y5100000D01*
X35678571Y5147620D01*
X35583333Y5147620D01*
X35440476Y5100000D01*
X35392857Y5052381D01*
X34535714Y4814286D02*
X34535714Y4147620D01*
X34773809Y5195239D02*
X35011904Y4480953D01*
X34392857Y4480953D01*
X33488095Y4147620D02*
X34059523Y4147620D01*
X33773809Y4147620D02*
X33773809Y5147620D01*
X33869047Y5004762D01*
X33964285Y4909524D01*
X34059523Y4861905D01*
%TO.C,C23*%
X15107142Y14642858D02*
X15154761Y14690477D01*
X15202380Y14833334D01*
X15202380Y14928572D01*
X15154761Y15071429D01*
X15059523Y15166667D01*
X14964285Y15214286D01*
X14773809Y15261905D01*
X14630952Y15261905D01*
X14440476Y15214286D01*
X14345238Y15166667D01*
X14250000Y15071429D01*
X14202380Y14928572D01*
X14202380Y14833334D01*
X14250000Y14690477D01*
X14297619Y14642858D01*
X14297619Y14261905D02*
X14250000Y14214286D01*
X14202380Y14119048D01*
X14202380Y13880953D01*
X14250000Y13785715D01*
X14297619Y13738096D01*
X14392857Y13690477D01*
X14488095Y13690477D01*
X14630952Y13738096D01*
X15202380Y14309524D01*
X15202380Y13690477D01*
X14202380Y13357143D02*
X14202380Y12738096D01*
X14583333Y13071429D01*
X14583333Y12928572D01*
X14630952Y12833334D01*
X14678571Y12785715D01*
X14773809Y12738096D01*
X15011904Y12738096D01*
X15107142Y12785715D01*
X15154761Y12833334D01*
X15202380Y12928572D01*
X15202380Y13214286D01*
X15154761Y13309524D01*
X15107142Y13357143D01*
%TO.C,C21*%
X16857142Y14642858D02*
X16904761Y14690477D01*
X16952380Y14833334D01*
X16952380Y14928572D01*
X16904761Y15071429D01*
X16809523Y15166667D01*
X16714285Y15214286D01*
X16523809Y15261905D01*
X16380952Y15261905D01*
X16190476Y15214286D01*
X16095238Y15166667D01*
X16000000Y15071429D01*
X15952380Y14928572D01*
X15952380Y14833334D01*
X16000000Y14690477D01*
X16047619Y14642858D01*
X16047619Y14261905D02*
X16000000Y14214286D01*
X15952380Y14119048D01*
X15952380Y13880953D01*
X16000000Y13785715D01*
X16047619Y13738096D01*
X16142857Y13690477D01*
X16238095Y13690477D01*
X16380952Y13738096D01*
X16952380Y14309524D01*
X16952380Y13690477D01*
X16952380Y12738096D02*
X16952380Y13309524D01*
X16952380Y13023810D02*
X15952380Y13023810D01*
X16095238Y13119048D01*
X16190476Y13214286D01*
X16238095Y13309524D01*
%TO.C,C33*%
X30857142Y8392858D02*
X30904761Y8440477D01*
X30952380Y8583334D01*
X30952380Y8678572D01*
X30904761Y8821429D01*
X30809523Y8916667D01*
X30714285Y8964286D01*
X30523809Y9011905D01*
X30380952Y9011905D01*
X30190476Y8964286D01*
X30095238Y8916667D01*
X30000000Y8821429D01*
X29952380Y8678572D01*
X29952380Y8583334D01*
X30000000Y8440477D01*
X30047619Y8392858D01*
X29952380Y8059524D02*
X29952380Y7440477D01*
X30333333Y7773810D01*
X30333333Y7630953D01*
X30380952Y7535715D01*
X30428571Y7488096D01*
X30523809Y7440477D01*
X30761904Y7440477D01*
X30857142Y7488096D01*
X30904761Y7535715D01*
X30952380Y7630953D01*
X30952380Y7916667D01*
X30904761Y8011905D01*
X30857142Y8059524D01*
X29952380Y7107143D02*
X29952380Y6488096D01*
X30333333Y6821429D01*
X30333333Y6678572D01*
X30380952Y6583334D01*
X30428571Y6535715D01*
X30523809Y6488096D01*
X30761904Y6488096D01*
X30857142Y6535715D01*
X30904761Y6583334D01*
X30952380Y6678572D01*
X30952380Y6964286D01*
X30904761Y7059524D01*
X30857142Y7107143D01*
%TO.C,C10*%
X27507142Y2842858D02*
X27554761Y2890477D01*
X27602380Y3033334D01*
X27602380Y3128572D01*
X27554761Y3271429D01*
X27459523Y3366667D01*
X27364285Y3414286D01*
X27173809Y3461905D01*
X27030952Y3461905D01*
X26840476Y3414286D01*
X26745238Y3366667D01*
X26650000Y3271429D01*
X26602380Y3128572D01*
X26602380Y3033334D01*
X26650000Y2890477D01*
X26697619Y2842858D01*
X27602380Y1890477D02*
X27602380Y2461905D01*
X27602380Y2176191D02*
X26602380Y2176191D01*
X26745238Y2271429D01*
X26840476Y2366667D01*
X26888095Y2461905D01*
X26602380Y1271429D02*
X26602380Y1176191D01*
X26650000Y1080953D01*
X26697619Y1033334D01*
X26792857Y985715D01*
X26983333Y938096D01*
X27221428Y938096D01*
X27411904Y985715D01*
X27507142Y1033334D01*
X27554761Y1080953D01*
X27602380Y1176191D01*
X27602380Y1271429D01*
X27554761Y1366667D01*
X27507142Y1414286D01*
X27411904Y1461905D01*
X27221428Y1509524D01*
X26983333Y1509524D01*
X26792857Y1461905D01*
X26697619Y1414286D01*
X26650000Y1366667D01*
X26602380Y1271429D01*
%TO.C,C11*%
X16607142Y3142858D02*
X16654761Y3190477D01*
X16702380Y3333334D01*
X16702380Y3428572D01*
X16654761Y3571429D01*
X16559523Y3666667D01*
X16464285Y3714286D01*
X16273809Y3761905D01*
X16130952Y3761905D01*
X15940476Y3714286D01*
X15845238Y3666667D01*
X15750000Y3571429D01*
X15702380Y3428572D01*
X15702380Y3333334D01*
X15750000Y3190477D01*
X15797619Y3142858D01*
X16702380Y2190477D02*
X16702380Y2761905D01*
X16702380Y2476191D02*
X15702380Y2476191D01*
X15845238Y2571429D01*
X15940476Y2666667D01*
X15988095Y2761905D01*
X16702380Y1238096D02*
X16702380Y1809524D01*
X16702380Y1523810D02*
X15702380Y1523810D01*
X15845238Y1619048D01*
X15940476Y1714286D01*
X15988095Y1809524D01*
%TO.C,C30*%
X43107142Y7892858D02*
X43154761Y7940477D01*
X43202380Y8083334D01*
X43202380Y8178572D01*
X43154761Y8321429D01*
X43059523Y8416667D01*
X42964285Y8464286D01*
X42773809Y8511905D01*
X42630952Y8511905D01*
X42440476Y8464286D01*
X42345238Y8416667D01*
X42250000Y8321429D01*
X42202380Y8178572D01*
X42202380Y8083334D01*
X42250000Y7940477D01*
X42297619Y7892858D01*
X42202380Y7559524D02*
X42202380Y6940477D01*
X42583333Y7273810D01*
X42583333Y7130953D01*
X42630952Y7035715D01*
X42678571Y6988096D01*
X42773809Y6940477D01*
X43011904Y6940477D01*
X43107142Y6988096D01*
X43154761Y7035715D01*
X43202380Y7130953D01*
X43202380Y7416667D01*
X43154761Y7511905D01*
X43107142Y7559524D01*
X42202380Y6321429D02*
X42202380Y6226191D01*
X42250000Y6130953D01*
X42297619Y6083334D01*
X42392857Y6035715D01*
X42583333Y5988096D01*
X42821428Y5988096D01*
X43011904Y6035715D01*
X43107142Y6083334D01*
X43154761Y6130953D01*
X43202380Y6226191D01*
X43202380Y6321429D01*
X43154761Y6416667D01*
X43107142Y6464286D01*
X43011904Y6511905D01*
X42821428Y6559524D01*
X42583333Y6559524D01*
X42392857Y6511905D01*
X42297619Y6464286D01*
X42250000Y6416667D01*
X42202380Y6321429D01*
%TO.C,C22*%
X25857142Y11142858D02*
X25904761Y11190477D01*
X25952380Y11333334D01*
X25952380Y11428572D01*
X25904761Y11571429D01*
X25809523Y11666667D01*
X25714285Y11714286D01*
X25523809Y11761905D01*
X25380952Y11761905D01*
X25190476Y11714286D01*
X25095238Y11666667D01*
X25000000Y11571429D01*
X24952380Y11428572D01*
X24952380Y11333334D01*
X25000000Y11190477D01*
X25047619Y11142858D01*
X25047619Y10761905D02*
X25000000Y10714286D01*
X24952380Y10619048D01*
X24952380Y10380953D01*
X25000000Y10285715D01*
X25047619Y10238096D01*
X25142857Y10190477D01*
X25238095Y10190477D01*
X25380952Y10238096D01*
X25952380Y10809524D01*
X25952380Y10190477D01*
X25047619Y9809524D02*
X25000000Y9761905D01*
X24952380Y9666667D01*
X24952380Y9428572D01*
X25000000Y9333334D01*
X25047619Y9285715D01*
X25142857Y9238096D01*
X25238095Y9238096D01*
X25380952Y9285715D01*
X25952380Y9857143D01*
X25952380Y9238096D01*
%TO.C,R6*%
X13202380Y8666667D02*
X12726190Y9000000D01*
X13202380Y9238096D02*
X12202380Y9238096D01*
X12202380Y8857143D01*
X12250000Y8761905D01*
X12297619Y8714286D01*
X12392857Y8666667D01*
X12535714Y8666667D01*
X12630952Y8714286D01*
X12678571Y8761905D01*
X12726190Y8857143D01*
X12726190Y9238096D01*
X12202380Y7809524D02*
X12202380Y8000000D01*
X12250000Y8095239D01*
X12297619Y8142858D01*
X12440476Y8238096D01*
X12630952Y8285715D01*
X13011904Y8285715D01*
X13107142Y8238096D01*
X13154761Y8190477D01*
X13202380Y8095239D01*
X13202380Y7904762D01*
X13154761Y7809524D01*
X13107142Y7761905D01*
X13011904Y7714286D01*
X12773809Y7714286D01*
X12678571Y7761905D01*
X12630952Y7809524D01*
X12583333Y7904762D01*
X12583333Y8095239D01*
X12630952Y8190477D01*
X12678571Y8238096D01*
X12773809Y8285715D01*
%TO.C,C31*%
X32357142Y8392858D02*
X32404761Y8440477D01*
X32452380Y8583334D01*
X32452380Y8678572D01*
X32404761Y8821429D01*
X32309523Y8916667D01*
X32214285Y8964286D01*
X32023809Y9011905D01*
X31880952Y9011905D01*
X31690476Y8964286D01*
X31595238Y8916667D01*
X31500000Y8821429D01*
X31452380Y8678572D01*
X31452380Y8583334D01*
X31500000Y8440477D01*
X31547619Y8392858D01*
X31452380Y8059524D02*
X31452380Y7440477D01*
X31833333Y7773810D01*
X31833333Y7630953D01*
X31880952Y7535715D01*
X31928571Y7488096D01*
X32023809Y7440477D01*
X32261904Y7440477D01*
X32357142Y7488096D01*
X32404761Y7535715D01*
X32452380Y7630953D01*
X32452380Y7916667D01*
X32404761Y8011905D01*
X32357142Y8059524D01*
X32452380Y6488096D02*
X32452380Y7059524D01*
X32452380Y6773810D02*
X31452380Y6773810D01*
X31595238Y6869048D01*
X31690476Y6964286D01*
X31738095Y7059524D01*
%TO.C,C20*%
X27507142Y11142858D02*
X27554761Y11190477D01*
X27602380Y11333334D01*
X27602380Y11428572D01*
X27554761Y11571429D01*
X27459523Y11666667D01*
X27364285Y11714286D01*
X27173809Y11761905D01*
X27030952Y11761905D01*
X26840476Y11714286D01*
X26745238Y11666667D01*
X26650000Y11571429D01*
X26602380Y11428572D01*
X26602380Y11333334D01*
X26650000Y11190477D01*
X26697619Y11142858D01*
X26697619Y10761905D02*
X26650000Y10714286D01*
X26602380Y10619048D01*
X26602380Y10380953D01*
X26650000Y10285715D01*
X26697619Y10238096D01*
X26792857Y10190477D01*
X26888095Y10190477D01*
X27030952Y10238096D01*
X27602380Y10809524D01*
X27602380Y10190477D01*
X26602380Y9571429D02*
X26602380Y9476191D01*
X26650000Y9380953D01*
X26697619Y9333334D01*
X26792857Y9285715D01*
X26983333Y9238096D01*
X27221428Y9238096D01*
X27411904Y9285715D01*
X27507142Y9333334D01*
X27554761Y9380953D01*
X27602380Y9476191D01*
X27602380Y9571429D01*
X27554761Y9666667D01*
X27507142Y9714286D01*
X27411904Y9761905D01*
X27221428Y9809524D01*
X26983333Y9809524D01*
X26792857Y9761905D01*
X26697619Y9714286D01*
X26650000Y9666667D01*
X26602380Y9571429D01*
%TO.C,C32*%
X41607142Y7892858D02*
X41654761Y7940477D01*
X41702380Y8083334D01*
X41702380Y8178572D01*
X41654761Y8321429D01*
X41559523Y8416667D01*
X41464285Y8464286D01*
X41273809Y8511905D01*
X41130952Y8511905D01*
X40940476Y8464286D01*
X40845238Y8416667D01*
X40750000Y8321429D01*
X40702380Y8178572D01*
X40702380Y8083334D01*
X40750000Y7940477D01*
X40797619Y7892858D01*
X40702380Y7559524D02*
X40702380Y6940477D01*
X41083333Y7273810D01*
X41083333Y7130953D01*
X41130952Y7035715D01*
X41178571Y6988096D01*
X41273809Y6940477D01*
X41511904Y6940477D01*
X41607142Y6988096D01*
X41654761Y7035715D01*
X41702380Y7130953D01*
X41702380Y7416667D01*
X41654761Y7511905D01*
X41607142Y7559524D01*
X40797619Y6559524D02*
X40750000Y6511905D01*
X40702380Y6416667D01*
X40702380Y6178572D01*
X40750000Y6083334D01*
X40797619Y6035715D01*
X40892857Y5988096D01*
X40988095Y5988096D01*
X41130952Y6035715D01*
X41702380Y6607143D01*
X41702380Y5988096D01*
%TO.C,C12*%
X25857142Y2892858D02*
X25904761Y2940477D01*
X25952380Y3083334D01*
X25952380Y3178572D01*
X25904761Y3321429D01*
X25809523Y3416667D01*
X25714285Y3464286D01*
X25523809Y3511905D01*
X25380952Y3511905D01*
X25190476Y3464286D01*
X25095238Y3416667D01*
X25000000Y3321429D01*
X24952380Y3178572D01*
X24952380Y3083334D01*
X25000000Y2940477D01*
X25047619Y2892858D01*
X25952380Y1940477D02*
X25952380Y2511905D01*
X25952380Y2226191D02*
X24952380Y2226191D01*
X25095238Y2321429D01*
X25190476Y2416667D01*
X25238095Y2511905D01*
X25047619Y1559524D02*
X25000000Y1511905D01*
X24952380Y1416667D01*
X24952380Y1178572D01*
X25000000Y1083334D01*
X25047619Y1035715D01*
X25142857Y988096D01*
X25238095Y988096D01*
X25380952Y1035715D01*
X25952380Y1607143D01*
X25952380Y988096D01*
D11*
%TO.C,D2*%
X64235000Y840000D02*
X61500000Y840000D01*
X64235000Y2500000D02*
X64235000Y3160000D01*
X64235000Y830000D02*
X64235000Y1500000D01*
X62825000Y3160000D02*
X64235000Y3160000D01*
%TO.C,D1*%
X62765000Y15160000D02*
X65500000Y15160000D01*
X62765000Y13500000D02*
X62765000Y12840000D01*
X62765000Y15170000D02*
X62765000Y14500000D01*
X64175000Y12840000D02*
X62765000Y12840000D01*
%TO.C,C40*%
X34038748Y12340000D02*
X35461252Y12340000D01*
X34038748Y14160000D02*
X35461252Y14160000D01*
%TO.C,C13*%
X17490000Y4390580D02*
X17490000Y4109420D01*
X18510000Y4390580D02*
X18510000Y4109420D01*
%TO.C,C41*%
X35461252Y1840000D02*
X34038748Y1840000D01*
X35461252Y3660000D02*
X34038748Y3660000D01*
%TO.C,C23*%
X18510000Y11390580D02*
X18510000Y11109420D01*
X17490000Y11390580D02*
X17490000Y11109420D01*
%TO.C,C21*%
X19490000Y11390580D02*
X19490000Y11109420D01*
X20510000Y11390580D02*
X20510000Y11109420D01*
%TO.C,C33*%
X34260000Y7890580D02*
X34260000Y7609420D01*
X33240000Y7890580D02*
X33240000Y7609420D01*
%TO.C,J3*%
X64940000Y11870000D02*
X67600000Y11870000D01*
X67600000Y4130000D02*
X64940000Y4130000D01*
X67670000Y5080000D02*
X68000000Y5080000D01*
X62230000Y4190000D02*
X63500000Y4190000D01*
X67602929Y10920000D02*
X68000000Y10920000D01*
X64940000Y4130000D02*
X64940000Y11870000D01*
X67600000Y11870000D02*
X67600000Y4130000D01*
X64610000Y5080000D02*
X64940000Y5080000D01*
X64542929Y7620000D02*
X64940000Y7620000D01*
X64542929Y10160000D02*
X64940000Y10160000D01*
X62230000Y5460000D02*
X62230000Y4190000D01*
X64940000Y6730000D02*
X67600000Y6730000D01*
X64610000Y5840000D02*
X64940000Y5840000D01*
X64940000Y9270000D02*
X67600000Y9270000D01*
X64542929Y10920000D02*
X64940000Y10920000D01*
X67602929Y7620000D02*
X68000000Y7620000D01*
X64542929Y8380000D02*
X64940000Y8380000D01*
X67602929Y8380000D02*
X68000000Y8380000D01*
X67670000Y5840000D02*
X68000000Y5840000D01*
X67602929Y10160000D02*
X68000000Y10160000D01*
%TO.C,C10*%
X24260000Y3640580D02*
X24260000Y3359420D01*
X23240000Y3640580D02*
X23240000Y3359420D01*
%TO.C,C11*%
X19490000Y4390580D02*
X19490000Y4109420D01*
X20510000Y4390580D02*
X20510000Y4109420D01*
%TO.C,C30*%
X40010000Y7140580D02*
X40010000Y6859420D01*
X38990000Y7140580D02*
X38990000Y6859420D01*
%TO.C,C22*%
X22510000Y10640580D02*
X22510000Y10359420D01*
X21490000Y10640580D02*
X21490000Y10359420D01*
%TO.C,R6*%
X14772500Y8737258D02*
X14772500Y8262742D01*
X13727500Y8737258D02*
X13727500Y8262742D01*
%TO.C,C31*%
X36260000Y7890580D02*
X36260000Y7609420D01*
X35240000Y7890580D02*
X35240000Y7609420D01*
%TO.C,C20*%
X23240000Y10640580D02*
X23240000Y10359420D01*
X24260000Y10640580D02*
X24260000Y10359420D01*
%TO.C,C32*%
X37240000Y7140580D02*
X37240000Y6859420D01*
X38260000Y7140580D02*
X38260000Y6859420D01*
%TO.C,C12*%
X21490000Y3640580D02*
X21490000Y3359420D01*
X22510000Y3640580D02*
X22510000Y3359420D01*
%TD*%
M02*
