M48
; DRILL file {KiCad (6.0.10)} date Sun Jun  4 13:07:24 2023
; FORMAT={-:-/ absolute / metric / decimal}
; #@! TF.CreationDate,2023-06-04T13:07:24-04:00
; #@! TF.GenerationSoftware,Kicad,Pcbnew,(6.0.10)
; #@! TF.FileFunction,Plated,1,4,PTH
FMAT,2
METRIC
; #@! TA.AperFunction,Plated,PTH,ViaDrill
T1C0.400
; #@! TA.AperFunction,Plated,PTH,ComponentDrill
T2C0.890
; #@! TA.AperFunction,Plated,PTH,ComponentDrill
T3C1.000
; #@! TA.AperFunction,Plated,PTH,ComponentDrill
T4C2.100
%
G90
G05
T1
X9.75Y8.0
X11.5Y8.0
X14.75Y12.0
X14.75Y5.0
X18.0Y13.0
X18.0Y9.5
X18.0Y6.0
X18.0Y2.5
X20.0Y13.0
X20.0Y9.5
X20.0Y6.0
X20.0Y2.5
X21.75Y8.5
X21.75Y1.5
X23.25Y12.25
X23.25Y5.25
X23.5Y8.5
X23.5Y1.5
X26.75Y4.25
X28.75Y4.25
X32.0Y13.25
X32.0Y2.75
X33.75Y9.5
X33.75Y6.0
X35.75Y9.5
X35.75Y6.0
X37.5Y13.25
X37.5Y4.75
X37.5Y2.75
X39.0Y8.6
X39.25Y4.75
X60.5Y14.5
X60.5Y13.25
X60.5Y3.25
X60.5Y2.0
T2
X48.5Y10.54
X48.5Y8.0
T3
X2.0Y9.27
X2.0Y6.73
X63.5Y10.54
X63.5Y8.0
X63.5Y5.46
T4
X53.58Y13.08
X53.58Y2.92
T0
M30
