%TF.GenerationSoftware,KiCad,Pcbnew,(6.0.10)*%
%TF.CreationDate,2023-06-04T13:07:17-04:00*%
%TF.ProjectId,diff-probe,64696666-2d70-4726-9f62-652e6b696361,A*%
%TF.SameCoordinates,PX1f78a40PY3750280*%
%TF.FileFunction,Soldermask,Top*%
%TF.FilePolarity,Negative*%
%FSLAX46Y46*%
G04 Gerber Fmt 4.6, Leading zero omitted, Abs format (unit mm)*
G04 Created by KiCad (PCBNEW (6.0.10)) date 2023-06-04 13:07:17*
%MOMM*%
%LPD*%
G01*
G04 APERTURE LIST*
G04 Aperture macros list*
%AMRoundRect*
0 Rectangle with rounded corners*
0 $1 Rounding radius*
0 $2 $3 $4 $5 $6 $7 $8 $9 X,Y pos of 4 corners*
0 Add a 4 corners polygon primitive as box body*
4,1,4,$2,$3,$4,$5,$6,$7,$8,$9,$2,$3,0*
0 Add four circle primitives for the rounded corners*
1,1,$1+$1,$2,$3*
1,1,$1+$1,$4,$5*
1,1,$1+$1,$6,$7*
1,1,$1+$1,$8,$9*
0 Add four rect primitives between the rounded corners*
20,1,$1+$1,$2,$3,$4,$5,0*
20,1,$1+$1,$4,$5,$6,$7,0*
20,1,$1+$1,$6,$7,$8,$9,0*
20,1,$1+$1,$8,$9,$2,$3,0*%
%AMHorizOval*
0 Thick line with rounded ends*
0 $1 width*
0 $2 $3 position (X,Y) of the first rounded end (center of the circle)*
0 $4 $5 position (X,Y) of the second rounded end (center of the circle)*
0 Add line between two ends*
20,1,$1,$2,$3,$4,$5,0*
0 Add two circle primitives to create the rounded ends*
1,1,$1,$2,$3*
1,1,$1,$4,$5*%
G04 Aperture macros list end*
%ADD10C,2.500000*%
%ADD11RoundRect,0.200000X0.275000X-0.200000X0.275000X0.200000X-0.275000X0.200000X-0.275000X-0.200000X0*%
%ADD12RoundRect,0.200000X-0.275000X0.200000X-0.275000X-0.200000X0.275000X-0.200000X0.275000X0.200000X0*%
%ADD13RoundRect,0.218750X-0.256250X0.218750X-0.256250X-0.218750X0.256250X-0.218750X0.256250X0.218750X0*%
%ADD14O,7.000000X3.500000*%
%ADD15RoundRect,0.400000X-0.400000X0.400000X-0.400000X-0.400000X0.400000X-0.400000X0.400000X0.400000X0*%
%ADD16C,1.600000*%
%ADD17RoundRect,0.150000X-0.725000X-0.150000X0.725000X-0.150000X0.725000X0.150000X-0.725000X0.150000X0*%
%ADD18RoundRect,0.225000X-0.250000X0.225000X-0.250000X-0.225000X0.250000X-0.225000X0.250000X0.225000X0*%
%ADD19RoundRect,0.225000X0.250000X-0.225000X0.250000X0.225000X-0.250000X0.225000X-0.250000X-0.225000X0*%
%ADD20R,1.700000X1.700000*%
%ADD21O,1.700000X1.700000*%
%ADD22RoundRect,0.200000X-0.200000X-0.275000X0.200000X-0.275000X0.200000X0.275000X-0.200000X0.275000X0*%
%ADD23HorizOval,1.700000X0.000000X0.000000X0.000000X0.000000X0*%
G04 APERTURE END LIST*
D10*
%TO.C,H2*%
X42000000Y2750000D03*
%TD*%
%TO.C,H1*%
X42000000Y13250000D03*
%TD*%
D11*
%TO.C,R21*%
X33750000Y1925000D03*
X33750000Y3575000D03*
%TD*%
D12*
%TO.C,R20*%
X33750000Y14075000D03*
X33750000Y12425000D03*
%TD*%
D13*
%TO.C,D21*%
X35750000Y1962500D03*
X35750000Y3537500D03*
%TD*%
%TO.C,D20*%
X35712500Y12462500D03*
X35712500Y14037500D03*
%TD*%
D14*
%TO.C,J2*%
X53580000Y2920000D03*
X53580000Y13080000D03*
D15*
X48500000Y8000000D03*
D16*
X48500000Y10540000D03*
%TD*%
D17*
%TO.C,U1*%
X16425000Y6405000D03*
X16425000Y5135000D03*
X16425000Y3865000D03*
X16425000Y2595000D03*
X21575000Y2595000D03*
X21575000Y3865000D03*
X21575000Y5135000D03*
X21575000Y6405000D03*
%TD*%
D11*
%TO.C,R3*%
X5750000Y9175000D03*
X5750000Y10825000D03*
%TD*%
D18*
%TO.C,C4*%
X9750000Y10775000D03*
X9750000Y9225000D03*
%TD*%
D12*
%TO.C,R7*%
X13500000Y13825000D03*
X13500000Y12175000D03*
%TD*%
D19*
%TO.C,C6*%
X28750000Y9225000D03*
X28750000Y10775000D03*
%TD*%
D18*
%TO.C,C1*%
X7500000Y6775000D03*
X7500000Y5225000D03*
%TD*%
D11*
%TO.C,R4*%
X11500000Y9175000D03*
X11500000Y10825000D03*
%TD*%
D12*
%TO.C,R2*%
X11500000Y6825000D03*
X11500000Y5175000D03*
%TD*%
D17*
%TO.C,U2*%
X16425000Y13405000D03*
X16425000Y12135000D03*
X16425000Y10865000D03*
X16425000Y9595000D03*
X21575000Y9595000D03*
X21575000Y10865000D03*
X21575000Y12135000D03*
X21575000Y13405000D03*
%TD*%
D19*
%TO.C,C2*%
X9750000Y5225000D03*
X9750000Y6775000D03*
%TD*%
D18*
%TO.C,C5*%
X28750000Y7025000D03*
X28750000Y5475000D03*
%TD*%
D12*
%TO.C,R9*%
X26750000Y7075000D03*
X26750000Y5425000D03*
%TD*%
%TO.C,R1*%
X5750000Y6825000D03*
X5750000Y5175000D03*
%TD*%
D11*
%TO.C,R11*%
X26750000Y9175000D03*
X26750000Y10825000D03*
%TD*%
D20*
%TO.C,J1*%
X2000000Y6730000D03*
D21*
X2000000Y9270000D03*
%TD*%
D11*
%TO.C,R8*%
X24750000Y5425000D03*
X24750000Y7075000D03*
%TD*%
D22*
%TO.C,R12*%
X41175000Y8000000D03*
X42825000Y8000000D03*
%TD*%
D19*
%TO.C,C3*%
X7500000Y9225000D03*
X7500000Y10775000D03*
%TD*%
D12*
%TO.C,R10*%
X24750000Y10825000D03*
X24750000Y9175000D03*
%TD*%
D11*
%TO.C,R5*%
X13500000Y4925000D03*
X13500000Y6575000D03*
%TD*%
D17*
%TO.C,U3*%
X32175000Y9905000D03*
X32175000Y8635000D03*
X32175000Y7365000D03*
X32175000Y6095000D03*
X37325000Y6095000D03*
X37325000Y7365000D03*
X37325000Y8635000D03*
X37325000Y9905000D03*
%TD*%
D20*
%TO.C,J3*%
X63500000Y5460000D03*
D23*
X63500000Y8000000D03*
D21*
X63500000Y10540000D03*
%TD*%
M02*
